<?xml version="1.0" encoding="utf-8" standalone="no"?>
<!DOCTYPE svg PUBLIC "-//W3C//DTD SVG 1.1//EN"
  "http://www.w3.org/Graphics/SVG/1.1/DTD/svg11.dtd">
<svg xmlns:xlink="http://www.w3.org/1999/xlink" width="460.8pt" height="345.6pt" viewBox="0 0 460.8 345.6" xmlns="http://www.w3.org/2000/svg" version="1.1">
 <metadata>
  <rdf:RDF xmlns:dc="http://purl.org/dc/elements/1.1/" xmlns:cc="http://creativecommons.org/ns#" xmlns:rdf="http://www.w3.org/1999/02/22-rdf-syntax-ns#">
   <cc:Work>
    <dc:type rdf:resource="http://purl.org/dc/dcmitype/StillImage"/>
    <dc:date>2022-12-01T06:27:30.689072</dc:date>
    <dc:format>image/svg+xml</dc:format>
    <dc:creator>
     <cc:Agent>
      <dc:title>Matplotlib v3.6.2, https://matplotlib.org/</dc:title>
     </cc:Agent>
    </dc:creator>
   </cc:Work>
  </rdf:RDF>
 </metadata>
 <defs>
  <style type="text/css">*{stroke-linejoin: round; stroke-linecap: butt}</style>
 </defs>
 <g id="figure_1">
  <g id="patch_1">
   <path d="M 0 345.6 
L 460.8 345.6 
L 460.8 0 
L 0 0 
z
" style="fill: #ffffff"/>
  </g>
  <g id="axes_1">
   <g id="patch_2">
    <path d="M 81.5616 241.92 
L 435.9168 241.92 
L 435.9168 12.096 
L 81.5616 12.096 
z
" style="fill: #ffffff"/>
   </g>
   <g id="matplotlib.axis_1">
    <g id="xtick_1">
     <g id="line2d_1">
      <defs>
       <path id="m1266abb946" d="M 0 0 
L 0 7 
" style="stroke: #000000; stroke-width: 1.1"/>
      </defs>
      <g>
       <use xlink:href="#m1266abb946" x="81.5616" y="241.92" style="fill-opacity: 0; stroke: #000000; stroke-width: 1.1"/>
      </g>
     </g>
     <g id="text_1">
      <!-- 0 -->
      <g transform="translate(77.10785 264.557813) scale(0.14 -0.14)">
       <defs>
        <path id="DejaVuSans-30" d="M 2034 4250 
Q 1547 4250 1301 3770 
Q 1056 3291 1056 2328 
Q 1056 1369 1301 889 
Q 1547 409 2034 409 
Q 2525 409 2770 889 
Q 3016 1369 3016 2328 
Q 3016 3291 2770 3770 
Q 2525 4250 2034 4250 
z
M 2034 4750 
Q 2819 4750 3233 4129 
Q 3647 3509 3647 2328 
Q 3647 1150 3233 529 
Q 2819 -91 2034 -91 
Q 1250 -91 836 529 
Q 422 1150 422 2328 
Q 422 3509 836 4129 
Q 1250 4750 2034 4750 
z
" transform="scale(0.015625)"/>
       </defs>
       <use xlink:href="#DejaVuSans-30"/>
      </g>
     </g>
    </g>
    <g id="xtick_2">
     <g id="line2d_2">
      <g>
       <use xlink:href="#m1266abb946" x="168.583997" y="241.92" style="fill-opacity: 0; stroke: #000000; stroke-width: 1.1"/>
      </g>
     </g>
     <g id="text_2">
      <!-- 1 -->
      <g transform="translate(164.130247 264.557813) scale(0.14 -0.14)">
       <defs>
        <path id="DejaVuSans-31" d="M 794 531 
L 1825 531 
L 1825 4091 
L 703 3866 
L 703 4441 
L 1819 4666 
L 2450 4666 
L 2450 531 
L 3481 531 
L 3481 0 
L 794 0 
L 794 531 
z
" transform="scale(0.015625)"/>
       </defs>
       <use xlink:href="#DejaVuSans-31"/>
      </g>
     </g>
    </g>
    <g id="xtick_3">
     <g id="line2d_3">
      <g>
       <use xlink:href="#m1266abb946" x="255.606394" y="241.92" style="fill-opacity: 0; stroke: #000000; stroke-width: 1.1"/>
      </g>
     </g>
     <g id="text_3">
      <!-- 2 -->
      <g transform="translate(251.152644 264.557813) scale(0.14 -0.14)">
       <defs>
        <path id="DejaVuSans-32" d="M 1228 531 
L 3431 531 
L 3431 0 
L 469 0 
L 469 531 
Q 828 903 1448 1529 
Q 2069 2156 2228 2338 
Q 2531 2678 2651 2914 
Q 2772 3150 2772 3378 
Q 2772 3750 2511 3984 
Q 2250 4219 1831 4219 
Q 1534 4219 1204 4116 
Q 875 4013 500 3803 
L 500 4441 
Q 881 4594 1212 4672 
Q 1544 4750 1819 4750 
Q 2544 4750 2975 4387 
Q 3406 4025 3406 3419 
Q 3406 3131 3298 2873 
Q 3191 2616 2906 2266 
Q 2828 2175 2409 1742 
Q 1991 1309 1228 531 
z
" transform="scale(0.015625)"/>
       </defs>
       <use xlink:href="#DejaVuSans-32"/>
      </g>
     </g>
    </g>
    <g id="xtick_4">
     <g id="line2d_4">
      <g>
       <use xlink:href="#m1266abb946" x="342.628791" y="241.92" style="fill-opacity: 0; stroke: #000000; stroke-width: 1.1"/>
      </g>
     </g>
     <g id="text_4">
      <!-- 3 -->
      <g transform="translate(338.175041 264.557813) scale(0.14 -0.14)">
       <defs>
        <path id="DejaVuSans-33" d="M 2597 2516 
Q 3050 2419 3304 2112 
Q 3559 1806 3559 1356 
Q 3559 666 3084 287 
Q 2609 -91 1734 -91 
Q 1441 -91 1130 -33 
Q 819 25 488 141 
L 488 750 
Q 750 597 1062 519 
Q 1375 441 1716 441 
Q 2309 441 2620 675 
Q 2931 909 2931 1356 
Q 2931 1769 2642 2001 
Q 2353 2234 1838 2234 
L 1294 2234 
L 1294 2753 
L 1863 2753 
Q 2328 2753 2575 2939 
Q 2822 3125 2822 3475 
Q 2822 3834 2567 4026 
Q 2313 4219 1838 4219 
Q 1578 4219 1281 4162 
Q 984 4106 628 3988 
L 628 4550 
Q 988 4650 1302 4700 
Q 1616 4750 1894 4750 
Q 2613 4750 3031 4423 
Q 3450 4097 3450 3541 
Q 3450 3153 3228 2886 
Q 3006 2619 2597 2516 
z
" transform="scale(0.015625)"/>
       </defs>
       <use xlink:href="#DejaVuSans-33"/>
      </g>
     </g>
    </g>
    <g id="xtick_5">
     <g id="line2d_5">
      <g>
       <use xlink:href="#m1266abb946" x="429.651187" y="241.92" style="fill-opacity: 0; stroke: #000000; stroke-width: 1.1"/>
      </g>
     </g>
     <g id="text_5">
      <!-- 4 -->
      <g transform="translate(425.197437 264.557813) scale(0.14 -0.14)">
       <defs>
        <path id="DejaVuSans-34" d="M 2419 4116 
L 825 1625 
L 2419 1625 
L 2419 4116 
z
M 2253 4666 
L 3047 4666 
L 3047 1625 
L 3713 1625 
L 3713 1100 
L 3047 1100 
L 3047 0 
L 2419 0 
L 2419 1100 
L 313 1100 
L 313 1709 
L 2253 4666 
z
" transform="scale(0.015625)"/>
       </defs>
       <use xlink:href="#DejaVuSans-34"/>
      </g>
     </g>
    </g>
    <g id="xtick_6">
     <g id="line2d_6">
      <defs>
       <path id="m0840fc7a3e" d="M 0 0 
L 0 3.5 
" style="stroke: #000000; stroke-width: 1.1"/>
      </defs>
      <g>
       <use xlink:href="#m0840fc7a3e" x="98.966079" y="241.92" style="fill-opacity: 0; stroke: #000000; stroke-width: 1.1"/>
      </g>
     </g>
    </g>
    <g id="xtick_7">
     <g id="line2d_7">
      <g>
       <use xlink:href="#m0840fc7a3e" x="116.370559" y="241.92" style="fill-opacity: 0; stroke: #000000; stroke-width: 1.1"/>
      </g>
     </g>
    </g>
    <g id="xtick_8">
     <g id="line2d_8">
      <g>
       <use xlink:href="#m0840fc7a3e" x="133.775038" y="241.92" style="fill-opacity: 0; stroke: #000000; stroke-width: 1.1"/>
      </g>
     </g>
    </g>
    <g id="xtick_9">
     <g id="line2d_9">
      <g>
       <use xlink:href="#m0840fc7a3e" x="151.179517" y="241.92" style="fill-opacity: 0; stroke: #000000; stroke-width: 1.1"/>
      </g>
     </g>
    </g>
    <g id="xtick_10">
     <g id="line2d_10">
      <g>
       <use xlink:href="#m0840fc7a3e" x="185.988476" y="241.92" style="fill-opacity: 0; stroke: #000000; stroke-width: 1.1"/>
      </g>
     </g>
    </g>
    <g id="xtick_11">
     <g id="line2d_11">
      <g>
       <use xlink:href="#m0840fc7a3e" x="203.392956" y="241.92" style="fill-opacity: 0; stroke: #000000; stroke-width: 1.1"/>
      </g>
     </g>
    </g>
    <g id="xtick_12">
     <g id="line2d_12">
      <g>
       <use xlink:href="#m0840fc7a3e" x="220.797435" y="241.92" style="fill-opacity: 0; stroke: #000000; stroke-width: 1.1"/>
      </g>
     </g>
    </g>
    <g id="xtick_13">
     <g id="line2d_13">
      <g>
       <use xlink:href="#m0840fc7a3e" x="238.201914" y="241.92" style="fill-opacity: 0; stroke: #000000; stroke-width: 1.1"/>
      </g>
     </g>
    </g>
    <g id="xtick_14">
     <g id="line2d_14">
      <g>
       <use xlink:href="#m0840fc7a3e" x="273.010873" y="241.92" style="fill-opacity: 0; stroke: #000000; stroke-width: 1.1"/>
      </g>
     </g>
    </g>
    <g id="xtick_15">
     <g id="line2d_15">
      <g>
       <use xlink:href="#m0840fc7a3e" x="290.415352" y="241.92" style="fill-opacity: 0; stroke: #000000; stroke-width: 1.1"/>
      </g>
     </g>
    </g>
    <g id="xtick_16">
     <g id="line2d_16">
      <g>
       <use xlink:href="#m0840fc7a3e" x="307.819832" y="241.92" style="fill-opacity: 0; stroke: #000000; stroke-width: 1.1"/>
      </g>
     </g>
    </g>
    <g id="xtick_17">
     <g id="line2d_17">
      <g>
       <use xlink:href="#m0840fc7a3e" x="325.224311" y="241.92" style="fill-opacity: 0; stroke: #000000; stroke-width: 1.1"/>
      </g>
     </g>
    </g>
    <g id="xtick_18">
     <g id="line2d_18">
      <g>
       <use xlink:href="#m0840fc7a3e" x="360.03327" y="241.92" style="fill-opacity: 0; stroke: #000000; stroke-width: 1.1"/>
      </g>
     </g>
    </g>
    <g id="xtick_19">
     <g id="line2d_19">
      <g>
       <use xlink:href="#m0840fc7a3e" x="377.437749" y="241.92" style="fill-opacity: 0; stroke: #000000; stroke-width: 1.1"/>
      </g>
     </g>
    </g>
    <g id="xtick_20">
     <g id="line2d_20">
      <g>
       <use xlink:href="#m0840fc7a3e" x="394.842229" y="241.92" style="fill-opacity: 0; stroke: #000000; stroke-width: 1.1"/>
      </g>
     </g>
    </g>
    <g id="xtick_21">
     <g id="line2d_21">
      <g>
       <use xlink:href="#m0840fc7a3e" x="412.246708" y="241.92" style="fill-opacity: 0; stroke: #000000; stroke-width: 1.1"/>
      </g>
     </g>
    </g>
    <g id="text_6">
     <!-- programming noise (standard deviation) -->
     <g transform="translate(116.878731 288.107188) scale(0.14 -0.14)">
      <defs>
       <path id="DejaVuSans-70" d="M 1159 525 
L 1159 -1331 
L 581 -1331 
L 581 3500 
L 1159 3500 
L 1159 2969 
Q 1341 3281 1617 3432 
Q 1894 3584 2278 3584 
Q 2916 3584 3314 3078 
Q 3713 2572 3713 1747 
Q 3713 922 3314 415 
Q 2916 -91 2278 -91 
Q 1894 -91 1617 61 
Q 1341 213 1159 525 
z
M 3116 1747 
Q 3116 2381 2855 2742 
Q 2594 3103 2138 3103 
Q 1681 3103 1420 2742 
Q 1159 2381 1159 1747 
Q 1159 1113 1420 752 
Q 1681 391 2138 391 
Q 2594 391 2855 752 
Q 3116 1113 3116 1747 
z
" transform="scale(0.015625)"/>
       <path id="DejaVuSans-72" d="M 2631 2963 
Q 2534 3019 2420 3045 
Q 2306 3072 2169 3072 
Q 1681 3072 1420 2755 
Q 1159 2438 1159 1844 
L 1159 0 
L 581 0 
L 581 3500 
L 1159 3500 
L 1159 2956 
Q 1341 3275 1631 3429 
Q 1922 3584 2338 3584 
Q 2397 3584 2469 3576 
Q 2541 3569 2628 3553 
L 2631 2963 
z
" transform="scale(0.015625)"/>
       <path id="DejaVuSans-6f" d="M 1959 3097 
Q 1497 3097 1228 2736 
Q 959 2375 959 1747 
Q 959 1119 1226 758 
Q 1494 397 1959 397 
Q 2419 397 2687 759 
Q 2956 1122 2956 1747 
Q 2956 2369 2687 2733 
Q 2419 3097 1959 3097 
z
M 1959 3584 
Q 2709 3584 3137 3096 
Q 3566 2609 3566 1747 
Q 3566 888 3137 398 
Q 2709 -91 1959 -91 
Q 1206 -91 779 398 
Q 353 888 353 1747 
Q 353 2609 779 3096 
Q 1206 3584 1959 3584 
z
" transform="scale(0.015625)"/>
       <path id="DejaVuSans-67" d="M 2906 1791 
Q 2906 2416 2648 2759 
Q 2391 3103 1925 3103 
Q 1463 3103 1205 2759 
Q 947 2416 947 1791 
Q 947 1169 1205 825 
Q 1463 481 1925 481 
Q 2391 481 2648 825 
Q 2906 1169 2906 1791 
z
M 3481 434 
Q 3481 -459 3084 -895 
Q 2688 -1331 1869 -1331 
Q 1566 -1331 1297 -1286 
Q 1028 -1241 775 -1147 
L 775 -588 
Q 1028 -725 1275 -790 
Q 1522 -856 1778 -856 
Q 2344 -856 2625 -561 
Q 2906 -266 2906 331 
L 2906 616 
Q 2728 306 2450 153 
Q 2172 0 1784 0 
Q 1141 0 747 490 
Q 353 981 353 1791 
Q 353 2603 747 3093 
Q 1141 3584 1784 3584 
Q 2172 3584 2450 3431 
Q 2728 3278 2906 2969 
L 2906 3500 
L 3481 3500 
L 3481 434 
z
" transform="scale(0.015625)"/>
       <path id="DejaVuSans-61" d="M 2194 1759 
Q 1497 1759 1228 1600 
Q 959 1441 959 1056 
Q 959 750 1161 570 
Q 1363 391 1709 391 
Q 2188 391 2477 730 
Q 2766 1069 2766 1631 
L 2766 1759 
L 2194 1759 
z
M 3341 1997 
L 3341 0 
L 2766 0 
L 2766 531 
Q 2569 213 2275 61 
Q 1981 -91 1556 -91 
Q 1019 -91 701 211 
Q 384 513 384 1019 
Q 384 1609 779 1909 
Q 1175 2209 1959 2209 
L 2766 2209 
L 2766 2266 
Q 2766 2663 2505 2880 
Q 2244 3097 1772 3097 
Q 1472 3097 1187 3025 
Q 903 2953 641 2809 
L 641 3341 
Q 956 3463 1253 3523 
Q 1550 3584 1831 3584 
Q 2591 3584 2966 3190 
Q 3341 2797 3341 1997 
z
" transform="scale(0.015625)"/>
       <path id="DejaVuSans-6d" d="M 3328 2828 
Q 3544 3216 3844 3400 
Q 4144 3584 4550 3584 
Q 5097 3584 5394 3201 
Q 5691 2819 5691 2113 
L 5691 0 
L 5113 0 
L 5113 2094 
Q 5113 2597 4934 2840 
Q 4756 3084 4391 3084 
Q 3944 3084 3684 2787 
Q 3425 2491 3425 1978 
L 3425 0 
L 2847 0 
L 2847 2094 
Q 2847 2600 2669 2842 
Q 2491 3084 2119 3084 
Q 1678 3084 1418 2786 
Q 1159 2488 1159 1978 
L 1159 0 
L 581 0 
L 581 3500 
L 1159 3500 
L 1159 2956 
Q 1356 3278 1631 3431 
Q 1906 3584 2284 3584 
Q 2666 3584 2933 3390 
Q 3200 3197 3328 2828 
z
" transform="scale(0.015625)"/>
       <path id="DejaVuSans-69" d="M 603 3500 
L 1178 3500 
L 1178 0 
L 603 0 
L 603 3500 
z
M 603 4863 
L 1178 4863 
L 1178 4134 
L 603 4134 
L 603 4863 
z
" transform="scale(0.015625)"/>
       <path id="DejaVuSans-6e" d="M 3513 2113 
L 3513 0 
L 2938 0 
L 2938 2094 
Q 2938 2591 2744 2837 
Q 2550 3084 2163 3084 
Q 1697 3084 1428 2787 
Q 1159 2491 1159 1978 
L 1159 0 
L 581 0 
L 581 3500 
L 1159 3500 
L 1159 2956 
Q 1366 3272 1645 3428 
Q 1925 3584 2291 3584 
Q 2894 3584 3203 3211 
Q 3513 2838 3513 2113 
z
" transform="scale(0.015625)"/>
       <path id="DejaVuSans-20" transform="scale(0.015625)"/>
       <path id="DejaVuSans-73" d="M 2834 3397 
L 2834 2853 
Q 2591 2978 2328 3040 
Q 2066 3103 1784 3103 
Q 1356 3103 1142 2972 
Q 928 2841 928 2578 
Q 928 2378 1081 2264 
Q 1234 2150 1697 2047 
L 1894 2003 
Q 2506 1872 2764 1633 
Q 3022 1394 3022 966 
Q 3022 478 2636 193 
Q 2250 -91 1575 -91 
Q 1294 -91 989 -36 
Q 684 19 347 128 
L 347 722 
Q 666 556 975 473 
Q 1284 391 1588 391 
Q 1994 391 2212 530 
Q 2431 669 2431 922 
Q 2431 1156 2273 1281 
Q 2116 1406 1581 1522 
L 1381 1569 
Q 847 1681 609 1914 
Q 372 2147 372 2553 
Q 372 3047 722 3315 
Q 1072 3584 1716 3584 
Q 2034 3584 2315 3537 
Q 2597 3491 2834 3397 
z
" transform="scale(0.015625)"/>
       <path id="DejaVuSans-65" d="M 3597 1894 
L 3597 1613 
L 953 1613 
Q 991 1019 1311 708 
Q 1631 397 2203 397 
Q 2534 397 2845 478 
Q 3156 559 3463 722 
L 3463 178 
Q 3153 47 2828 -22 
Q 2503 -91 2169 -91 
Q 1331 -91 842 396 
Q 353 884 353 1716 
Q 353 2575 817 3079 
Q 1281 3584 2069 3584 
Q 2775 3584 3186 3129 
Q 3597 2675 3597 1894 
z
M 3022 2063 
Q 3016 2534 2758 2815 
Q 2500 3097 2075 3097 
Q 1594 3097 1305 2825 
Q 1016 2553 972 2059 
L 3022 2063 
z
" transform="scale(0.015625)"/>
       <path id="DejaVuSans-28" d="M 1984 4856 
Q 1566 4138 1362 3434 
Q 1159 2731 1159 2009 
Q 1159 1288 1364 580 
Q 1569 -128 1984 -844 
L 1484 -844 
Q 1016 -109 783 600 
Q 550 1309 550 2009 
Q 550 2706 781 3412 
Q 1013 4119 1484 4856 
L 1984 4856 
z
" transform="scale(0.015625)"/>
       <path id="DejaVuSans-74" d="M 1172 4494 
L 1172 3500 
L 2356 3500 
L 2356 3053 
L 1172 3053 
L 1172 1153 
Q 1172 725 1289 603 
Q 1406 481 1766 481 
L 2356 481 
L 2356 0 
L 1766 0 
Q 1100 0 847 248 
Q 594 497 594 1153 
L 594 3053 
L 172 3053 
L 172 3500 
L 594 3500 
L 594 4494 
L 1172 4494 
z
" transform="scale(0.015625)"/>
       <path id="DejaVuSans-64" d="M 2906 2969 
L 2906 4863 
L 3481 4863 
L 3481 0 
L 2906 0 
L 2906 525 
Q 2725 213 2448 61 
Q 2172 -91 1784 -91 
Q 1150 -91 751 415 
Q 353 922 353 1747 
Q 353 2572 751 3078 
Q 1150 3584 1784 3584 
Q 2172 3584 2448 3432 
Q 2725 3281 2906 2969 
z
M 947 1747 
Q 947 1113 1208 752 
Q 1469 391 1925 391 
Q 2381 391 2643 752 
Q 2906 1113 2906 1747 
Q 2906 2381 2643 2742 
Q 2381 3103 1925 3103 
Q 1469 3103 1208 2742 
Q 947 2381 947 1747 
z
" transform="scale(0.015625)"/>
       <path id="DejaVuSans-76" d="M 191 3500 
L 800 3500 
L 1894 563 
L 2988 3500 
L 3597 3500 
L 2284 0 
L 1503 0 
L 191 3500 
z
" transform="scale(0.015625)"/>
       <path id="DejaVuSans-29" d="M 513 4856 
L 1013 4856 
Q 1481 4119 1714 3412 
Q 1947 2706 1947 2009 
Q 1947 1309 1714 600 
Q 1481 -109 1013 -844 
L 513 -844 
Q 928 -128 1133 580 
Q 1338 1288 1338 2009 
Q 1338 2731 1133 3434 
Q 928 4138 513 4856 
z
" transform="scale(0.015625)"/>
      </defs>
      <use xlink:href="#DejaVuSans-70"/>
      <use xlink:href="#DejaVuSans-72" x="63.476562"/>
      <use xlink:href="#DejaVuSans-6f" x="102.339844"/>
      <use xlink:href="#DejaVuSans-67" x="163.521484"/>
      <use xlink:href="#DejaVuSans-72" x="226.998047"/>
      <use xlink:href="#DejaVuSans-61" x="268.111328"/>
      <use xlink:href="#DejaVuSans-6d" x="329.390625"/>
      <use xlink:href="#DejaVuSans-6d" x="426.802734"/>
      <use xlink:href="#DejaVuSans-69" x="524.214844"/>
      <use xlink:href="#DejaVuSans-6e" x="551.998047"/>
      <use xlink:href="#DejaVuSans-67" x="615.376953"/>
      <use xlink:href="#DejaVuSans-20" x="678.853516"/>
      <use xlink:href="#DejaVuSans-6e" x="710.640625"/>
      <use xlink:href="#DejaVuSans-6f" x="774.019531"/>
      <use xlink:href="#DejaVuSans-69" x="835.201172"/>
      <use xlink:href="#DejaVuSans-73" x="862.984375"/>
      <use xlink:href="#DejaVuSans-65" x="915.083984"/>
      <use xlink:href="#DejaVuSans-20" x="976.607422"/>
      <use xlink:href="#DejaVuSans-28" x="1008.394531"/>
      <use xlink:href="#DejaVuSans-73" x="1047.408203"/>
      <use xlink:href="#DejaVuSans-74" x="1099.507812"/>
      <use xlink:href="#DejaVuSans-61" x="1138.716797"/>
      <use xlink:href="#DejaVuSans-6e" x="1199.996094"/>
      <use xlink:href="#DejaVuSans-64" x="1263.375"/>
      <use xlink:href="#DejaVuSans-61" x="1326.851562"/>
      <use xlink:href="#DejaVuSans-72" x="1388.130859"/>
      <use xlink:href="#DejaVuSans-64" x="1427.494141"/>
      <use xlink:href="#DejaVuSans-20" x="1490.970703"/>
      <use xlink:href="#DejaVuSans-64" x="1522.757812"/>
      <use xlink:href="#DejaVuSans-65" x="1586.234375"/>
      <use xlink:href="#DejaVuSans-76" x="1647.757812"/>
      <use xlink:href="#DejaVuSans-69" x="1706.9375"/>
      <use xlink:href="#DejaVuSans-61" x="1734.720703"/>
      <use xlink:href="#DejaVuSans-74" x="1796"/>
      <use xlink:href="#DejaVuSans-69" x="1835.208984"/>
      <use xlink:href="#DejaVuSans-6f" x="1862.992188"/>
      <use xlink:href="#DejaVuSans-6e" x="1924.173828"/>
      <use xlink:href="#DejaVuSans-29" x="1987.552734"/>
     </g>
    </g>
   </g>
   <g id="matplotlib.axis_2">
    <g id="ytick_1">
     <g id="line2d_22">
      <defs>
       <path id="m6074c2ec5b" d="M 0 0 
L -7 0 
" style="stroke: #000000; stroke-width: 1.1"/>
      </defs>
      <g>
       <use xlink:href="#m6074c2ec5b" x="81.5616" y="241.92" style="fill-opacity: 0; stroke: #000000; stroke-width: 1.1"/>
      </g>
     </g>
     <g id="text_7">
      <!-- 0.0 -->
      <g transform="translate(47.297225 247.238906) scale(0.14 -0.14)">
       <defs>
        <path id="DejaVuSans-2e" d="M 684 794 
L 1344 794 
L 1344 0 
L 684 0 
L 684 794 
z
" transform="scale(0.015625)"/>
       </defs>
       <use xlink:href="#DejaVuSans-30"/>
       <use xlink:href="#DejaVuSans-2e" x="63.623047"/>
       <use xlink:href="#DejaVuSans-30" x="95.410156"/>
      </g>
     </g>
    </g>
    <g id="ytick_2">
     <g id="line2d_23">
      <g>
       <use xlink:href="#m6074c2ec5b" x="81.5616" y="198.144" style="fill-opacity: 0; stroke: #000000; stroke-width: 1.1"/>
      </g>
     </g>
     <g id="text_8">
      <!-- 0.2 -->
      <g transform="translate(47.297225 203.462906) scale(0.14 -0.14)">
       <use xlink:href="#DejaVuSans-30"/>
       <use xlink:href="#DejaVuSans-2e" x="63.623047"/>
       <use xlink:href="#DejaVuSans-32" x="95.410156"/>
      </g>
     </g>
    </g>
    <g id="ytick_3">
     <g id="line2d_24">
      <g>
       <use xlink:href="#m6074c2ec5b" x="81.5616" y="154.368" style="fill-opacity: 0; stroke: #000000; stroke-width: 1.1"/>
      </g>
     </g>
     <g id="text_9">
      <!-- 0.4 -->
      <g transform="translate(47.297225 159.686906) scale(0.14 -0.14)">
       <use xlink:href="#DejaVuSans-30"/>
       <use xlink:href="#DejaVuSans-2e" x="63.623047"/>
       <use xlink:href="#DejaVuSans-34" x="95.410156"/>
      </g>
     </g>
    </g>
    <g id="ytick_4">
     <g id="line2d_25">
      <g>
       <use xlink:href="#m6074c2ec5b" x="81.5616" y="110.592" style="fill-opacity: 0; stroke: #000000; stroke-width: 1.1"/>
      </g>
     </g>
     <g id="text_10">
      <!-- 0.6 -->
      <g transform="translate(47.297225 115.910906) scale(0.14 -0.14)">
       <defs>
        <path id="DejaVuSans-36" d="M 2113 2584 
Q 1688 2584 1439 2293 
Q 1191 2003 1191 1497 
Q 1191 994 1439 701 
Q 1688 409 2113 409 
Q 2538 409 2786 701 
Q 3034 994 3034 1497 
Q 3034 2003 2786 2293 
Q 2538 2584 2113 2584 
z
M 3366 4563 
L 3366 3988 
Q 3128 4100 2886 4159 
Q 2644 4219 2406 4219 
Q 1781 4219 1451 3797 
Q 1122 3375 1075 2522 
Q 1259 2794 1537 2939 
Q 1816 3084 2150 3084 
Q 2853 3084 3261 2657 
Q 3669 2231 3669 1497 
Q 3669 778 3244 343 
Q 2819 -91 2113 -91 
Q 1303 -91 875 529 
Q 447 1150 447 2328 
Q 447 3434 972 4092 
Q 1497 4750 2381 4750 
Q 2619 4750 2861 4703 
Q 3103 4656 3366 4563 
z
" transform="scale(0.015625)"/>
       </defs>
       <use xlink:href="#DejaVuSans-30"/>
       <use xlink:href="#DejaVuSans-2e" x="63.623047"/>
       <use xlink:href="#DejaVuSans-36" x="95.410156"/>
      </g>
     </g>
    </g>
    <g id="ytick_5">
     <g id="line2d_26">
      <g>
       <use xlink:href="#m6074c2ec5b" x="81.5616" y="66.816" style="fill-opacity: 0; stroke: #000000; stroke-width: 1.1"/>
      </g>
     </g>
     <g id="text_11">
      <!-- 0.8 -->
      <g transform="translate(47.297225 72.134906) scale(0.14 -0.14)">
       <defs>
        <path id="DejaVuSans-38" d="M 2034 2216 
Q 1584 2216 1326 1975 
Q 1069 1734 1069 1313 
Q 1069 891 1326 650 
Q 1584 409 2034 409 
Q 2484 409 2743 651 
Q 3003 894 3003 1313 
Q 3003 1734 2745 1975 
Q 2488 2216 2034 2216 
z
M 1403 2484 
Q 997 2584 770 2862 
Q 544 3141 544 3541 
Q 544 4100 942 4425 
Q 1341 4750 2034 4750 
Q 2731 4750 3128 4425 
Q 3525 4100 3525 3541 
Q 3525 3141 3298 2862 
Q 3072 2584 2669 2484 
Q 3125 2378 3379 2068 
Q 3634 1759 3634 1313 
Q 3634 634 3220 271 
Q 2806 -91 2034 -91 
Q 1263 -91 848 271 
Q 434 634 434 1313 
Q 434 1759 690 2068 
Q 947 2378 1403 2484 
z
M 1172 3481 
Q 1172 3119 1398 2916 
Q 1625 2713 2034 2713 
Q 2441 2713 2670 2916 
Q 2900 3119 2900 3481 
Q 2900 3844 2670 4047 
Q 2441 4250 2034 4250 
Q 1625 4250 1398 4047 
Q 1172 3844 1172 3481 
z
" transform="scale(0.015625)"/>
       </defs>
       <use xlink:href="#DejaVuSans-30"/>
       <use xlink:href="#DejaVuSans-2e" x="63.623047"/>
       <use xlink:href="#DejaVuSans-38" x="95.410156"/>
      </g>
     </g>
    </g>
    <g id="ytick_6">
     <g id="line2d_27">
      <g>
       <use xlink:href="#m6074c2ec5b" x="81.5616" y="23.04" style="fill-opacity: 0; stroke: #000000; stroke-width: 1.1"/>
      </g>
     </g>
     <g id="text_12">
      <!-- 1.0 -->
      <g transform="translate(47.297225 28.358906) scale(0.14 -0.14)">
       <use xlink:href="#DejaVuSans-31"/>
       <use xlink:href="#DejaVuSans-2e" x="63.623047"/>
       <use xlink:href="#DejaVuSans-30" x="95.410156"/>
      </g>
     </g>
    </g>
    <g id="ytick_7">
     <g id="line2d_28">
      <defs>
       <path id="m796a689183" d="M 0 0 
L -3.5 0 
" style="stroke: #000000; stroke-width: 1.1"/>
      </defs>
      <g>
       <use xlink:href="#m796a689183" x="81.5616" y="230.976" style="fill-opacity: 0; stroke: #000000; stroke-width: 1.1"/>
      </g>
     </g>
    </g>
    <g id="ytick_8">
     <g id="line2d_29">
      <g>
       <use xlink:href="#m796a689183" x="81.5616" y="220.032" style="fill-opacity: 0; stroke: #000000; stroke-width: 1.1"/>
      </g>
     </g>
    </g>
    <g id="ytick_9">
     <g id="line2d_30">
      <g>
       <use xlink:href="#m796a689183" x="81.5616" y="209.088" style="fill-opacity: 0; stroke: #000000; stroke-width: 1.1"/>
      </g>
     </g>
    </g>
    <g id="ytick_10">
     <g id="line2d_31">
      <g>
       <use xlink:href="#m796a689183" x="81.5616" y="187.2" style="fill-opacity: 0; stroke: #000000; stroke-width: 1.1"/>
      </g>
     </g>
    </g>
    <g id="ytick_11">
     <g id="line2d_32">
      <g>
       <use xlink:href="#m796a689183" x="81.5616" y="176.256" style="fill-opacity: 0; stroke: #000000; stroke-width: 1.1"/>
      </g>
     </g>
    </g>
    <g id="ytick_12">
     <g id="line2d_33">
      <g>
       <use xlink:href="#m796a689183" x="81.5616" y="165.312" style="fill-opacity: 0; stroke: #000000; stroke-width: 1.1"/>
      </g>
     </g>
    </g>
    <g id="ytick_13">
     <g id="line2d_34">
      <g>
       <use xlink:href="#m796a689183" x="81.5616" y="143.424" style="fill-opacity: 0; stroke: #000000; stroke-width: 1.1"/>
      </g>
     </g>
    </g>
    <g id="ytick_14">
     <g id="line2d_35">
      <g>
       <use xlink:href="#m796a689183" x="81.5616" y="132.48" style="fill-opacity: 0; stroke: #000000; stroke-width: 1.1"/>
      </g>
     </g>
    </g>
    <g id="ytick_15">
     <g id="line2d_36">
      <g>
       <use xlink:href="#m796a689183" x="81.5616" y="121.536" style="fill-opacity: 0; stroke: #000000; stroke-width: 1.1"/>
      </g>
     </g>
    </g>
    <g id="ytick_16">
     <g id="line2d_37">
      <g>
       <use xlink:href="#m796a689183" x="81.5616" y="99.648" style="fill-opacity: 0; stroke: #000000; stroke-width: 1.1"/>
      </g>
     </g>
    </g>
    <g id="ytick_17">
     <g id="line2d_38">
      <g>
       <use xlink:href="#m796a689183" x="81.5616" y="88.704" style="fill-opacity: 0; stroke: #000000; stroke-width: 1.1"/>
      </g>
     </g>
    </g>
    <g id="ytick_18">
     <g id="line2d_39">
      <g>
       <use xlink:href="#m796a689183" x="81.5616" y="77.76" style="fill-opacity: 0; stroke: #000000; stroke-width: 1.1"/>
      </g>
     </g>
    </g>
    <g id="ytick_19">
     <g id="line2d_40">
      <g>
       <use xlink:href="#m796a689183" x="81.5616" y="55.872" style="fill-opacity: 0; stroke: #000000; stroke-width: 1.1"/>
      </g>
     </g>
    </g>
    <g id="ytick_20">
     <g id="line2d_41">
      <g>
       <use xlink:href="#m796a689183" x="81.5616" y="44.928" style="fill-opacity: 0; stroke: #000000; stroke-width: 1.1"/>
      </g>
     </g>
    </g>
    <g id="ytick_21">
     <g id="line2d_42">
      <g>
       <use xlink:href="#m796a689183" x="81.5616" y="33.984" style="fill-opacity: 0; stroke: #000000; stroke-width: 1.1"/>
      </g>
     </g>
    </g>
    <g id="text_13">
     <!-- Accuracy -->
     <g style="fill: #1f77b4" transform="translate(34.385662 158.967375) rotate(-90) scale(0.14 -0.14)">
      <defs>
       <path id="DejaVuSans-41" d="M 2188 4044 
L 1331 1722 
L 3047 1722 
L 2188 4044 
z
M 1831 4666 
L 2547 4666 
L 4325 0 
L 3669 0 
L 3244 1197 
L 1141 1197 
L 716 0 
L 50 0 
L 1831 4666 
z
" transform="scale(0.015625)"/>
       <path id="DejaVuSans-63" d="M 3122 3366 
L 3122 2828 
Q 2878 2963 2633 3030 
Q 2388 3097 2138 3097 
Q 1578 3097 1268 2742 
Q 959 2388 959 1747 
Q 959 1106 1268 751 
Q 1578 397 2138 397 
Q 2388 397 2633 464 
Q 2878 531 3122 666 
L 3122 134 
Q 2881 22 2623 -34 
Q 2366 -91 2075 -91 
Q 1284 -91 818 406 
Q 353 903 353 1747 
Q 353 2603 823 3093 
Q 1294 3584 2113 3584 
Q 2378 3584 2631 3529 
Q 2884 3475 3122 3366 
z
" transform="scale(0.015625)"/>
       <path id="DejaVuSans-75" d="M 544 1381 
L 544 3500 
L 1119 3500 
L 1119 1403 
Q 1119 906 1312 657 
Q 1506 409 1894 409 
Q 2359 409 2629 706 
Q 2900 1003 2900 1516 
L 2900 3500 
L 3475 3500 
L 3475 0 
L 2900 0 
L 2900 538 
Q 2691 219 2414 64 
Q 2138 -91 1772 -91 
Q 1169 -91 856 284 
Q 544 659 544 1381 
z
M 1991 3584 
L 1991 3584 
z
" transform="scale(0.015625)"/>
       <path id="DejaVuSans-79" d="M 2059 -325 
Q 1816 -950 1584 -1140 
Q 1353 -1331 966 -1331 
L 506 -1331 
L 506 -850 
L 844 -850 
Q 1081 -850 1212 -737 
Q 1344 -625 1503 -206 
L 1606 56 
L 191 3500 
L 800 3500 
L 1894 763 
L 2988 3500 
L 3597 3500 
L 2059 -325 
z
" transform="scale(0.015625)"/>
      </defs>
      <use xlink:href="#DejaVuSans-41"/>
      <use xlink:href="#DejaVuSans-63" x="66.658203"/>
      <use xlink:href="#DejaVuSans-63" x="121.638672"/>
      <use xlink:href="#DejaVuSans-75" x="176.619141"/>
      <use xlink:href="#DejaVuSans-72" x="239.998047"/>
      <use xlink:href="#DejaVuSans-61" x="281.111328"/>
      <use xlink:href="#DejaVuSans-63" x="342.390625"/>
      <use xlink:href="#DejaVuSans-79" x="397.371094"/>
     </g>
    </g>
   </g>
   <g id="line2d_43">
    <defs>
     <path id="me7a27c0de2" d="M 0 1.5 
C 0.397805 1.5 0.77937 1.341951 1.06066 1.06066 
C 1.341951 0.77937 1.5 0.397805 1.5 0 
C 1.5 -0.397805 1.341951 -0.77937 1.06066 -1.06066 
C 0.77937 -1.341951 0.397805 -1.5 0 -1.5 
C -0.397805 -1.5 -0.77937 -1.341951 -1.06066 -1.06066 
C -1.341951 -0.77937 -1.5 -0.397805 -1.5 0 
C -1.5 0.397805 -1.341951 0.77937 -1.06066 1.06066 
C -0.77937 1.341951 -0.397805 1.5 0 1.5 
z
" style="stroke: #1f77b4; stroke-width: 0.8"/>
    </defs>
    <g clip-path="url(#p7836b0393d)">
     <use xlink:href="#me7a27c0de2" x="81.5616" y="25.446804" style="fill-opacity: 0; stroke: #1f77b4; stroke-width: 0.8"/>
     <use xlink:href="#me7a27c0de2" x="91.699709" y="25.147596" style="fill-opacity: 0; stroke: #1f77b4; stroke-width: 0.8"/>
     <use xlink:href="#me7a27c0de2" x="101.794307" y="24.827593" style="fill-opacity: 0; stroke: #1f77b4; stroke-width: 0.8"/>
     <use xlink:href="#me7a27c0de2" x="111.932417" y="24.915364" style="fill-opacity: 0; stroke: #1f77b4; stroke-width: 0.8"/>
     <use xlink:href="#me7a27c0de2" x="122.070526" y="24.971397" style="fill-opacity: 0; stroke: #1f77b4; stroke-width: 0.8"/>
     <use xlink:href="#me7a27c0de2" x="132.208635" y="24.076616" style="fill-opacity: 0; stroke: #1f77b4; stroke-width: 0.8"/>
     <use xlink:href="#me7a27c0de2" x="142.303233" y="23.980527" style="fill-opacity: 0; stroke: #1f77b4; stroke-width: 0.8"/>
     <use xlink:href="#me7a27c0de2" x="152.441342" y="24.793667" style="fill-opacity: 0; stroke: #1f77b4; stroke-width: 0.8"/>
     <use xlink:href="#me7a27c0de2" x="162.579451" y="24.528822" style="fill-opacity: 0; stroke: #1f77b4; stroke-width: 0.8"/>
     <use xlink:href="#me7a27c0de2" x="182.812159" y="23.343368" style="fill-opacity: 0; stroke: #1f77b4; stroke-width: 0.8"/>
     <use xlink:href="#me7a27c0de2" x="203.088377" y="24.258067" style="fill-opacity: 0; stroke: #1f77b4; stroke-width: 0.8"/>
     <use xlink:href="#me7a27c0de2" x="223.321084" y="24.771341" style="fill-opacity: 0; stroke: #1f77b4; stroke-width: 0.8"/>
     <use xlink:href="#me7a27c0de2" x="233.459194" y="25.424698" style="fill-opacity: 0; stroke: #1f77b4; stroke-width: 0.8"/>
     <use xlink:href="#me7a27c0de2" x="243.597303" y="28.126771" style="fill-opacity: 0; stroke: #1f77b4; stroke-width: 0.8"/>
     <use xlink:href="#me7a27c0de2" x="253.691901" y="30.75946" style="fill-opacity: 0; stroke: #1f77b4; stroke-width: 0.8"/>
     <use xlink:href="#me7a27c0de2" x="263.83001" y="35.924371" style="fill-opacity: 0; stroke: #1f77b4; stroke-width: 0.8"/>
     <use xlink:href="#me7a27c0de2" x="273.968119" y="41.868276" style="fill-opacity: 0; stroke: #1f77b4; stroke-width: 0.8"/>
     <use xlink:href="#me7a27c0de2" x="284.106229" y="58.063208" style="fill-opacity: 0; stroke: #1f77b4; stroke-width: 0.8"/>
     <use xlink:href="#me7a27c0de2" x="294.200827" y="84.338438" style="fill-opacity: 0; stroke: #1f77b4; stroke-width: 0.8"/>
     <use xlink:href="#me7a27c0de2" x="304.295425" y="119.077321" style="fill-opacity: 0; stroke: #1f77b4; stroke-width: 0.8"/>
     <use xlink:href="#me7a27c0de2" x="314.433534" y="165.826368" style="fill-opacity: 0; stroke: #1f77b4; stroke-width: 0.8"/>
     <use xlink:href="#me7a27c0de2" x="324.571643" y="214.373076" style="fill-opacity: 0; stroke: #1f77b4; stroke-width: 0.8"/>
     <use xlink:href="#me7a27c0de2" x="334.666241" y="231.564131" style="fill-opacity: 0; stroke: #1f77b4; stroke-width: 0.8"/>
     <use xlink:href="#me7a27c0de2" x="344.80435" y="239.860777" style="fill-opacity: 0; stroke: #1f77b4; stroke-width: 0.8"/>
     <use xlink:href="#me7a27c0de2" x="354.94246" y="240.325678" style="fill-opacity: 0; stroke: #1f77b4; stroke-width: 0.8"/>
     <use xlink:href="#me7a27c0de2" x="365.037058" y="240.753807" style="fill-opacity: 0; stroke: #1f77b4; stroke-width: 0.8"/>
     <use xlink:href="#me7a27c0de2" x="375.175167" y="240.596214" style="fill-opacity: 0; stroke: #1f77b4; stroke-width: 0.8"/>
     <use xlink:href="#me7a27c0de2" x="385.313276" y="240.835668" style="fill-opacity: 0; stroke: #1f77b4; stroke-width: 0.8"/>
     <use xlink:href="#me7a27c0de2" x="395.451385" y="240.963276" style="fill-opacity: 0; stroke: #1f77b4; stroke-width: 0.8"/>
     <use xlink:href="#me7a27c0de2" x="405.545983" y="240.791236" style="fill-opacity: 0; stroke: #1f77b4; stroke-width: 0.8"/>
     <use xlink:href="#me7a27c0de2" x="415.684093" y="240.676105" style="fill-opacity: 0; stroke: #1f77b4; stroke-width: 0.8"/>
     <use xlink:href="#me7a27c0de2" x="425.822202" y="241.160924" style="fill-opacity: 0; stroke: #1f77b4; stroke-width: 0.8"/>
     <use xlink:href="#me7a27c0de2" x="435.9168" y="241.248476" style="fill-opacity: 0; stroke: #1f77b4; stroke-width: 0.8"/>
    </g>
   </g>
   <g id="line2d_44">
    <path d="M 81.5616 25.446804 
L 85.140945 25.341166 
L 88.720291 25.235528 
L 92.299636 25.128578 
L 95.878982 25.015111 
L 99.458327 24.901644 
L 103.037673 24.838357 
L 106.617018 24.869346 
L 110.196364 24.900334 
L 113.775709 24.925552 
L 117.355055 24.945335 
L 120.9344 24.965118 
L 124.513745 24.75576 
L 128.093091 24.43985 
L 131.672436 24.12394 
L 135.251782 24.047649 
L 138.831127 24.013578 
L 142.410473 23.989129 
L 145.989818 24.276214 
L 149.569164 24.5633 
L 153.148509 24.775193 
L 156.727855 24.681687 
L 160.3072 24.588181 
L 163.886545 24.452238 
L 167.465891 24.242521 
L 171.045236 24.032803 
L 174.624582 23.823086 
L 178.203927 23.613368 
L 181.783273 23.403651 
L 185.362618 23.458424 
L 188.941964 23.619895 
L 192.521309 23.781366 
L 196.100655 23.942837 
L 199.68 24.104309 
L 203.259345 24.262404 
L 206.838691 24.353207 
L 210.418036 24.44401 
L 213.997382 24.534812 
L 217.576727 24.625615 
L 221.156073 24.716418 
L 224.735418 24.862488 
L 228.314764 25.093162 
L 231.894109 25.323835 
L 235.473455 25.961551 
L 239.0528 26.915541 
L 242.632145 27.869531 
L 246.211491 28.808556 
L 249.790836 29.742055 
L 253.370182 30.675555 
L 256.949527 32.419074 
L 260.528873 34.24259 
L 264.108218 36.087483 
L 267.687564 38.186029 
L 271.266909 40.284575 
L 274.846255 43.271037 
L 278.4256 48.988795 
L 282.004945 54.706552 
L 285.584291 61.910456 
L 289.163636 71.227135 
L 292.742982 80.543814 
L 296.322327 91.63923 
L 299.901673 103.956953 
L 303.481018 116.274676 
L 307.060364 131.827061 
L 310.639709 148.332209 
L 314.219055 164.837356 
L 317.7984 181.939153 
L 321.377745 199.07898 
L 324.957091 215.029492 
L 328.536436 221.125101 
L 332.115782 227.22071 
L 335.695127 232.406132 
L 339.274473 235.335333 
L 342.853818 238.264535 
L 346.433164 239.935469 
L 350.012509 240.099606 
L 353.591855 240.263744 
L 357.1712 240.420203 
L 360.750545 240.572009 
L 364.329891 240.723815 
L 367.909236 240.70916 
L 371.488582 240.653521 
L 375.067927 240.597881 
L 378.647273 240.678222 
L 382.226618 240.762764 
L 385.805964 240.84187 
L 389.385309 240.886923 
L 392.964655 240.931975 
L 396.544 240.944654 
L 400.123345 240.883652 
L 403.702691 240.822651 
L 407.282036 240.771521 
L 410.861382 240.730873 
L 414.440727 240.690225 
L 418.020073 240.787815 
L 421.599418 240.958984 
L 425.178764 241.130154 
L 428.758109 241.186388 
L 432.337455 241.217432 
L 435.9168 241.248476 
" clip-path="url(#p7836b0393d)" style="fill: none; stroke: #1f77b4; stroke-width: 2; stroke-linecap: square"/>
   </g>
   <g id="patch_3">
    <path d="M 81.5616 241.92 
L 81.5616 12.096 
" style="fill: none; stroke: #000000; stroke-width: 1.1; stroke-linejoin: miter; stroke-linecap: square"/>
   </g>
   <g id="patch_4">
    <path d="M 435.9168 241.92 
L 435.9168 12.096 
" style="fill: none; stroke: #000000; stroke-width: 1.1; stroke-linejoin: miter; stroke-linecap: square"/>
   </g>
   <g id="patch_5">
    <path d="M 81.5616 241.92 
L 435.9168 241.92 
" style="fill: none; stroke: #000000; stroke-width: 1.1; stroke-linejoin: miter; stroke-linecap: square"/>
   </g>
   <g id="patch_6">
    <path d="M 81.5616 12.096 
L 435.9168 12.096 
" style="fill: none; stroke: #000000; stroke-width: 1.1; stroke-linejoin: miter; stroke-linecap: square"/>
   </g>
  </g>
  <g id="axes_2">
   <g id="matplotlib.axis_3">
    <g id="ytick_22">
     <g id="line2d_45">
      <path d="M 81.5616 208.28722 
L 435.9168 208.28722 
" clip-path="url(#p7836b0393d)" style="fill: none; stroke: #b0b0b0; stroke-opacity: 0.6; stroke-width: 0.8; stroke-linecap: square"/>
     </g>
     <g id="line2d_46">
      <g>
       <use xlink:href="#m6074c2ec5b" x="435.9168" y="208.28722" style="fill-opacity: 0; stroke: #000000; stroke-width: 1.1"/>
      </g>
     </g>
     <g id="text_14">
      <!-- 5000 -->
      <g transform="translate(440.9168 213.606126) scale(0.14 -0.14)">
       <defs>
        <path id="DejaVuSans-35" d="M 691 4666 
L 3169 4666 
L 3169 4134 
L 1269 4134 
L 1269 2991 
Q 1406 3038 1543 3061 
Q 1681 3084 1819 3084 
Q 2600 3084 3056 2656 
Q 3513 2228 3513 1497 
Q 3513 744 3044 326 
Q 2575 -91 1722 -91 
Q 1428 -91 1123 -41 
Q 819 9 494 109 
L 494 744 
Q 775 591 1075 516 
Q 1375 441 1709 441 
Q 2250 441 2565 725 
Q 2881 1009 2881 1497 
Q 2881 1984 2565 2268 
Q 2250 2553 1709 2553 
Q 1456 2553 1204 2497 
Q 953 2441 691 2322 
L 691 4666 
z
" transform="scale(0.015625)"/>
       </defs>
       <use xlink:href="#DejaVuSans-35"/>
       <use xlink:href="#DejaVuSans-30" x="63.623047"/>
       <use xlink:href="#DejaVuSans-30" x="127.246094"/>
       <use xlink:href="#DejaVuSans-30" x="190.869141"/>
      </g>
     </g>
    </g>
    <g id="ytick_23">
     <g id="line2d_47">
      <path d="M 81.5616 152.232585 
L 435.9168 152.232585 
" clip-path="url(#p7836b0393d)" style="fill: none; stroke: #b0b0b0; stroke-opacity: 0.6; stroke-width: 0.8; stroke-linecap: square"/>
     </g>
     <g id="line2d_48">
      <g>
       <use xlink:href="#m6074c2ec5b" x="435.9168" y="152.232585" style="fill-opacity: 0; stroke: #000000; stroke-width: 1.1"/>
      </g>
     </g>
     <g id="text_15">
      <!-- 10000 -->
      <g transform="translate(440.9168 157.551492) scale(0.14 -0.14)">
       <use xlink:href="#DejaVuSans-31"/>
       <use xlink:href="#DejaVuSans-30" x="63.623047"/>
       <use xlink:href="#DejaVuSans-30" x="127.246094"/>
       <use xlink:href="#DejaVuSans-30" x="190.869141"/>
       <use xlink:href="#DejaVuSans-30" x="254.492188"/>
      </g>
     </g>
    </g>
    <g id="ytick_24">
     <g id="line2d_49">
      <path d="M 81.5616 96.177951 
L 435.9168 96.177951 
" clip-path="url(#p7836b0393d)" style="fill: none; stroke: #b0b0b0; stroke-opacity: 0.6; stroke-width: 0.8; stroke-linecap: square"/>
     </g>
     <g id="line2d_50">
      <g>
       <use xlink:href="#m6074c2ec5b" x="435.9168" y="96.177951" style="fill-opacity: 0; stroke: #000000; stroke-width: 1.1"/>
      </g>
     </g>
     <g id="text_16">
      <!-- 15000 -->
      <g transform="translate(440.9168 101.496857) scale(0.14 -0.14)">
       <use xlink:href="#DejaVuSans-31"/>
       <use xlink:href="#DejaVuSans-35" x="63.623047"/>
       <use xlink:href="#DejaVuSans-30" x="127.246094"/>
       <use xlink:href="#DejaVuSans-30" x="190.869141"/>
       <use xlink:href="#DejaVuSans-30" x="254.492188"/>
      </g>
     </g>
    </g>
    <g id="ytick_25">
     <g id="line2d_51">
      <path d="M 81.5616 40.123317 
L 435.9168 40.123317 
" clip-path="url(#p7836b0393d)" style="fill: none; stroke: #b0b0b0; stroke-opacity: 0.6; stroke-width: 0.8; stroke-linecap: square"/>
     </g>
     <g id="line2d_52">
      <g>
       <use xlink:href="#m6074c2ec5b" x="435.9168" y="40.123317" style="fill-opacity: 0; stroke: #000000; stroke-width: 1.1"/>
      </g>
     </g>
     <g id="text_17">
      <!-- 20000 -->
      <g transform="translate(440.9168 45.442223) scale(0.14 -0.14)">
       <use xlink:href="#DejaVuSans-32"/>
       <use xlink:href="#DejaVuSans-30" x="63.623047"/>
       <use xlink:href="#DejaVuSans-30" x="127.246094"/>
       <use xlink:href="#DejaVuSans-30" x="190.869141"/>
       <use xlink:href="#DejaVuSans-30" x="254.492188"/>
      </g>
     </g>
    </g>
    <g id="ytick_26">
     <g id="line2d_53">
      <g>
       <use xlink:href="#m796a689183" x="435.9168" y="230.709073" style="fill-opacity: 0; stroke: #000000; stroke-width: 1.1"/>
      </g>
     </g>
    </g>
    <g id="ytick_27">
     <g id="line2d_54">
      <g>
       <use xlink:href="#m796a689183" x="435.9168" y="219.498146" style="fill-opacity: 0; stroke: #000000; stroke-width: 1.1"/>
      </g>
     </g>
    </g>
    <g id="ytick_28">
     <g id="line2d_55">
      <g>
       <use xlink:href="#m796a689183" x="435.9168" y="197.076293" style="fill-opacity: 0; stroke: #000000; stroke-width: 1.1"/>
      </g>
     </g>
    </g>
    <g id="ytick_29">
     <g id="line2d_56">
      <g>
       <use xlink:href="#m796a689183" x="435.9168" y="185.865366" style="fill-opacity: 0; stroke: #000000; stroke-width: 1.1"/>
      </g>
     </g>
    </g>
    <g id="ytick_30">
     <g id="line2d_57">
      <g>
       <use xlink:href="#m796a689183" x="435.9168" y="174.654439" style="fill-opacity: 0; stroke: #000000; stroke-width: 1.1"/>
      </g>
     </g>
    </g>
    <g id="ytick_31">
     <g id="line2d_58">
      <g>
       <use xlink:href="#m796a689183" x="435.9168" y="163.443512" style="fill-opacity: 0; stroke: #000000; stroke-width: 1.1"/>
      </g>
     </g>
    </g>
    <g id="ytick_32">
     <g id="line2d_59">
      <g>
       <use xlink:href="#m796a689183" x="435.9168" y="141.021659" style="fill-opacity: 0; stroke: #000000; stroke-width: 1.1"/>
      </g>
     </g>
    </g>
    <g id="ytick_33">
     <g id="line2d_60">
      <g>
       <use xlink:href="#m796a689183" x="435.9168" y="129.810732" style="fill-opacity: 0; stroke: #000000; stroke-width: 1.1"/>
      </g>
     </g>
    </g>
    <g id="ytick_34">
     <g id="line2d_61">
      <g>
       <use xlink:href="#m796a689183" x="435.9168" y="118.599805" style="fill-opacity: 0; stroke: #000000; stroke-width: 1.1"/>
      </g>
     </g>
    </g>
    <g id="ytick_35">
     <g id="line2d_62">
      <g>
       <use xlink:href="#m796a689183" x="435.9168" y="107.388878" style="fill-opacity: 0; stroke: #000000; stroke-width: 1.1"/>
      </g>
     </g>
    </g>
    <g id="ytick_36">
     <g id="line2d_63">
      <g>
       <use xlink:href="#m796a689183" x="435.9168" y="84.967024" style="fill-opacity: 0; stroke: #000000; stroke-width: 1.1"/>
      </g>
     </g>
    </g>
    <g id="ytick_37">
     <g id="line2d_64">
      <g>
       <use xlink:href="#m796a689183" x="435.9168" y="73.756098" style="fill-opacity: 0; stroke: #000000; stroke-width: 1.1"/>
      </g>
     </g>
    </g>
    <g id="ytick_38">
     <g id="line2d_65">
      <g>
       <use xlink:href="#m796a689183" x="435.9168" y="62.545171" style="fill-opacity: 0; stroke: #000000; stroke-width: 1.1"/>
      </g>
     </g>
    </g>
    <g id="ytick_39">
     <g id="line2d_66">
      <g>
       <use xlink:href="#m796a689183" x="435.9168" y="51.334244" style="fill-opacity: 0; stroke: #000000; stroke-width: 1.1"/>
      </g>
     </g>
    </g>
    <g id="ytick_40">
     <g id="line2d_67">
      <g>
       <use xlink:href="#m796a689183" x="435.9168" y="28.91239" style="fill-opacity: 0; stroke: #000000; stroke-width: 1.1"/>
      </g>
     </g>
    </g>
    <g id="ytick_41">
     <g id="line2d_68">
      <g>
       <use xlink:href="#m796a689183" x="435.9168" y="17.701463" style="fill-opacity: 0; stroke: #000000; stroke-width: 1.1"/>
      </g>
     </g>
    </g>
    <g id="text_18">
     <!-- Number of iterations -->
     <g style="fill: #ff7f0e" transform="translate(506.092112 199.543312) rotate(-90) scale(0.14 -0.14)">
      <defs>
       <path id="DejaVuSans-4e" d="M 628 4666 
L 1478 4666 
L 3547 763 
L 3547 4666 
L 4159 4666 
L 4159 0 
L 3309 0 
L 1241 3903 
L 1241 0 
L 628 0 
L 628 4666 
z
" transform="scale(0.015625)"/>
       <path id="DejaVuSans-62" d="M 3116 1747 
Q 3116 2381 2855 2742 
Q 2594 3103 2138 3103 
Q 1681 3103 1420 2742 
Q 1159 2381 1159 1747 
Q 1159 1113 1420 752 
Q 1681 391 2138 391 
Q 2594 391 2855 752 
Q 3116 1113 3116 1747 
z
M 1159 2969 
Q 1341 3281 1617 3432 
Q 1894 3584 2278 3584 
Q 2916 3584 3314 3078 
Q 3713 2572 3713 1747 
Q 3713 922 3314 415 
Q 2916 -91 2278 -91 
Q 1894 -91 1617 61 
Q 1341 213 1159 525 
L 1159 0 
L 581 0 
L 581 4863 
L 1159 4863 
L 1159 2969 
z
" transform="scale(0.015625)"/>
       <path id="DejaVuSans-66" d="M 2375 4863 
L 2375 4384 
L 1825 4384 
Q 1516 4384 1395 4259 
Q 1275 4134 1275 3809 
L 1275 3500 
L 2222 3500 
L 2222 3053 
L 1275 3053 
L 1275 0 
L 697 0 
L 697 3053 
L 147 3053 
L 147 3500 
L 697 3500 
L 697 3744 
Q 697 4328 969 4595 
Q 1241 4863 1831 4863 
L 2375 4863 
z
" transform="scale(0.015625)"/>
      </defs>
      <use xlink:href="#DejaVuSans-4e"/>
      <use xlink:href="#DejaVuSans-75" x="74.804688"/>
      <use xlink:href="#DejaVuSans-6d" x="138.183594"/>
      <use xlink:href="#DejaVuSans-62" x="235.595703"/>
      <use xlink:href="#DejaVuSans-65" x="299.072266"/>
      <use xlink:href="#DejaVuSans-72" x="360.595703"/>
      <use xlink:href="#DejaVuSans-20" x="401.708984"/>
      <use xlink:href="#DejaVuSans-6f" x="433.496094"/>
      <use xlink:href="#DejaVuSans-66" x="494.677734"/>
      <use xlink:href="#DejaVuSans-20" x="529.882812"/>
      <use xlink:href="#DejaVuSans-69" x="561.669922"/>
      <use xlink:href="#DejaVuSans-74" x="589.453125"/>
      <use xlink:href="#DejaVuSans-65" x="628.662109"/>
      <use xlink:href="#DejaVuSans-72" x="690.185547"/>
      <use xlink:href="#DejaVuSans-61" x="731.298828"/>
      <use xlink:href="#DejaVuSans-74" x="792.578125"/>
      <use xlink:href="#DejaVuSans-69" x="831.787109"/>
      <use xlink:href="#DejaVuSans-6f" x="859.570312"/>
      <use xlink:href="#DejaVuSans-6e" x="920.751953"/>
      <use xlink:href="#DejaVuSans-73" x="984.130859"/>
     </g>
    </g>
   </g>
   <g id="line2d_69">
    <defs>
     <path id="m37e52e3d65" d="M 0 1.5 
C 0.397805 1.5 0.77937 1.341951 1.06066 1.06066 
C 1.341951 0.77937 1.5 0.397805 1.5 0 
C 1.5 -0.397805 1.341951 -0.77937 1.06066 -1.06066 
C 0.77937 -1.341951 0.397805 -1.5 0 -1.5 
C -0.397805 -1.5 -0.77937 -1.341951 -1.06066 -1.06066 
C -1.341951 -0.77937 -1.5 -0.397805 -1.5 0 
C -1.5 0.397805 -1.341951 0.77937 -1.06066 1.06066 
C -0.77937 1.341951 -0.397805 1.5 0 1.5 
z
" style="stroke: #ff7f0e; stroke-width: 0.8"/>
    </defs>
    <g clip-path="url(#p7836b0393d)">
     <use xlink:href="#m37e52e3d65" x="81.5616" y="226.161832" style="fill-opacity: 0; stroke: #ff7f0e; stroke-width: 0.8"/>
     <use xlink:href="#m37e52e3d65" x="91.699709" y="227.615328" style="fill-opacity: 0; stroke: #ff7f0e; stroke-width: 0.8"/>
     <use xlink:href="#m37e52e3d65" x="101.794307" y="226.338179" style="fill-opacity: 0; stroke: #ff7f0e; stroke-width: 0.8"/>
     <use xlink:href="#m37e52e3d65" x="111.932417" y="226.418965" style="fill-opacity: 0; stroke: #ff7f0e; stroke-width: 0.8"/>
     <use xlink:href="#m37e52e3d65" x="122.070526" y="228.155" style="fill-opacity: 0; stroke: #ff7f0e; stroke-width: 0.8"/>
     <use xlink:href="#m37e52e3d65" x="132.208635" y="229.028196" style="fill-opacity: 0; stroke: #ff7f0e; stroke-width: 0.8"/>
     <use xlink:href="#m37e52e3d65" x="142.303233" y="227.076912" style="fill-opacity: 0; stroke: #ff7f0e; stroke-width: 0.8"/>
     <use xlink:href="#m37e52e3d65" x="152.441342" y="228.323859" style="fill-opacity: 0; stroke: #ff7f0e; stroke-width: 0.8"/>
     <use xlink:href="#m37e52e3d65" x="162.579451" y="229.134196" style="fill-opacity: 0; stroke: #ff7f0e; stroke-width: 0.8"/>
     <use xlink:href="#m37e52e3d65" x="182.812159" y="230.576964" style="fill-opacity: 0; stroke: #ff7f0e; stroke-width: 0.8"/>
     <use xlink:href="#m37e52e3d65" x="203.088377" y="222.636264" style="fill-opacity: 0; stroke: #ff7f0e; stroke-width: 0.8"/>
     <use xlink:href="#m37e52e3d65" x="223.321084" y="217.928953" style="fill-opacity: 0; stroke: #ff7f0e; stroke-width: 0.8"/>
     <use xlink:href="#m37e52e3d65" x="233.459194" y="213.462217" style="fill-opacity: 0; stroke: #ff7f0e; stroke-width: 0.8"/>
     <use xlink:href="#m37e52e3d65" x="243.597303" y="209.110841" style="fill-opacity: 0; stroke: #ff7f0e; stroke-width: 0.8"/>
     <use xlink:href="#m37e52e3d65" x="253.691901" y="200.753824" style="fill-opacity: 0; stroke: #ff7f0e; stroke-width: 0.8"/>
     <use xlink:href="#m37e52e3d65" x="263.83001" y="195.330684" style="fill-opacity: 0; stroke: #ff7f0e; stroke-width: 0.8"/>
     <use xlink:href="#m37e52e3d65" x="273.968119" y="175.199391" style="fill-opacity: 0; stroke: #ff7f0e; stroke-width: 0.8"/>
     <use xlink:href="#m37e52e3d65" x="284.106229" y="158.19681" style="fill-opacity: 0; stroke: #ff7f0e; stroke-width: 0.8"/>
     <use xlink:href="#m37e52e3d65" x="294.200827" y="128.676971" style="fill-opacity: 0; stroke: #ff7f0e; stroke-width: 0.8"/>
     <use xlink:href="#m37e52e3d65" x="304.295425" y="99.986191" style="fill-opacity: 0; stroke: #ff7f0e; stroke-width: 0.8"/>
     <use xlink:href="#m37e52e3d65" x="314.433534" y="68.136284" style="fill-opacity: 0; stroke: #ff7f0e; stroke-width: 0.8"/>
     <use xlink:href="#m37e52e3d65" x="324.571643" y="39.808402" style="fill-opacity: 0; stroke: #ff7f0e; stroke-width: 0.8"/>
     <use xlink:href="#m37e52e3d65" x="334.666241" y="25.392832" style="fill-opacity: 0; stroke: #ff7f0e; stroke-width: 0.8"/>
     <use xlink:href="#m37e52e3d65" x="344.80435" y="20.196343" style="fill-opacity: 0; stroke: #ff7f0e; stroke-width: 0.8"/>
     <use xlink:href="#m37e52e3d65" x="354.94246" y="19.737256" style="fill-opacity: 0; stroke: #ff7f0e; stroke-width: 0.8"/>
     <use xlink:href="#m37e52e3d65" x="365.037058" y="19.439157" style="fill-opacity: 0; stroke: #ff7f0e; stroke-width: 0.8"/>
     <use xlink:href="#m37e52e3d65" x="375.175167" y="19.439157" style="fill-opacity: 0; stroke: #ff7f0e; stroke-width: 0.8"/>
     <use xlink:href="#m37e52e3d65" x="385.313276" y="19.439157" style="fill-opacity: 0; stroke: #ff7f0e; stroke-width: 0.8"/>
     <use xlink:href="#m37e52e3d65" x="395.451385" y="19.439157" style="fill-opacity: 0; stroke: #ff7f0e; stroke-width: 0.8"/>
     <use xlink:href="#m37e52e3d65" x="405.545983" y="19.439157" style="fill-opacity: 0; stroke: #ff7f0e; stroke-width: 0.8"/>
     <use xlink:href="#m37e52e3d65" x="415.684093" y="19.439157" style="fill-opacity: 0; stroke: #ff7f0e; stroke-width: 0.8"/>
     <use xlink:href="#m37e52e3d65" x="425.822202" y="19.439157" style="fill-opacity: 0; stroke: #ff7f0e; stroke-width: 0.8"/>
     <use xlink:href="#m37e52e3d65" x="435.9168" y="19.439157" style="fill-opacity: 0; stroke: #ff7f0e; stroke-width: 0.8"/>
    </g>
   </g>
   <g id="line2d_70">
    <path d="M 81.5616 226.161832 
L 85.140945 226.675001 
L 88.720291 227.18817 
L 92.299636 227.539427 
L 95.878982 227.086575 
L 99.458327 226.633723 
L 103.037673 226.348087 
L 106.617018 226.376609 
L 110.196364 226.405132 
L 113.775709 226.734608 
L 117.355055 227.34753 
L 120.9344 227.960451 
L 124.513745 228.365435 
L 128.093091 228.673724 
L 131.672436 228.982014 
L 135.251782 228.439957 
L 138.831127 227.74807 
L 142.410473 227.090102 
L 145.989818 227.530347 
L 149.569164 227.970592 
L 153.148509 228.380383 
L 156.727855 228.666479 
L 160.3072 228.952575 
L 163.886545 229.227403 
L 167.465891 229.482641 
L 171.045236 229.73788 
L 174.624582 229.993118 
L 178.203927 230.248357 
L 181.783273 230.503595 
L 185.362618 229.578137 
L 188.941964 228.176371 
L 192.521309 226.774605 
L 196.100655 225.37284 
L 199.68 223.971074 
L 203.259345 222.596487 
L 206.838691 221.763722 
L 210.418036 220.930957 
L 213.997382 220.098192 
L 217.576727 219.265426 
L 221.156073 218.432661 
L 224.735418 217.305814 
L 228.314764 215.728795 
L 231.894109 214.151776 
L 235.473455 212.597677 
L 239.0528 211.061387 
L 242.632145 209.525096 
L 246.211491 206.946633 
L 249.790836 203.9834 
L 253.370182 201.020166 
L 256.949527 199.011235 
L 260.528873 197.096549 
L 264.108218 194.778245 
L 267.687564 187.670721 
L 271.266909 180.563198 
L 274.846255 173.726674 
L 278.4256 167.723769 
L 282.004945 161.720863 
L 285.584291 153.874482 
L 289.163636 143.407329 
L 292.742982 132.940176 
L 296.322327 122.64726 
L 299.901673 112.474075 
L 303.481018 102.30089 
L 307.060364 91.299853 
L 310.639709 80.054973 
L 314.219055 68.810093 
L 317.7984 58.734183 
L 321.377745 48.732784 
L 324.957091 39.257964 
L 328.536436 34.146487 
L 332.115782 29.03501 
L 335.695127 24.865456 
L 339.274473 23.030792 
L 342.853818 21.196127 
L 346.433164 20.122585 
L 350.012509 19.9605 
L 353.591855 19.798416 
L 357.1712 19.67144 
L 360.750545 19.56574 
L 364.329891 19.46004 
L 367.909236 19.439157 
L 371.488582 19.439157 
L 375.067927 19.439157 
L 378.647273 19.439157 
L 382.226618 19.439157 
L 385.805964 19.439157 
L 389.385309 19.439157 
L 392.964655 19.439157 
L 396.544 19.439157 
L 400.123345 19.439157 
L 403.702691 19.439157 
L 407.282036 19.439157 
L 410.861382 19.439157 
L 414.440727 19.439157 
L 418.020073 19.439157 
L 421.599418 19.439157 
L 425.178764 19.439157 
L 428.758109 19.439157 
L 432.337455 19.439157 
L 435.9168 19.439157 
" clip-path="url(#p7836b0393d)" style="fill: none; stroke: #ff7f0e; stroke-width: 2; stroke-linecap: square"/>
   </g>
   <g id="line2d_71">
    <path d="M 182.812159 241.92 
L 182.812159 12.096 
" clip-path="url(#p7836b0393d)" style="fill: none; stroke-dasharray: 5.55,2.4; stroke-dashoffset: 0; stroke: #008000; stroke-width: 1.5"/>
   </g>
   <g id="patch_7">
    <path d="M 81.5616 241.92 
L 81.5616 12.096 
" style="fill: none; stroke: #000000; stroke-width: 1.1; stroke-linejoin: miter; stroke-linecap: square"/>
   </g>
   <g id="patch_8">
    <path d="M 435.9168 241.92 
L 435.9168 12.096 
" style="fill: none; stroke: #000000; stroke-width: 1.1; stroke-linejoin: miter; stroke-linecap: square"/>
   </g>
   <g id="patch_9">
    <path d="M 81.5616 241.92 
L 435.9168 241.92 
" style="fill: none; stroke: #000000; stroke-width: 1.1; stroke-linejoin: miter; stroke-linecap: square"/>
   </g>
   <g id="patch_10">
    <path d="M 81.5616 12.096 
L 435.9168 12.096 
" style="fill: none; stroke: #000000; stroke-width: 1.1; stroke-linejoin: miter; stroke-linecap: square"/>
   </g>
   <g id="legend_1">
    <g id="patch_11">
     <path d="M 183.044044 139.382687 
L 334.434356 139.382687 
Q 337.234356 139.382687 337.234356 136.582687 
L 337.234356 117.433312 
Q 337.234356 114.633312 334.434356 114.633312 
L 183.044044 114.633312 
Q 180.244044 114.633312 180.244044 117.433312 
L 180.244044 136.582687 
Q 180.244044 139.382687 183.044044 139.382687 
z
" style="fill: #ffffff; opacity: 0.8; stroke: #cccccc; stroke-linejoin: miter"/>
    </g>
    <g id="line2d_72">
     <path d="M 185.844044 125.971125 
L 199.844044 125.971125 
L 213.844044 125.971125 
" style="fill: none; stroke-dasharray: 5.55,2.4; stroke-dashoffset: 0; stroke: #008000; stroke-width: 1.5"/>
    </g>
    <g id="text_19">
     <!-- observed noise -->
     <g transform="translate(225.044044 130.871125) scale(0.14 -0.14)">
      <use xlink:href="#DejaVuSans-6f"/>
      <use xlink:href="#DejaVuSans-62" x="61.181641"/>
      <use xlink:href="#DejaVuSans-73" x="124.658203"/>
      <use xlink:href="#DejaVuSans-65" x="176.757812"/>
      <use xlink:href="#DejaVuSans-72" x="238.28125"/>
      <use xlink:href="#DejaVuSans-76" x="279.394531"/>
      <use xlink:href="#DejaVuSans-65" x="338.574219"/>
      <use xlink:href="#DejaVuSans-64" x="400.097656"/>
      <use xlink:href="#DejaVuSans-20" x="463.574219"/>
      <use xlink:href="#DejaVuSans-6e" x="495.361328"/>
      <use xlink:href="#DejaVuSans-6f" x="558.740234"/>
      <use xlink:href="#DejaVuSans-69" x="619.921875"/>
      <use xlink:href="#DejaVuSans-73" x="647.705078"/>
      <use xlink:href="#DejaVuSans-65" x="699.804688"/>
     </g>
    </g>
   </g>
  </g>
 </g>
 <defs>
  <clipPath id="p7836b0393d">
   <rect x="81.5616" y="12.096" width="354.3552" height="229.824"/>
  </clipPath>
 </defs>
</svg>
