<?xml version="1.0" encoding="utf-8" standalone="no"?>
<!DOCTYPE svg PUBLIC "-//W3C//DTD SVG 1.1//EN"
  "http://www.w3.org/Graphics/SVG/1.1/DTD/svg11.dtd">
<svg xmlns:xlink="http://www.w3.org/1999/xlink" width="460.8pt" height="345.6pt" viewBox="0 0 460.8 345.6" xmlns="http://www.w3.org/2000/svg" version="1.1">
 <metadata>
  <rdf:RDF xmlns:dc="http://purl.org/dc/elements/1.1/" xmlns:cc="http://creativecommons.org/ns#" xmlns:rdf="http://www.w3.org/1999/02/22-rdf-syntax-ns#">
   <cc:Work>
    <dc:type rdf:resource="http://purl.org/dc/dcmitype/StillImage"/>
    <dc:date>2022-12-01T06:53:07.647357</dc:date>
    <dc:format>image/svg+xml</dc:format>
    <dc:creator>
     <cc:Agent>
      <dc:title>Matplotlib v3.6.2, https://matplotlib.org/</dc:title>
     </cc:Agent>
    </dc:creator>
   </cc:Work>
  </rdf:RDF>
 </metadata>
 <defs>
  <style type="text/css">*{stroke-linejoin: round; stroke-linecap: butt}</style>
 </defs>
 <g id="figure_1">
  <g id="patch_1">
   <path d="M 0 345.6 
L 460.8 345.6 
L 460.8 0 
L 0 0 
z
" style="fill: #ffffff"/>
  </g>
  <g id="axes_1">
   <g id="patch_2">
    <path d="M 81.5616 241.92 
L 435.9168 241.92 
L 435.9168 12.096 
L 81.5616 12.096 
z
" style="fill: #ffffff"/>
   </g>
   <g id="matplotlib.axis_1">
    <g id="xtick_1">
     <g id="line2d_1">
      <defs>
       <path id="mbfdeb09eaf" d="M 0 0 
L 0 7 
" style="stroke: #000000; stroke-width: 1.1"/>
      </defs>
      <g>
       <use xlink:href="#mbfdeb09eaf" x="139.872462" y="241.92" style="fill-opacity: 0; stroke: #000000; stroke-width: 1.1"/>
      </g>
     </g>
     <g id="text_1">
      <!-- 0.5 -->
      <g transform="translate(128.740274 264.557813) scale(0.14 -0.14)">
       <defs>
        <path id="DejaVuSans-30" d="M 2034 4250 
Q 1547 4250 1301 3770 
Q 1056 3291 1056 2328 
Q 1056 1369 1301 889 
Q 1547 409 2034 409 
Q 2525 409 2770 889 
Q 3016 1369 3016 2328 
Q 3016 3291 2770 3770 
Q 2525 4250 2034 4250 
z
M 2034 4750 
Q 2819 4750 3233 4129 
Q 3647 3509 3647 2328 
Q 3647 1150 3233 529 
Q 2819 -91 2034 -91 
Q 1250 -91 836 529 
Q 422 1150 422 2328 
Q 422 3509 836 4129 
Q 1250 4750 2034 4750 
z
" transform="scale(0.015625)"/>
        <path id="DejaVuSans-2e" d="M 684 794 
L 1344 794 
L 1344 0 
L 684 0 
L 684 794 
z
" transform="scale(0.015625)"/>
        <path id="DejaVuSans-35" d="M 691 4666 
L 3169 4666 
L 3169 4134 
L 1269 4134 
L 1269 2991 
Q 1406 3038 1543 3061 
Q 1681 3084 1819 3084 
Q 2600 3084 3056 2656 
Q 3513 2228 3513 1497 
Q 3513 744 3044 326 
Q 2575 -91 1722 -91 
Q 1428 -91 1123 -41 
Q 819 9 494 109 
L 494 744 
Q 775 591 1075 516 
Q 1375 441 1709 441 
Q 2250 441 2565 725 
Q 2881 1009 2881 1497 
Q 2881 1984 2565 2268 
Q 2250 2553 1709 2553 
Q 1456 2553 1204 2497 
Q 953 2441 691 2322 
L 691 4666 
z
" transform="scale(0.015625)"/>
       </defs>
       <use xlink:href="#DejaVuSans-30"/>
       <use xlink:href="#DejaVuSans-2e" x="63.623047"/>
       <use xlink:href="#DejaVuSans-35" x="95.410156"/>
      </g>
     </g>
    </g>
    <g id="xtick_2">
     <g id="line2d_2">
      <g>
       <use xlink:href="#mbfdeb09eaf" x="218.990535" y="241.92" style="fill-opacity: 0; stroke: #000000; stroke-width: 1.1"/>
      </g>
     </g>
     <g id="text_2">
      <!-- 1.0 -->
      <g transform="translate(207.858348 264.557813) scale(0.14 -0.14)">
       <defs>
        <path id="DejaVuSans-31" d="M 794 531 
L 1825 531 
L 1825 4091 
L 703 3866 
L 703 4441 
L 1819 4666 
L 2450 4666 
L 2450 531 
L 3481 531 
L 3481 0 
L 794 0 
L 794 531 
z
" transform="scale(0.015625)"/>
       </defs>
       <use xlink:href="#DejaVuSans-31"/>
       <use xlink:href="#DejaVuSans-2e" x="63.623047"/>
       <use xlink:href="#DejaVuSans-30" x="95.410156"/>
      </g>
     </g>
    </g>
    <g id="xtick_3">
     <g id="line2d_3">
      <g>
       <use xlink:href="#mbfdeb09eaf" x="298.108609" y="241.92" style="fill-opacity: 0; stroke: #000000; stroke-width: 1.1"/>
      </g>
     </g>
     <g id="text_3">
      <!-- 1.5 -->
      <g transform="translate(286.976422 264.557813) scale(0.14 -0.14)">
       <use xlink:href="#DejaVuSans-31"/>
       <use xlink:href="#DejaVuSans-2e" x="63.623047"/>
       <use xlink:href="#DejaVuSans-35" x="95.410156"/>
      </g>
     </g>
    </g>
    <g id="xtick_4">
     <g id="line2d_4">
      <g>
       <use xlink:href="#mbfdeb09eaf" x="377.226683" y="241.92" style="fill-opacity: 0; stroke: #000000; stroke-width: 1.1"/>
      </g>
     </g>
     <g id="text_4">
      <!-- 2.0 -->
      <g transform="translate(366.094496 264.557813) scale(0.14 -0.14)">
       <defs>
        <path id="DejaVuSans-32" d="M 1228 531 
L 3431 531 
L 3431 0 
L 469 0 
L 469 531 
Q 828 903 1448 1529 
Q 2069 2156 2228 2338 
Q 2531 2678 2651 2914 
Q 2772 3150 2772 3378 
Q 2772 3750 2511 3984 
Q 2250 4219 1831 4219 
Q 1534 4219 1204 4116 
Q 875 4013 500 3803 
L 500 4441 
Q 881 4594 1212 4672 
Q 1544 4750 1819 4750 
Q 2544 4750 2975 4387 
Q 3406 4025 3406 3419 
Q 3406 3131 3298 2873 
Q 3191 2616 2906 2266 
Q 2828 2175 2409 1742 
Q 1991 1309 1228 531 
z
" transform="scale(0.015625)"/>
       </defs>
       <use xlink:href="#DejaVuSans-32"/>
       <use xlink:href="#DejaVuSans-2e" x="63.623047"/>
       <use xlink:href="#DejaVuSans-30" x="95.410156"/>
      </g>
     </g>
    </g>
    <g id="xtick_5">
     <g id="line2d_5">
      <defs>
       <path id="m37d36d6be0" d="M 0 0 
L 0 3.5 
" style="stroke: #000000; stroke-width: 1.1"/>
      </defs>
      <g>
       <use xlink:href="#m37d36d6be0" x="92.401617" y="241.92" style="fill-opacity: 0; stroke: #000000; stroke-width: 1.1"/>
      </g>
     </g>
    </g>
    <g id="xtick_6">
     <g id="line2d_6">
      <g>
       <use xlink:href="#m37d36d6be0" x="108.225232" y="241.92" style="fill-opacity: 0; stroke: #000000; stroke-width: 1.1"/>
      </g>
     </g>
    </g>
    <g id="xtick_7">
     <g id="line2d_7">
      <g>
       <use xlink:href="#m37d36d6be0" x="124.048847" y="241.92" style="fill-opacity: 0; stroke: #000000; stroke-width: 1.1"/>
      </g>
     </g>
    </g>
    <g id="xtick_8">
     <g id="line2d_8">
      <g>
       <use xlink:href="#m37d36d6be0" x="155.696076" y="241.92" style="fill-opacity: 0; stroke: #000000; stroke-width: 1.1"/>
      </g>
     </g>
    </g>
    <g id="xtick_9">
     <g id="line2d_9">
      <g>
       <use xlink:href="#m37d36d6be0" x="171.519691" y="241.92" style="fill-opacity: 0; stroke: #000000; stroke-width: 1.1"/>
      </g>
     </g>
    </g>
    <g id="xtick_10">
     <g id="line2d_10">
      <g>
       <use xlink:href="#m37d36d6be0" x="187.343306" y="241.92" style="fill-opacity: 0; stroke: #000000; stroke-width: 1.1"/>
      </g>
     </g>
    </g>
    <g id="xtick_11">
     <g id="line2d_11">
      <g>
       <use xlink:href="#m37d36d6be0" x="203.166921" y="241.92" style="fill-opacity: 0; stroke: #000000; stroke-width: 1.1"/>
      </g>
     </g>
    </g>
    <g id="xtick_12">
     <g id="line2d_12">
      <g>
       <use xlink:href="#m37d36d6be0" x="234.81415" y="241.92" style="fill-opacity: 0; stroke: #000000; stroke-width: 1.1"/>
      </g>
     </g>
    </g>
    <g id="xtick_13">
     <g id="line2d_13">
      <g>
       <use xlink:href="#m37d36d6be0" x="250.637765" y="241.92" style="fill-opacity: 0; stroke: #000000; stroke-width: 1.1"/>
      </g>
     </g>
    </g>
    <g id="xtick_14">
     <g id="line2d_14">
      <g>
       <use xlink:href="#m37d36d6be0" x="266.46138" y="241.92" style="fill-opacity: 0; stroke: #000000; stroke-width: 1.1"/>
      </g>
     </g>
    </g>
    <g id="xtick_15">
     <g id="line2d_15">
      <g>
       <use xlink:href="#m37d36d6be0" x="282.284994" y="241.92" style="fill-opacity: 0; stroke: #000000; stroke-width: 1.1"/>
      </g>
     </g>
    </g>
    <g id="xtick_16">
     <g id="line2d_16">
      <g>
       <use xlink:href="#m37d36d6be0" x="313.932224" y="241.92" style="fill-opacity: 0; stroke: #000000; stroke-width: 1.1"/>
      </g>
     </g>
    </g>
    <g id="xtick_17">
     <g id="line2d_17">
      <g>
       <use xlink:href="#m37d36d6be0" x="329.755839" y="241.92" style="fill-opacity: 0; stroke: #000000; stroke-width: 1.1"/>
      </g>
     </g>
    </g>
    <g id="xtick_18">
     <g id="line2d_18">
      <g>
       <use xlink:href="#m37d36d6be0" x="345.579454" y="241.92" style="fill-opacity: 0; stroke: #000000; stroke-width: 1.1"/>
      </g>
     </g>
    </g>
    <g id="xtick_19">
     <g id="line2d_19">
      <g>
       <use xlink:href="#m37d36d6be0" x="361.403068" y="241.92" style="fill-opacity: 0; stroke: #000000; stroke-width: 1.1"/>
      </g>
     </g>
    </g>
    <g id="xtick_20">
     <g id="line2d_20">
      <g>
       <use xlink:href="#m37d36d6be0" x="393.050298" y="241.92" style="fill-opacity: 0; stroke: #000000; stroke-width: 1.1"/>
      </g>
     </g>
    </g>
    <g id="xtick_21">
     <g id="line2d_21">
      <g>
       <use xlink:href="#m37d36d6be0" x="408.873913" y="241.92" style="fill-opacity: 0; stroke: #000000; stroke-width: 1.1"/>
      </g>
     </g>
    </g>
    <g id="xtick_22">
     <g id="line2d_22">
      <g>
       <use xlink:href="#m37d36d6be0" x="424.697527" y="241.92" style="fill-opacity: 0; stroke: #000000; stroke-width: 1.1"/>
      </g>
     </g>
    </g>
    <g id="text_5">
     <!-- read noise (standard deviation) -->
     <g transform="translate(148.63795 288.107188) scale(0.14 -0.14)">
      <defs>
       <path id="DejaVuSans-72" d="M 2631 2963 
Q 2534 3019 2420 3045 
Q 2306 3072 2169 3072 
Q 1681 3072 1420 2755 
Q 1159 2438 1159 1844 
L 1159 0 
L 581 0 
L 581 3500 
L 1159 3500 
L 1159 2956 
Q 1341 3275 1631 3429 
Q 1922 3584 2338 3584 
Q 2397 3584 2469 3576 
Q 2541 3569 2628 3553 
L 2631 2963 
z
" transform="scale(0.015625)"/>
       <path id="DejaVuSans-65" d="M 3597 1894 
L 3597 1613 
L 953 1613 
Q 991 1019 1311 708 
Q 1631 397 2203 397 
Q 2534 397 2845 478 
Q 3156 559 3463 722 
L 3463 178 
Q 3153 47 2828 -22 
Q 2503 -91 2169 -91 
Q 1331 -91 842 396 
Q 353 884 353 1716 
Q 353 2575 817 3079 
Q 1281 3584 2069 3584 
Q 2775 3584 3186 3129 
Q 3597 2675 3597 1894 
z
M 3022 2063 
Q 3016 2534 2758 2815 
Q 2500 3097 2075 3097 
Q 1594 3097 1305 2825 
Q 1016 2553 972 2059 
L 3022 2063 
z
" transform="scale(0.015625)"/>
       <path id="DejaVuSans-61" d="M 2194 1759 
Q 1497 1759 1228 1600 
Q 959 1441 959 1056 
Q 959 750 1161 570 
Q 1363 391 1709 391 
Q 2188 391 2477 730 
Q 2766 1069 2766 1631 
L 2766 1759 
L 2194 1759 
z
M 3341 1997 
L 3341 0 
L 2766 0 
L 2766 531 
Q 2569 213 2275 61 
Q 1981 -91 1556 -91 
Q 1019 -91 701 211 
Q 384 513 384 1019 
Q 384 1609 779 1909 
Q 1175 2209 1959 2209 
L 2766 2209 
L 2766 2266 
Q 2766 2663 2505 2880 
Q 2244 3097 1772 3097 
Q 1472 3097 1187 3025 
Q 903 2953 641 2809 
L 641 3341 
Q 956 3463 1253 3523 
Q 1550 3584 1831 3584 
Q 2591 3584 2966 3190 
Q 3341 2797 3341 1997 
z
" transform="scale(0.015625)"/>
       <path id="DejaVuSans-64" d="M 2906 2969 
L 2906 4863 
L 3481 4863 
L 3481 0 
L 2906 0 
L 2906 525 
Q 2725 213 2448 61 
Q 2172 -91 1784 -91 
Q 1150 -91 751 415 
Q 353 922 353 1747 
Q 353 2572 751 3078 
Q 1150 3584 1784 3584 
Q 2172 3584 2448 3432 
Q 2725 3281 2906 2969 
z
M 947 1747 
Q 947 1113 1208 752 
Q 1469 391 1925 391 
Q 2381 391 2643 752 
Q 2906 1113 2906 1747 
Q 2906 2381 2643 2742 
Q 2381 3103 1925 3103 
Q 1469 3103 1208 2742 
Q 947 2381 947 1747 
z
" transform="scale(0.015625)"/>
       <path id="DejaVuSans-20" transform="scale(0.015625)"/>
       <path id="DejaVuSans-6e" d="M 3513 2113 
L 3513 0 
L 2938 0 
L 2938 2094 
Q 2938 2591 2744 2837 
Q 2550 3084 2163 3084 
Q 1697 3084 1428 2787 
Q 1159 2491 1159 1978 
L 1159 0 
L 581 0 
L 581 3500 
L 1159 3500 
L 1159 2956 
Q 1366 3272 1645 3428 
Q 1925 3584 2291 3584 
Q 2894 3584 3203 3211 
Q 3513 2838 3513 2113 
z
" transform="scale(0.015625)"/>
       <path id="DejaVuSans-6f" d="M 1959 3097 
Q 1497 3097 1228 2736 
Q 959 2375 959 1747 
Q 959 1119 1226 758 
Q 1494 397 1959 397 
Q 2419 397 2687 759 
Q 2956 1122 2956 1747 
Q 2956 2369 2687 2733 
Q 2419 3097 1959 3097 
z
M 1959 3584 
Q 2709 3584 3137 3096 
Q 3566 2609 3566 1747 
Q 3566 888 3137 398 
Q 2709 -91 1959 -91 
Q 1206 -91 779 398 
Q 353 888 353 1747 
Q 353 2609 779 3096 
Q 1206 3584 1959 3584 
z
" transform="scale(0.015625)"/>
       <path id="DejaVuSans-69" d="M 603 3500 
L 1178 3500 
L 1178 0 
L 603 0 
L 603 3500 
z
M 603 4863 
L 1178 4863 
L 1178 4134 
L 603 4134 
L 603 4863 
z
" transform="scale(0.015625)"/>
       <path id="DejaVuSans-73" d="M 2834 3397 
L 2834 2853 
Q 2591 2978 2328 3040 
Q 2066 3103 1784 3103 
Q 1356 3103 1142 2972 
Q 928 2841 928 2578 
Q 928 2378 1081 2264 
Q 1234 2150 1697 2047 
L 1894 2003 
Q 2506 1872 2764 1633 
Q 3022 1394 3022 966 
Q 3022 478 2636 193 
Q 2250 -91 1575 -91 
Q 1294 -91 989 -36 
Q 684 19 347 128 
L 347 722 
Q 666 556 975 473 
Q 1284 391 1588 391 
Q 1994 391 2212 530 
Q 2431 669 2431 922 
Q 2431 1156 2273 1281 
Q 2116 1406 1581 1522 
L 1381 1569 
Q 847 1681 609 1914 
Q 372 2147 372 2553 
Q 372 3047 722 3315 
Q 1072 3584 1716 3584 
Q 2034 3584 2315 3537 
Q 2597 3491 2834 3397 
z
" transform="scale(0.015625)"/>
       <path id="DejaVuSans-28" d="M 1984 4856 
Q 1566 4138 1362 3434 
Q 1159 2731 1159 2009 
Q 1159 1288 1364 580 
Q 1569 -128 1984 -844 
L 1484 -844 
Q 1016 -109 783 600 
Q 550 1309 550 2009 
Q 550 2706 781 3412 
Q 1013 4119 1484 4856 
L 1984 4856 
z
" transform="scale(0.015625)"/>
       <path id="DejaVuSans-74" d="M 1172 4494 
L 1172 3500 
L 2356 3500 
L 2356 3053 
L 1172 3053 
L 1172 1153 
Q 1172 725 1289 603 
Q 1406 481 1766 481 
L 2356 481 
L 2356 0 
L 1766 0 
Q 1100 0 847 248 
Q 594 497 594 1153 
L 594 3053 
L 172 3053 
L 172 3500 
L 594 3500 
L 594 4494 
L 1172 4494 
z
" transform="scale(0.015625)"/>
       <path id="DejaVuSans-76" d="M 191 3500 
L 800 3500 
L 1894 563 
L 2988 3500 
L 3597 3500 
L 2284 0 
L 1503 0 
L 191 3500 
z
" transform="scale(0.015625)"/>
       <path id="DejaVuSans-29" d="M 513 4856 
L 1013 4856 
Q 1481 4119 1714 3412 
Q 1947 2706 1947 2009 
Q 1947 1309 1714 600 
Q 1481 -109 1013 -844 
L 513 -844 
Q 928 -128 1133 580 
Q 1338 1288 1338 2009 
Q 1338 2731 1133 3434 
Q 928 4138 513 4856 
z
" transform="scale(0.015625)"/>
      </defs>
      <use xlink:href="#DejaVuSans-72"/>
      <use xlink:href="#DejaVuSans-65" x="38.863281"/>
      <use xlink:href="#DejaVuSans-61" x="100.386719"/>
      <use xlink:href="#DejaVuSans-64" x="161.666016"/>
      <use xlink:href="#DejaVuSans-20" x="225.142578"/>
      <use xlink:href="#DejaVuSans-6e" x="256.929688"/>
      <use xlink:href="#DejaVuSans-6f" x="320.308594"/>
      <use xlink:href="#DejaVuSans-69" x="381.490234"/>
      <use xlink:href="#DejaVuSans-73" x="409.273438"/>
      <use xlink:href="#DejaVuSans-65" x="461.373047"/>
      <use xlink:href="#DejaVuSans-20" x="522.896484"/>
      <use xlink:href="#DejaVuSans-28" x="554.683594"/>
      <use xlink:href="#DejaVuSans-73" x="593.697266"/>
      <use xlink:href="#DejaVuSans-74" x="645.796875"/>
      <use xlink:href="#DejaVuSans-61" x="685.005859"/>
      <use xlink:href="#DejaVuSans-6e" x="746.285156"/>
      <use xlink:href="#DejaVuSans-64" x="809.664062"/>
      <use xlink:href="#DejaVuSans-61" x="873.140625"/>
      <use xlink:href="#DejaVuSans-72" x="934.419922"/>
      <use xlink:href="#DejaVuSans-64" x="973.783203"/>
      <use xlink:href="#DejaVuSans-20" x="1037.259766"/>
      <use xlink:href="#DejaVuSans-64" x="1069.046875"/>
      <use xlink:href="#DejaVuSans-65" x="1132.523438"/>
      <use xlink:href="#DejaVuSans-76" x="1194.046875"/>
      <use xlink:href="#DejaVuSans-69" x="1253.226562"/>
      <use xlink:href="#DejaVuSans-61" x="1281.009766"/>
      <use xlink:href="#DejaVuSans-74" x="1342.289062"/>
      <use xlink:href="#DejaVuSans-69" x="1381.498047"/>
      <use xlink:href="#DejaVuSans-6f" x="1409.28125"/>
      <use xlink:href="#DejaVuSans-6e" x="1470.462891"/>
      <use xlink:href="#DejaVuSans-29" x="1533.841797"/>
     </g>
    </g>
   </g>
   <g id="matplotlib.axis_2">
    <g id="ytick_1">
     <g id="line2d_23">
      <defs>
       <path id="m4d16d5b36d" d="M 0 0 
L -7 0 
" style="stroke: #000000; stroke-width: 1.1"/>
      </defs>
      <g>
       <use xlink:href="#m4d16d5b36d" x="81.5616" y="241.92" style="fill-opacity: 0; stroke: #000000; stroke-width: 1.1"/>
      </g>
     </g>
     <g id="text_6">
      <!-- 0.0 -->
      <g transform="translate(47.297225 247.238906) scale(0.14 -0.14)">
       <use xlink:href="#DejaVuSans-30"/>
       <use xlink:href="#DejaVuSans-2e" x="63.623047"/>
       <use xlink:href="#DejaVuSans-30" x="95.410156"/>
      </g>
     </g>
    </g>
    <g id="ytick_2">
     <g id="line2d_24">
      <g>
       <use xlink:href="#m4d16d5b36d" x="81.5616" y="198.144" style="fill-opacity: 0; stroke: #000000; stroke-width: 1.1"/>
      </g>
     </g>
     <g id="text_7">
      <!-- 0.2 -->
      <g transform="translate(47.297225 203.462906) scale(0.14 -0.14)">
       <use xlink:href="#DejaVuSans-30"/>
       <use xlink:href="#DejaVuSans-2e" x="63.623047"/>
       <use xlink:href="#DejaVuSans-32" x="95.410156"/>
      </g>
     </g>
    </g>
    <g id="ytick_3">
     <g id="line2d_25">
      <g>
       <use xlink:href="#m4d16d5b36d" x="81.5616" y="154.368" style="fill-opacity: 0; stroke: #000000; stroke-width: 1.1"/>
      </g>
     </g>
     <g id="text_8">
      <!-- 0.4 -->
      <g transform="translate(47.297225 159.686906) scale(0.14 -0.14)">
       <defs>
        <path id="DejaVuSans-34" d="M 2419 4116 
L 825 1625 
L 2419 1625 
L 2419 4116 
z
M 2253 4666 
L 3047 4666 
L 3047 1625 
L 3713 1625 
L 3713 1100 
L 3047 1100 
L 3047 0 
L 2419 0 
L 2419 1100 
L 313 1100 
L 313 1709 
L 2253 4666 
z
" transform="scale(0.015625)"/>
       </defs>
       <use xlink:href="#DejaVuSans-30"/>
       <use xlink:href="#DejaVuSans-2e" x="63.623047"/>
       <use xlink:href="#DejaVuSans-34" x="95.410156"/>
      </g>
     </g>
    </g>
    <g id="ytick_4">
     <g id="line2d_26">
      <g>
       <use xlink:href="#m4d16d5b36d" x="81.5616" y="110.592" style="fill-opacity: 0; stroke: #000000; stroke-width: 1.1"/>
      </g>
     </g>
     <g id="text_9">
      <!-- 0.6 -->
      <g transform="translate(47.297225 115.910906) scale(0.14 -0.14)">
       <defs>
        <path id="DejaVuSans-36" d="M 2113 2584 
Q 1688 2584 1439 2293 
Q 1191 2003 1191 1497 
Q 1191 994 1439 701 
Q 1688 409 2113 409 
Q 2538 409 2786 701 
Q 3034 994 3034 1497 
Q 3034 2003 2786 2293 
Q 2538 2584 2113 2584 
z
M 3366 4563 
L 3366 3988 
Q 3128 4100 2886 4159 
Q 2644 4219 2406 4219 
Q 1781 4219 1451 3797 
Q 1122 3375 1075 2522 
Q 1259 2794 1537 2939 
Q 1816 3084 2150 3084 
Q 2853 3084 3261 2657 
Q 3669 2231 3669 1497 
Q 3669 778 3244 343 
Q 2819 -91 2113 -91 
Q 1303 -91 875 529 
Q 447 1150 447 2328 
Q 447 3434 972 4092 
Q 1497 4750 2381 4750 
Q 2619 4750 2861 4703 
Q 3103 4656 3366 4563 
z
" transform="scale(0.015625)"/>
       </defs>
       <use xlink:href="#DejaVuSans-30"/>
       <use xlink:href="#DejaVuSans-2e" x="63.623047"/>
       <use xlink:href="#DejaVuSans-36" x="95.410156"/>
      </g>
     </g>
    </g>
    <g id="ytick_5">
     <g id="line2d_27">
      <g>
       <use xlink:href="#m4d16d5b36d" x="81.5616" y="66.816" style="fill-opacity: 0; stroke: #000000; stroke-width: 1.1"/>
      </g>
     </g>
     <g id="text_10">
      <!-- 0.8 -->
      <g transform="translate(47.297225 72.134906) scale(0.14 -0.14)">
       <defs>
        <path id="DejaVuSans-38" d="M 2034 2216 
Q 1584 2216 1326 1975 
Q 1069 1734 1069 1313 
Q 1069 891 1326 650 
Q 1584 409 2034 409 
Q 2484 409 2743 651 
Q 3003 894 3003 1313 
Q 3003 1734 2745 1975 
Q 2488 2216 2034 2216 
z
M 1403 2484 
Q 997 2584 770 2862 
Q 544 3141 544 3541 
Q 544 4100 942 4425 
Q 1341 4750 2034 4750 
Q 2731 4750 3128 4425 
Q 3525 4100 3525 3541 
Q 3525 3141 3298 2862 
Q 3072 2584 2669 2484 
Q 3125 2378 3379 2068 
Q 3634 1759 3634 1313 
Q 3634 634 3220 271 
Q 2806 -91 2034 -91 
Q 1263 -91 848 271 
Q 434 634 434 1313 
Q 434 1759 690 2068 
Q 947 2378 1403 2484 
z
M 1172 3481 
Q 1172 3119 1398 2916 
Q 1625 2713 2034 2713 
Q 2441 2713 2670 2916 
Q 2900 3119 2900 3481 
Q 2900 3844 2670 4047 
Q 2441 4250 2034 4250 
Q 1625 4250 1398 4047 
Q 1172 3844 1172 3481 
z
" transform="scale(0.015625)"/>
       </defs>
       <use xlink:href="#DejaVuSans-30"/>
       <use xlink:href="#DejaVuSans-2e" x="63.623047"/>
       <use xlink:href="#DejaVuSans-38" x="95.410156"/>
      </g>
     </g>
    </g>
    <g id="ytick_6">
     <g id="line2d_28">
      <g>
       <use xlink:href="#m4d16d5b36d" x="81.5616" y="23.04" style="fill-opacity: 0; stroke: #000000; stroke-width: 1.1"/>
      </g>
     </g>
     <g id="text_11">
      <!-- 1.0 -->
      <g transform="translate(47.297225 28.358906) scale(0.14 -0.14)">
       <use xlink:href="#DejaVuSans-31"/>
       <use xlink:href="#DejaVuSans-2e" x="63.623047"/>
       <use xlink:href="#DejaVuSans-30" x="95.410156"/>
      </g>
     </g>
    </g>
    <g id="ytick_7">
     <g id="line2d_29">
      <defs>
       <path id="md293cafe78" d="M 0 0 
L -3.5 0 
" style="stroke: #000000; stroke-width: 1.1"/>
      </defs>
      <g>
       <use xlink:href="#md293cafe78" x="81.5616" y="230.976" style="fill-opacity: 0; stroke: #000000; stroke-width: 1.1"/>
      </g>
     </g>
    </g>
    <g id="ytick_8">
     <g id="line2d_30">
      <g>
       <use xlink:href="#md293cafe78" x="81.5616" y="220.032" style="fill-opacity: 0; stroke: #000000; stroke-width: 1.1"/>
      </g>
     </g>
    </g>
    <g id="ytick_9">
     <g id="line2d_31">
      <g>
       <use xlink:href="#md293cafe78" x="81.5616" y="209.088" style="fill-opacity: 0; stroke: #000000; stroke-width: 1.1"/>
      </g>
     </g>
    </g>
    <g id="ytick_10">
     <g id="line2d_32">
      <g>
       <use xlink:href="#md293cafe78" x="81.5616" y="187.2" style="fill-opacity: 0; stroke: #000000; stroke-width: 1.1"/>
      </g>
     </g>
    </g>
    <g id="ytick_11">
     <g id="line2d_33">
      <g>
       <use xlink:href="#md293cafe78" x="81.5616" y="176.256" style="fill-opacity: 0; stroke: #000000; stroke-width: 1.1"/>
      </g>
     </g>
    </g>
    <g id="ytick_12">
     <g id="line2d_34">
      <g>
       <use xlink:href="#md293cafe78" x="81.5616" y="165.312" style="fill-opacity: 0; stroke: #000000; stroke-width: 1.1"/>
      </g>
     </g>
    </g>
    <g id="ytick_13">
     <g id="line2d_35">
      <g>
       <use xlink:href="#md293cafe78" x="81.5616" y="143.424" style="fill-opacity: 0; stroke: #000000; stroke-width: 1.1"/>
      </g>
     </g>
    </g>
    <g id="ytick_14">
     <g id="line2d_36">
      <g>
       <use xlink:href="#md293cafe78" x="81.5616" y="132.48" style="fill-opacity: 0; stroke: #000000; stroke-width: 1.1"/>
      </g>
     </g>
    </g>
    <g id="ytick_15">
     <g id="line2d_37">
      <g>
       <use xlink:href="#md293cafe78" x="81.5616" y="121.536" style="fill-opacity: 0; stroke: #000000; stroke-width: 1.1"/>
      </g>
     </g>
    </g>
    <g id="ytick_16">
     <g id="line2d_38">
      <g>
       <use xlink:href="#md293cafe78" x="81.5616" y="99.648" style="fill-opacity: 0; stroke: #000000; stroke-width: 1.1"/>
      </g>
     </g>
    </g>
    <g id="ytick_17">
     <g id="line2d_39">
      <g>
       <use xlink:href="#md293cafe78" x="81.5616" y="88.704" style="fill-opacity: 0; stroke: #000000; stroke-width: 1.1"/>
      </g>
     </g>
    </g>
    <g id="ytick_18">
     <g id="line2d_40">
      <g>
       <use xlink:href="#md293cafe78" x="81.5616" y="77.76" style="fill-opacity: 0; stroke: #000000; stroke-width: 1.1"/>
      </g>
     </g>
    </g>
    <g id="ytick_19">
     <g id="line2d_41">
      <g>
       <use xlink:href="#md293cafe78" x="81.5616" y="55.872" style="fill-opacity: 0; stroke: #000000; stroke-width: 1.1"/>
      </g>
     </g>
    </g>
    <g id="ytick_20">
     <g id="line2d_42">
      <g>
       <use xlink:href="#md293cafe78" x="81.5616" y="44.928" style="fill-opacity: 0; stroke: #000000; stroke-width: 1.1"/>
      </g>
     </g>
    </g>
    <g id="ytick_21">
     <g id="line2d_43">
      <g>
       <use xlink:href="#md293cafe78" x="81.5616" y="33.984" style="fill-opacity: 0; stroke: #000000; stroke-width: 1.1"/>
      </g>
     </g>
    </g>
    <g id="text_12">
     <!-- Accuracy -->
     <g style="fill: #1f77b4" transform="translate(34.385662 158.967375) rotate(-90) scale(0.14 -0.14)">
      <defs>
       <path id="DejaVuSans-41" d="M 2188 4044 
L 1331 1722 
L 3047 1722 
L 2188 4044 
z
M 1831 4666 
L 2547 4666 
L 4325 0 
L 3669 0 
L 3244 1197 
L 1141 1197 
L 716 0 
L 50 0 
L 1831 4666 
z
" transform="scale(0.015625)"/>
       <path id="DejaVuSans-63" d="M 3122 3366 
L 3122 2828 
Q 2878 2963 2633 3030 
Q 2388 3097 2138 3097 
Q 1578 3097 1268 2742 
Q 959 2388 959 1747 
Q 959 1106 1268 751 
Q 1578 397 2138 397 
Q 2388 397 2633 464 
Q 2878 531 3122 666 
L 3122 134 
Q 2881 22 2623 -34 
Q 2366 -91 2075 -91 
Q 1284 -91 818 406 
Q 353 903 353 1747 
Q 353 2603 823 3093 
Q 1294 3584 2113 3584 
Q 2378 3584 2631 3529 
Q 2884 3475 3122 3366 
z
" transform="scale(0.015625)"/>
       <path id="DejaVuSans-75" d="M 544 1381 
L 544 3500 
L 1119 3500 
L 1119 1403 
Q 1119 906 1312 657 
Q 1506 409 1894 409 
Q 2359 409 2629 706 
Q 2900 1003 2900 1516 
L 2900 3500 
L 3475 3500 
L 3475 0 
L 2900 0 
L 2900 538 
Q 2691 219 2414 64 
Q 2138 -91 1772 -91 
Q 1169 -91 856 284 
Q 544 659 544 1381 
z
M 1991 3584 
L 1991 3584 
z
" transform="scale(0.015625)"/>
       <path id="DejaVuSans-79" d="M 2059 -325 
Q 1816 -950 1584 -1140 
Q 1353 -1331 966 -1331 
L 506 -1331 
L 506 -850 
L 844 -850 
Q 1081 -850 1212 -737 
Q 1344 -625 1503 -206 
L 1606 56 
L 191 3500 
L 800 3500 
L 1894 763 
L 2988 3500 
L 3597 3500 
L 2059 -325 
z
" transform="scale(0.015625)"/>
      </defs>
      <use xlink:href="#DejaVuSans-41"/>
      <use xlink:href="#DejaVuSans-63" x="66.658203"/>
      <use xlink:href="#DejaVuSans-63" x="121.638672"/>
      <use xlink:href="#DejaVuSans-75" x="176.619141"/>
      <use xlink:href="#DejaVuSans-72" x="239.998047"/>
      <use xlink:href="#DejaVuSans-61" x="281.111328"/>
      <use xlink:href="#DejaVuSans-63" x="342.390625"/>
      <use xlink:href="#DejaVuSans-79" x="397.371094"/>
     </g>
    </g>
   </g>
   <g id="line2d_44">
    <defs>
     <path id="m1a5a9f1d0d" d="M 0 1.5 
C 0.397805 1.5 0.77937 1.341951 1.06066 1.06066 
C 1.341951 0.77937 1.5 0.397805 1.5 0 
C 1.5 -0.397805 1.341951 -0.77937 1.06066 -1.06066 
C 0.77937 -1.341951 0.397805 -1.5 0 -1.5 
C -0.397805 -1.5 -0.77937 -1.341951 -1.06066 -1.06066 
C -1.341951 -0.77937 -1.5 -0.397805 -1.5 0 
C -1.5 0.397805 -1.341951 0.77937 -1.06066 1.06066 
C -0.77937 1.341951 -0.397805 1.5 0 1.5 
z
" style="stroke: #1f77b4; stroke-width: 0.8"/>
    </defs>
    <g clip-path="url(#pf6df79215c)">
     <use xlink:href="#m1a5a9f1d0d" x="81.5616" y="23.855502" style="fill-opacity: 0; stroke: #1f77b4; stroke-width: 0.8"/>
     <use xlink:href="#m1a5a9f1d0d" x="102.447894" y="24.352846" style="fill-opacity: 0; stroke: #1f77b4; stroke-width: 0.8"/>
     <use xlink:href="#m1a5a9f1d0d" x="123.255106" y="24.945819" style="fill-opacity: 0; stroke: #1f77b4; stroke-width: 0.8"/>
     <use xlink:href="#m1a5a9f1d0d" x="144.1414" y="23.199875" style="fill-opacity: 0; stroke: #1f77b4; stroke-width: 0.8"/>
     <use xlink:href="#m1a5a9f1d0d" x="164.948612" y="24.12693" style="fill-opacity: 0; stroke: #1f77b4; stroke-width: 0.8"/>
     <use xlink:href="#m1a5a9f1d0d" x="185.834937" y="23.484101" style="fill-opacity: 0; stroke: #1f77b4; stroke-width: 0.8"/>
     <use xlink:href="#m1a5a9f1d0d" x="206.642118" y="24.168274" style="fill-opacity: 0; stroke: #1f77b4; stroke-width: 0.8"/>
     <use xlink:href="#m1a5a9f1d0d" x="227.528443" y="27.334304" style="fill-opacity: 0; stroke: #1f77b4; stroke-width: 0.8"/>
     <use xlink:href="#m1a5a9f1d0d" x="248.335624" y="34.24101" style="fill-opacity: 0; stroke: #1f77b4; stroke-width: 0.8"/>
     <use xlink:href="#m1a5a9f1d0d" x="269.142837" y="42.724145" style="fill-opacity: 0; stroke: #1f77b4; stroke-width: 0.8"/>
     <use xlink:href="#m1a5a9f1d0d" x="290.029161" y="51.31614" style="fill-opacity: 0; stroke: #1f77b4; stroke-width: 0.8"/>
     <use xlink:href="#m1a5a9f1d0d" x="310.836343" y="117.024582" style="fill-opacity: 0; stroke: #1f77b4; stroke-width: 0.8"/>
     <use xlink:href="#m1a5a9f1d0d" x="331.722667" y="185.001154" style="fill-opacity: 0; stroke: #1f77b4; stroke-width: 0.8"/>
     <use xlink:href="#m1a5a9f1d0d" x="352.529849" y="226.649906" style="fill-opacity: 0; stroke: #1f77b4; stroke-width: 0.8"/>
     <use xlink:href="#m1a5a9f1d0d" x="373.416235" y="237.893158" style="fill-opacity: 0; stroke: #1f77b4; stroke-width: 0.8"/>
     <use xlink:href="#m1a5a9f1d0d" x="394.223355" y="239.010401" style="fill-opacity: 0; stroke: #1f77b4; stroke-width: 0.8"/>
     <use xlink:href="#m1a5a9f1d0d" x="415.10968" y="239.795851" style="fill-opacity: 0; stroke: #1f77b4; stroke-width: 0.8"/>
     <use xlink:href="#m1a5a9f1d0d" x="435.9168" y="240.816683" style="fill-opacity: 0; stroke: #1f77b4; stroke-width: 0.8"/>
    </g>
   </g>
   <g id="line2d_45">
    <path d="M 81.5616 23.855502 
L 85.140945 23.940733 
L 88.720291 24.025964 
L 92.299636 24.111196 
L 95.878982 24.196427 
L 99.458327 24.281658 
L 103.037673 24.369654 
L 106.617018 24.471659 
L 110.196364 24.573665 
L 113.775709 24.675671 
L 117.355055 24.777677 
L 120.9344 24.879683 
L 124.513745 24.840606 
L 128.093091 24.541399 
L 131.672436 24.242191 
L 135.251782 23.942983 
L 138.831127 23.643776 
L 142.410473 23.344568 
L 145.989818 23.28223 
L 149.569164 23.441706 
L 153.148509 23.601182 
L 156.727855 23.760658 
L 160.3072 23.920134 
L 163.886545 24.07961 
L 167.465891 24.049455 
L 171.045236 23.939291 
L 174.624582 23.829128 
L 178.203927 23.718964 
L 181.783273 23.608801 
L 185.362618 23.498637 
L 188.941964 23.586265 
L 192.521309 23.703959 
L 196.100655 23.821654 
L 199.68 23.939349 
L 203.259345 24.057043 
L 206.838691 24.198072 
L 210.418036 24.740643 
L 213.997382 25.283213 
L 217.576727 25.825784 
L 221.156073 26.368355 
L 224.735418 26.910926 
L 228.314764 27.595314 
L 231.894109 28.783437 
L 235.473455 29.97156 
L 239.0528 31.159683 
L 242.632145 32.347805 
L 246.211491 33.535928 
L 249.790836 34.834302 
L 253.370182 36.293607 
L 256.949527 37.752913 
L 260.528873 39.212218 
L 264.108218 40.671523 
L 267.687564 42.130828 
L 271.266909 43.597923 
L 274.846255 45.070357 
L 278.4256 46.54279 
L 282.004945 48.015223 
L 285.584291 49.487656 
L 289.163636 50.96009 
L 292.742982 59.886303 
L 296.322327 71.189766 
L 299.901673 82.493229 
L 303.481018 93.796692 
L 307.060364 105.100156 
L 310.639709 116.403619 
L 314.219055 128.033946 
L 317.7984 139.683273 
L 321.377745 151.332601 
L 324.957091 162.981928 
L 328.536436 174.631256 
L 332.115782 185.788032 
L 335.695127 192.952639 
L 339.274473 200.117246 
L 342.853818 207.281853 
L 346.433164 214.446459 
L 350.012509 221.611066 
L 353.591855 227.221589 
L 357.1712 229.14837 
L 360.750545 231.075151 
L 364.329891 233.001931 
L 367.909236 234.928712 
L 371.488582 236.855492 
L 375.067927 237.981846 
L 378.647273 238.17404 
L 382.226618 238.366234 
L 385.805964 238.558428 
L 389.385309 238.750621 
L 392.964655 238.942815 
L 396.544 239.097671 
L 400.123345 239.232276 
L 403.702691 239.36688 
L 407.282036 239.501485 
L 410.861382 239.63609 
L 414.440727 239.770694 
L 418.020073 239.938639 
L 421.599418 240.114248 
L 425.178764 240.289857 
L 428.758109 240.465465 
L 432.337455 240.641074 
L 435.9168 240.816683 
" clip-path="url(#pf6df79215c)" style="fill: none; stroke: #1f77b4; stroke-width: 2; stroke-linecap: square"/>
   </g>
   <g id="patch_3">
    <path d="M 81.5616 241.92 
L 81.5616 12.096 
" style="fill: none; stroke: #000000; stroke-width: 1.1; stroke-linejoin: miter; stroke-linecap: square"/>
   </g>
   <g id="patch_4">
    <path d="M 435.9168 241.92 
L 435.9168 12.096 
" style="fill: none; stroke: #000000; stroke-width: 1.1; stroke-linejoin: miter; stroke-linecap: square"/>
   </g>
   <g id="patch_5">
    <path d="M 81.5616 241.92 
L 435.9168 241.92 
" style="fill: none; stroke: #000000; stroke-width: 1.1; stroke-linejoin: miter; stroke-linecap: square"/>
   </g>
   <g id="patch_6">
    <path d="M 81.5616 12.096 
L 435.9168 12.096 
" style="fill: none; stroke: #000000; stroke-width: 1.1; stroke-linejoin: miter; stroke-linecap: square"/>
   </g>
  </g>
  <g id="axes_2">
   <g id="matplotlib.axis_3">
    <g id="ytick_22">
     <g id="line2d_46">
      <path d="M 81.5616 208.28722 
L 435.9168 208.28722 
" clip-path="url(#pf6df79215c)" style="fill: none; stroke: #b0b0b0; stroke-opacity: 0.6; stroke-width: 0.8; stroke-linecap: square"/>
     </g>
     <g id="line2d_47">
      <g>
       <use xlink:href="#m4d16d5b36d" x="435.9168" y="208.28722" style="fill-opacity: 0; stroke: #000000; stroke-width: 1.1"/>
      </g>
     </g>
     <g id="text_13">
      <!-- 5000 -->
      <g transform="translate(440.9168 213.606126) scale(0.14 -0.14)">
       <use xlink:href="#DejaVuSans-35"/>
       <use xlink:href="#DejaVuSans-30" x="63.623047"/>
       <use xlink:href="#DejaVuSans-30" x="127.246094"/>
       <use xlink:href="#DejaVuSans-30" x="190.869141"/>
      </g>
     </g>
    </g>
    <g id="ytick_23">
     <g id="line2d_48">
      <path d="M 81.5616 152.232585 
L 435.9168 152.232585 
" clip-path="url(#pf6df79215c)" style="fill: none; stroke: #b0b0b0; stroke-opacity: 0.6; stroke-width: 0.8; stroke-linecap: square"/>
     </g>
     <g id="line2d_49">
      <g>
       <use xlink:href="#m4d16d5b36d" x="435.9168" y="152.232585" style="fill-opacity: 0; stroke: #000000; stroke-width: 1.1"/>
      </g>
     </g>
     <g id="text_14">
      <!-- 10000 -->
      <g transform="translate(440.9168 157.551492) scale(0.14 -0.14)">
       <use xlink:href="#DejaVuSans-31"/>
       <use xlink:href="#DejaVuSans-30" x="63.623047"/>
       <use xlink:href="#DejaVuSans-30" x="127.246094"/>
       <use xlink:href="#DejaVuSans-30" x="190.869141"/>
       <use xlink:href="#DejaVuSans-30" x="254.492188"/>
      </g>
     </g>
    </g>
    <g id="ytick_24">
     <g id="line2d_50">
      <path d="M 81.5616 96.177951 
L 435.9168 96.177951 
" clip-path="url(#pf6df79215c)" style="fill: none; stroke: #b0b0b0; stroke-opacity: 0.6; stroke-width: 0.8; stroke-linecap: square"/>
     </g>
     <g id="line2d_51">
      <g>
       <use xlink:href="#m4d16d5b36d" x="435.9168" y="96.177951" style="fill-opacity: 0; stroke: #000000; stroke-width: 1.1"/>
      </g>
     </g>
     <g id="text_15">
      <!-- 15000 -->
      <g transform="translate(440.9168 101.496857) scale(0.14 -0.14)">
       <use xlink:href="#DejaVuSans-31"/>
       <use xlink:href="#DejaVuSans-35" x="63.623047"/>
       <use xlink:href="#DejaVuSans-30" x="127.246094"/>
       <use xlink:href="#DejaVuSans-30" x="190.869141"/>
       <use xlink:href="#DejaVuSans-30" x="254.492188"/>
      </g>
     </g>
    </g>
    <g id="ytick_25">
     <g id="line2d_52">
      <path d="M 81.5616 40.123317 
L 435.9168 40.123317 
" clip-path="url(#pf6df79215c)" style="fill: none; stroke: #b0b0b0; stroke-opacity: 0.6; stroke-width: 0.8; stroke-linecap: square"/>
     </g>
     <g id="line2d_53">
      <g>
       <use xlink:href="#m4d16d5b36d" x="435.9168" y="40.123317" style="fill-opacity: 0; stroke: #000000; stroke-width: 1.1"/>
      </g>
     </g>
     <g id="text_16">
      <!-- 20000 -->
      <g transform="translate(440.9168 45.442223) scale(0.14 -0.14)">
       <use xlink:href="#DejaVuSans-32"/>
       <use xlink:href="#DejaVuSans-30" x="63.623047"/>
       <use xlink:href="#DejaVuSans-30" x="127.246094"/>
       <use xlink:href="#DejaVuSans-30" x="190.869141"/>
       <use xlink:href="#DejaVuSans-30" x="254.492188"/>
      </g>
     </g>
    </g>
    <g id="ytick_26">
     <g id="line2d_54">
      <g>
       <use xlink:href="#md293cafe78" x="435.9168" y="230.709073" style="fill-opacity: 0; stroke: #000000; stroke-width: 1.1"/>
      </g>
     </g>
    </g>
    <g id="ytick_27">
     <g id="line2d_55">
      <g>
       <use xlink:href="#md293cafe78" x="435.9168" y="219.498146" style="fill-opacity: 0; stroke: #000000; stroke-width: 1.1"/>
      </g>
     </g>
    </g>
    <g id="ytick_28">
     <g id="line2d_56">
      <g>
       <use xlink:href="#md293cafe78" x="435.9168" y="197.076293" style="fill-opacity: 0; stroke: #000000; stroke-width: 1.1"/>
      </g>
     </g>
    </g>
    <g id="ytick_29">
     <g id="line2d_57">
      <g>
       <use xlink:href="#md293cafe78" x="435.9168" y="185.865366" style="fill-opacity: 0; stroke: #000000; stroke-width: 1.1"/>
      </g>
     </g>
    </g>
    <g id="ytick_30">
     <g id="line2d_58">
      <g>
       <use xlink:href="#md293cafe78" x="435.9168" y="174.654439" style="fill-opacity: 0; stroke: #000000; stroke-width: 1.1"/>
      </g>
     </g>
    </g>
    <g id="ytick_31">
     <g id="line2d_59">
      <g>
       <use xlink:href="#md293cafe78" x="435.9168" y="163.443512" style="fill-opacity: 0; stroke: #000000; stroke-width: 1.1"/>
      </g>
     </g>
    </g>
    <g id="ytick_32">
     <g id="line2d_60">
      <g>
       <use xlink:href="#md293cafe78" x="435.9168" y="141.021659" style="fill-opacity: 0; stroke: #000000; stroke-width: 1.1"/>
      </g>
     </g>
    </g>
    <g id="ytick_33">
     <g id="line2d_61">
      <g>
       <use xlink:href="#md293cafe78" x="435.9168" y="129.810732" style="fill-opacity: 0; stroke: #000000; stroke-width: 1.1"/>
      </g>
     </g>
    </g>
    <g id="ytick_34">
     <g id="line2d_62">
      <g>
       <use xlink:href="#md293cafe78" x="435.9168" y="118.599805" style="fill-opacity: 0; stroke: #000000; stroke-width: 1.1"/>
      </g>
     </g>
    </g>
    <g id="ytick_35">
     <g id="line2d_63">
      <g>
       <use xlink:href="#md293cafe78" x="435.9168" y="107.388878" style="fill-opacity: 0; stroke: #000000; stroke-width: 1.1"/>
      </g>
     </g>
    </g>
    <g id="ytick_36">
     <g id="line2d_64">
      <g>
       <use xlink:href="#md293cafe78" x="435.9168" y="84.967024" style="fill-opacity: 0; stroke: #000000; stroke-width: 1.1"/>
      </g>
     </g>
    </g>
    <g id="ytick_37">
     <g id="line2d_65">
      <g>
       <use xlink:href="#md293cafe78" x="435.9168" y="73.756098" style="fill-opacity: 0; stroke: #000000; stroke-width: 1.1"/>
      </g>
     </g>
    </g>
    <g id="ytick_38">
     <g id="line2d_66">
      <g>
       <use xlink:href="#md293cafe78" x="435.9168" y="62.545171" style="fill-opacity: 0; stroke: #000000; stroke-width: 1.1"/>
      </g>
     </g>
    </g>
    <g id="ytick_39">
     <g id="line2d_67">
      <g>
       <use xlink:href="#md293cafe78" x="435.9168" y="51.334244" style="fill-opacity: 0; stroke: #000000; stroke-width: 1.1"/>
      </g>
     </g>
    </g>
    <g id="ytick_40">
     <g id="line2d_68">
      <g>
       <use xlink:href="#md293cafe78" x="435.9168" y="28.91239" style="fill-opacity: 0; stroke: #000000; stroke-width: 1.1"/>
      </g>
     </g>
    </g>
    <g id="ytick_41">
     <g id="line2d_69">
      <g>
       <use xlink:href="#md293cafe78" x="435.9168" y="17.701463" style="fill-opacity: 0; stroke: #000000; stroke-width: 1.1"/>
      </g>
     </g>
    </g>
    <g id="text_17">
     <!-- Number of iterations -->
     <g style="fill: #ff7f0e" transform="translate(506.092112 199.543312) rotate(-90) scale(0.14 -0.14)">
      <defs>
       <path id="DejaVuSans-4e" d="M 628 4666 
L 1478 4666 
L 3547 763 
L 3547 4666 
L 4159 4666 
L 4159 0 
L 3309 0 
L 1241 3903 
L 1241 0 
L 628 0 
L 628 4666 
z
" transform="scale(0.015625)"/>
       <path id="DejaVuSans-6d" d="M 3328 2828 
Q 3544 3216 3844 3400 
Q 4144 3584 4550 3584 
Q 5097 3584 5394 3201 
Q 5691 2819 5691 2113 
L 5691 0 
L 5113 0 
L 5113 2094 
Q 5113 2597 4934 2840 
Q 4756 3084 4391 3084 
Q 3944 3084 3684 2787 
Q 3425 2491 3425 1978 
L 3425 0 
L 2847 0 
L 2847 2094 
Q 2847 2600 2669 2842 
Q 2491 3084 2119 3084 
Q 1678 3084 1418 2786 
Q 1159 2488 1159 1978 
L 1159 0 
L 581 0 
L 581 3500 
L 1159 3500 
L 1159 2956 
Q 1356 3278 1631 3431 
Q 1906 3584 2284 3584 
Q 2666 3584 2933 3390 
Q 3200 3197 3328 2828 
z
" transform="scale(0.015625)"/>
       <path id="DejaVuSans-62" d="M 3116 1747 
Q 3116 2381 2855 2742 
Q 2594 3103 2138 3103 
Q 1681 3103 1420 2742 
Q 1159 2381 1159 1747 
Q 1159 1113 1420 752 
Q 1681 391 2138 391 
Q 2594 391 2855 752 
Q 3116 1113 3116 1747 
z
M 1159 2969 
Q 1341 3281 1617 3432 
Q 1894 3584 2278 3584 
Q 2916 3584 3314 3078 
Q 3713 2572 3713 1747 
Q 3713 922 3314 415 
Q 2916 -91 2278 -91 
Q 1894 -91 1617 61 
Q 1341 213 1159 525 
L 1159 0 
L 581 0 
L 581 4863 
L 1159 4863 
L 1159 2969 
z
" transform="scale(0.015625)"/>
       <path id="DejaVuSans-66" d="M 2375 4863 
L 2375 4384 
L 1825 4384 
Q 1516 4384 1395 4259 
Q 1275 4134 1275 3809 
L 1275 3500 
L 2222 3500 
L 2222 3053 
L 1275 3053 
L 1275 0 
L 697 0 
L 697 3053 
L 147 3053 
L 147 3500 
L 697 3500 
L 697 3744 
Q 697 4328 969 4595 
Q 1241 4863 1831 4863 
L 2375 4863 
z
" transform="scale(0.015625)"/>
      </defs>
      <use xlink:href="#DejaVuSans-4e"/>
      <use xlink:href="#DejaVuSans-75" x="74.804688"/>
      <use xlink:href="#DejaVuSans-6d" x="138.183594"/>
      <use xlink:href="#DejaVuSans-62" x="235.595703"/>
      <use xlink:href="#DejaVuSans-65" x="299.072266"/>
      <use xlink:href="#DejaVuSans-72" x="360.595703"/>
      <use xlink:href="#DejaVuSans-20" x="401.708984"/>
      <use xlink:href="#DejaVuSans-6f" x="433.496094"/>
      <use xlink:href="#DejaVuSans-66" x="494.677734"/>
      <use xlink:href="#DejaVuSans-20" x="529.882812"/>
      <use xlink:href="#DejaVuSans-69" x="561.669922"/>
      <use xlink:href="#DejaVuSans-74" x="589.453125"/>
      <use xlink:href="#DejaVuSans-65" x="628.662109"/>
      <use xlink:href="#DejaVuSans-72" x="690.185547"/>
      <use xlink:href="#DejaVuSans-61" x="731.298828"/>
      <use xlink:href="#DejaVuSans-74" x="792.578125"/>
      <use xlink:href="#DejaVuSans-69" x="831.787109"/>
      <use xlink:href="#DejaVuSans-6f" x="859.570312"/>
      <use xlink:href="#DejaVuSans-6e" x="920.751953"/>
      <use xlink:href="#DejaVuSans-73" x="984.130859"/>
     </g>
    </g>
   </g>
   <g id="line2d_70">
    <defs>
     <path id="m46781d2e79" d="M 0 1.5 
C 0.397805 1.5 0.77937 1.341951 1.06066 1.06066 
C 1.341951 0.77937 1.5 0.397805 1.5 0 
C 1.5 -0.397805 1.341951 -0.77937 1.06066 -1.06066 
C 0.77937 -1.341951 0.397805 -1.5 0 -1.5 
C -0.397805 -1.5 -0.77937 -1.341951 -1.06066 -1.06066 
C -1.341951 -0.77937 -1.5 -0.397805 -1.5 0 
C -1.5 0.397805 -1.341951 0.77937 -1.06066 1.06066 
C -0.77937 1.341951 -0.397805 1.5 0 1.5 
z
" style="stroke: #ff7f0e; stroke-width: 0.8"/>
    </defs>
    <g clip-path="url(#pf6df79215c)">
     <use xlink:href="#m46781d2e79" x="81.5616" y="230.730273" style="fill-opacity: 0; stroke: #ff7f0e; stroke-width: 0.8"/>
     <use xlink:href="#m46781d2e79" x="102.447894" y="229.233065" style="fill-opacity: 0; stroke: #ff7f0e; stroke-width: 0.8"/>
     <use xlink:href="#m46781d2e79" x="123.255106" y="228.73984" style="fill-opacity: 0; stroke: #ff7f0e; stroke-width: 0.8"/>
     <use xlink:href="#m46781d2e79" x="144.1414" y="231.110323" style="fill-opacity: 0; stroke: #ff7f0e; stroke-width: 0.8"/>
     <use xlink:href="#m46781d2e79" x="164.948612" y="229.794867" style="fill-opacity: 0; stroke: #ff7f0e; stroke-width: 0.8"/>
     <use xlink:href="#m46781d2e79" x="185.834937" y="228.211525" style="fill-opacity: 0; stroke: #ff7f0e; stroke-width: 0.8"/>
     <use xlink:href="#m46781d2e79" x="206.642118" y="226.532655" style="fill-opacity: 0; stroke: #ff7f0e; stroke-width: 0.8"/>
     <use xlink:href="#m46781d2e79" x="227.528443" y="219.015437" style="fill-opacity: 0; stroke: #ff7f0e; stroke-width: 0.8"/>
     <use xlink:href="#m46781d2e79" x="248.335624" y="206.75269" style="fill-opacity: 0; stroke: #ff7f0e; stroke-width: 0.8"/>
     <use xlink:href="#m46781d2e79" x="269.142837" y="191.299739" style="fill-opacity: 0; stroke: #ff7f0e; stroke-width: 0.8"/>
     <use xlink:href="#m46781d2e79" x="290.029161" y="169.479868" style="fill-opacity: 0; stroke: #ff7f0e; stroke-width: 0.8"/>
     <use xlink:href="#m46781d2e79" x="310.836343" y="117.93836" style="fill-opacity: 0; stroke: #ff7f0e; stroke-width: 0.8"/>
     <use xlink:href="#m46781d2e79" x="331.722667" y="74.913626" style="fill-opacity: 0; stroke: #ff7f0e; stroke-width: 0.8"/>
     <use xlink:href="#m46781d2e79" x="352.529849" y="36.31205" style="fill-opacity: 0; stroke: #ff7f0e; stroke-width: 0.8"/>
     <use xlink:href="#m46781d2e79" x="373.416235" y="23.690228" style="fill-opacity: 0; stroke: #ff7f0e; stroke-width: 0.8"/>
     <use xlink:href="#m46781d2e79" x="394.223355" y="21.32988" style="fill-opacity: 0; stroke: #ff7f0e; stroke-width: 0.8"/>
     <use xlink:href="#m46781d2e79" x="415.10968" y="20.639735" style="fill-opacity: 0; stroke: #ff7f0e; stroke-width: 0.8"/>
     <use xlink:href="#m46781d2e79" x="435.9168" y="19.457431" style="fill-opacity: 0; stroke: #ff7f0e; stroke-width: 0.8"/>
    </g>
   </g>
   <g id="line2d_71">
    <path d="M 81.5616 230.730273 
L 85.140945 230.473692 
L 88.720291 230.217111 
L 92.299636 229.96053 
L 95.878982 229.703949 
L 99.458327 229.447368 
L 103.037673 229.219085 
L 106.617018 229.134238 
L 110.196364 229.049391 
L 113.775709 228.964545 
L 117.355055 228.879698 
L 120.9344 228.794851 
L 124.513745 228.882689 
L 128.093091 229.288926 
L 131.672436 229.695162 
L 135.251782 230.101399 
L 138.831127 230.507636 
L 142.410473 230.913872 
L 145.989818 230.993464 
L 149.569164 230.767174 
L 153.148509 230.540883 
L 156.727855 230.314593 
L 160.3072 230.088302 
L 163.886545 229.862012 
L 167.465891 229.604038 
L 171.045236 229.332697 
L 174.624582 229.061355 
L 178.203927 228.790014 
L 181.783273 228.518672 
L 185.362618 228.247331 
L 188.941964 227.960829 
L 192.521309 227.672022 
L 196.100655 227.383215 
L 199.68 227.094408 
L 203.259345 226.805601 
L 206.838691 226.461907 
L 210.418036 225.173661 
L 213.997382 223.885415 
L 217.576727 222.597169 
L 221.156073 221.308924 
L 224.735418 220.020678 
L 228.314764 218.552018 
L 231.894109 216.442525 
L 235.473455 214.333032 
L 239.0528 212.223538 
L 242.632145 210.114045 
L 246.211491 208.004552 
L 249.790836 205.671944 
L 253.370182 203.013661 
L 256.949527 200.355379 
L 260.528873 197.697096 
L 264.108218 195.038814 
L 267.687564 192.380531 
L 271.266909 189.080728 
L 274.846255 185.341398 
L 278.4256 181.602068 
L 282.004945 177.862738 
L 285.584291 174.123408 
L 289.163636 170.384078 
L 292.742982 162.757458 
L 296.322327 153.891054 
L 299.901673 145.024651 
L 303.481018 136.158248 
L 307.060364 127.291845 
L 310.639709 118.425442 
L 314.219055 110.970151 
L 317.7984 103.596887 
L 321.377745 96.223623 
L 324.957091 88.850359 
L 328.536436 81.477095 
L 332.115782 74.184318 
L 335.695127 67.5439 
L 339.274473 60.903483 
L 342.853818 54.263065 
L 346.433164 47.622648 
L 350.012509 40.98223 
L 353.591855 35.670271 
L 357.1712 33.507242 
L 360.750545 31.344213 
L 364.329891 29.181184 
L 367.909236 27.018155 
L 371.488582 24.855126 
L 375.067927 23.502861 
L 378.647273 23.096822 
L 382.226618 22.690783 
L 385.805964 22.284744 
L 389.385309 21.878705 
L 392.964655 21.472666 
L 396.544 21.253199 
L 400.123345 21.134927 
L 403.702691 21.016655 
L 407.282036 20.898383 
L 410.861382 20.780111 
L 414.440727 20.661839 
L 418.020073 20.474361 
L 421.599418 20.270975 
L 425.178764 20.067589 
L 428.758109 19.864203 
L 432.337455 19.660817 
L 435.9168 19.457431 
" clip-path="url(#pf6df79215c)" style="fill: none; stroke: #ff7f0e; stroke-width: 2; stroke-linecap: square"/>
   </g>
   <g id="line2d_72">
    <path d="M 123.255106 241.92 
L 123.255106 12.096 
" clip-path="url(#pf6df79215c)" style="fill: none; stroke-dasharray: 5.55,2.4; stroke-dashoffset: 0; stroke: #008000; stroke-width: 1.5"/>
   </g>
   <g id="patch_7">
    <path d="M 81.5616 241.92 
L 81.5616 12.096 
" style="fill: none; stroke: #000000; stroke-width: 1.1; stroke-linejoin: miter; stroke-linecap: square"/>
   </g>
   <g id="patch_8">
    <path d="M 435.9168 241.92 
L 435.9168 12.096 
" style="fill: none; stroke: #000000; stroke-width: 1.1; stroke-linejoin: miter; stroke-linecap: square"/>
   </g>
   <g id="patch_9">
    <path d="M 81.5616 241.92 
L 435.9168 241.92 
" style="fill: none; stroke: #000000; stroke-width: 1.1; stroke-linejoin: miter; stroke-linecap: square"/>
   </g>
   <g id="patch_10">
    <path d="M 81.5616 12.096 
L 435.9168 12.096 
" style="fill: none; stroke: #000000; stroke-width: 1.1; stroke-linejoin: miter; stroke-linecap: square"/>
   </g>
   <g id="legend_1">
    <g id="patch_11">
     <path d="M 183.044044 139.382687 
L 334.434356 139.382687 
Q 337.234356 139.382687 337.234356 136.582687 
L 337.234356 117.433312 
Q 337.234356 114.633312 334.434356 114.633312 
L 183.044044 114.633312 
Q 180.244044 114.633312 180.244044 117.433312 
L 180.244044 136.582687 
Q 180.244044 139.382687 183.044044 139.382687 
z
" style="fill: #ffffff; opacity: 0.8; stroke: #cccccc; stroke-linejoin: miter"/>
    </g>
    <g id="line2d_73">
     <path d="M 185.844044 125.971125 
L 199.844044 125.971125 
L 213.844044 125.971125 
" style="fill: none; stroke-dasharray: 5.55,2.4; stroke-dashoffset: 0; stroke: #008000; stroke-width: 1.5"/>
    </g>
    <g id="text_18">
     <!-- observed noise -->
     <g transform="translate(225.044044 130.871125) scale(0.14 -0.14)">
      <use xlink:href="#DejaVuSans-6f"/>
      <use xlink:href="#DejaVuSans-62" x="61.181641"/>
      <use xlink:href="#DejaVuSans-73" x="124.658203"/>
      <use xlink:href="#DejaVuSans-65" x="176.757812"/>
      <use xlink:href="#DejaVuSans-72" x="238.28125"/>
      <use xlink:href="#DejaVuSans-76" x="279.394531"/>
      <use xlink:href="#DejaVuSans-65" x="338.574219"/>
      <use xlink:href="#DejaVuSans-64" x="400.097656"/>
      <use xlink:href="#DejaVuSans-20" x="463.574219"/>
      <use xlink:href="#DejaVuSans-6e" x="495.361328"/>
      <use xlink:href="#DejaVuSans-6f" x="558.740234"/>
      <use xlink:href="#DejaVuSans-69" x="619.921875"/>
      <use xlink:href="#DejaVuSans-73" x="647.705078"/>
      <use xlink:href="#DejaVuSans-65" x="699.804688"/>
     </g>
    </g>
   </g>
  </g>
 </g>
 <defs>
  <clipPath id="pf6df79215c">
   <rect x="81.5616" y="12.096" width="354.3552" height="229.824"/>
  </clipPath>
 </defs>
</svg>
