<?xml version="1.0" encoding="utf-8" standalone="no"?>
<!DOCTYPE svg PUBLIC "-//W3C//DTD SVG 1.1//EN"
  "http://www.w3.org/Graphics/SVG/1.1/DTD/svg11.dtd">
<svg xmlns:xlink="http://www.w3.org/1999/xlink" width="460.8pt" height="345.6pt" viewBox="0 0 460.8 345.6" xmlns="http://www.w3.org/2000/svg" version="1.1">
 <metadata>
  <rdf:RDF xmlns:dc="http://purl.org/dc/elements/1.1/" xmlns:cc="http://creativecommons.org/ns#" xmlns:rdf="http://www.w3.org/1999/02/22-rdf-syntax-ns#">
   <cc:Work>
    <dc:type rdf:resource="http://purl.org/dc/dcmitype/StillImage"/>
    <dc:date>2022-12-01T15:23:36.217964</dc:date>
    <dc:format>image/svg+xml</dc:format>
    <dc:creator>
     <cc:Agent>
      <dc:title>Matplotlib v3.6.2, https://matplotlib.org/</dc:title>
     </cc:Agent>
    </dc:creator>
   </cc:Work>
  </rdf:RDF>
 </metadata>
 <defs>
  <style type="text/css">*{stroke-linejoin: round; stroke-linecap: butt}</style>
 </defs>
 <g id="figure_1">
  <g id="patch_1">
   <path d="M 0 345.6 
L 460.8 345.6 
L 460.8 0 
L 0 0 
z
" style="fill: #ffffff"/>
  </g>
  <g id="axes_1">
   <g id="patch_2">
    <path d="M 81.5616 241.92 
L 435.9168 241.92 
L 435.9168 12.096 
L 81.5616 12.096 
z
" style="fill: #ffffff"/>
   </g>
   <g id="matplotlib.axis_1">
    <g id="xtick_1">
     <g id="line2d_1">
      <path d="M 81.5616 241.92 
L 81.5616 12.096 
" clip-path="url(#pf64af0c7ab)" style="fill: none; stroke: #b0b0b0; stroke-opacity: 0.6; stroke-width: 0.8; stroke-linecap: square"/>
     </g>
     <g id="line2d_2">
      <defs>
       <path id="m8860927b7e" d="M 0 0 
L 0 -7 
" style="stroke: #000000; stroke-width: 1.1"/>
      </defs>
      <g>
       <use xlink:href="#m8860927b7e" x="81.5616" y="241.92" style="fill-opacity: 0; stroke: #000000; stroke-width: 1.1"/>
      </g>
     </g>
     <g id="text_1">
      <!-- 0.00 -->
      <g transform="translate(65.975662 257.557813) scale(0.14 -0.14)">
       <defs>
        <path id="DejaVuSans-30" d="M 2034 4250 
Q 1547 4250 1301 3770 
Q 1056 3291 1056 2328 
Q 1056 1369 1301 889 
Q 1547 409 2034 409 
Q 2525 409 2770 889 
Q 3016 1369 3016 2328 
Q 3016 3291 2770 3770 
Q 2525 4250 2034 4250 
z
M 2034 4750 
Q 2819 4750 3233 4129 
Q 3647 3509 3647 2328 
Q 3647 1150 3233 529 
Q 2819 -91 2034 -91 
Q 1250 -91 836 529 
Q 422 1150 422 2328 
Q 422 3509 836 4129 
Q 1250 4750 2034 4750 
z
" transform="scale(0.015625)"/>
        <path id="DejaVuSans-2e" d="M 684 794 
L 1344 794 
L 1344 0 
L 684 0 
L 684 794 
z
" transform="scale(0.015625)"/>
       </defs>
       <use xlink:href="#DejaVuSans-30"/>
       <use xlink:href="#DejaVuSans-2e" x="63.623047"/>
       <use xlink:href="#DejaVuSans-30" x="95.410156"/>
       <use xlink:href="#DejaVuSans-30" x="159.033203"/>
      </g>
     </g>
    </g>
    <g id="xtick_2">
     <g id="line2d_3">
      <path d="M 125.856 241.92 
L 125.856 12.096 
" clip-path="url(#pf64af0c7ab)" style="fill: none; stroke: #b0b0b0; stroke-opacity: 0.6; stroke-width: 0.8; stroke-linecap: square"/>
     </g>
     <g id="line2d_4">
      <g>
       <use xlink:href="#m8860927b7e" x="125.856" y="241.92" style="fill-opacity: 0; stroke: #000000; stroke-width: 1.1"/>
      </g>
     </g>
     <g id="text_2">
      <!-- 0.25 -->
      <g transform="translate(110.270062 257.557813) scale(0.14 -0.14)">
       <defs>
        <path id="DejaVuSans-32" d="M 1228 531 
L 3431 531 
L 3431 0 
L 469 0 
L 469 531 
Q 828 903 1448 1529 
Q 2069 2156 2228 2338 
Q 2531 2678 2651 2914 
Q 2772 3150 2772 3378 
Q 2772 3750 2511 3984 
Q 2250 4219 1831 4219 
Q 1534 4219 1204 4116 
Q 875 4013 500 3803 
L 500 4441 
Q 881 4594 1212 4672 
Q 1544 4750 1819 4750 
Q 2544 4750 2975 4387 
Q 3406 4025 3406 3419 
Q 3406 3131 3298 2873 
Q 3191 2616 2906 2266 
Q 2828 2175 2409 1742 
Q 1991 1309 1228 531 
z
" transform="scale(0.015625)"/>
        <path id="DejaVuSans-35" d="M 691 4666 
L 3169 4666 
L 3169 4134 
L 1269 4134 
L 1269 2991 
Q 1406 3038 1543 3061 
Q 1681 3084 1819 3084 
Q 2600 3084 3056 2656 
Q 3513 2228 3513 1497 
Q 3513 744 3044 326 
Q 2575 -91 1722 -91 
Q 1428 -91 1123 -41 
Q 819 9 494 109 
L 494 744 
Q 775 591 1075 516 
Q 1375 441 1709 441 
Q 2250 441 2565 725 
Q 2881 1009 2881 1497 
Q 2881 1984 2565 2268 
Q 2250 2553 1709 2553 
Q 1456 2553 1204 2497 
Q 953 2441 691 2322 
L 691 4666 
z
" transform="scale(0.015625)"/>
       </defs>
       <use xlink:href="#DejaVuSans-30"/>
       <use xlink:href="#DejaVuSans-2e" x="63.623047"/>
       <use xlink:href="#DejaVuSans-32" x="95.410156"/>
       <use xlink:href="#DejaVuSans-35" x="159.033203"/>
      </g>
     </g>
    </g>
    <g id="xtick_3">
     <g id="line2d_5">
      <path d="M 170.1504 241.92 
L 170.1504 12.096 
" clip-path="url(#pf64af0c7ab)" style="fill: none; stroke: #b0b0b0; stroke-opacity: 0.6; stroke-width: 0.8; stroke-linecap: square"/>
     </g>
     <g id="line2d_6">
      <g>
       <use xlink:href="#m8860927b7e" x="170.1504" y="241.92" style="fill-opacity: 0; stroke: #000000; stroke-width: 1.1"/>
      </g>
     </g>
     <g id="text_3">
      <!-- 0.50 -->
      <g transform="translate(154.564462 257.557813) scale(0.14 -0.14)">
       <use xlink:href="#DejaVuSans-30"/>
       <use xlink:href="#DejaVuSans-2e" x="63.623047"/>
       <use xlink:href="#DejaVuSans-35" x="95.410156"/>
       <use xlink:href="#DejaVuSans-30" x="159.033203"/>
      </g>
     </g>
    </g>
    <g id="xtick_4">
     <g id="line2d_7">
      <path d="M 214.4448 241.92 
L 214.4448 12.096 
" clip-path="url(#pf64af0c7ab)" style="fill: none; stroke: #b0b0b0; stroke-opacity: 0.6; stroke-width: 0.8; stroke-linecap: square"/>
     </g>
     <g id="line2d_8">
      <g>
       <use xlink:href="#m8860927b7e" x="214.4448" y="241.92" style="fill-opacity: 0; stroke: #000000; stroke-width: 1.1"/>
      </g>
     </g>
     <g id="text_4">
      <!-- 0.75 -->
      <g transform="translate(198.858862 257.557813) scale(0.14 -0.14)">
       <defs>
        <path id="DejaVuSans-37" d="M 525 4666 
L 3525 4666 
L 3525 4397 
L 1831 0 
L 1172 0 
L 2766 4134 
L 525 4134 
L 525 4666 
z
" transform="scale(0.015625)"/>
       </defs>
       <use xlink:href="#DejaVuSans-30"/>
       <use xlink:href="#DejaVuSans-2e" x="63.623047"/>
       <use xlink:href="#DejaVuSans-37" x="95.410156"/>
       <use xlink:href="#DejaVuSans-35" x="159.033203"/>
      </g>
     </g>
    </g>
    <g id="xtick_5">
     <g id="line2d_9">
      <path d="M 258.7392 241.92 
L 258.7392 12.096 
" clip-path="url(#pf64af0c7ab)" style="fill: none; stroke: #b0b0b0; stroke-opacity: 0.6; stroke-width: 0.8; stroke-linecap: square"/>
     </g>
     <g id="line2d_10">
      <g>
       <use xlink:href="#m8860927b7e" x="258.7392" y="241.92" style="fill-opacity: 0; stroke: #000000; stroke-width: 1.1"/>
      </g>
     </g>
     <g id="text_5">
      <!-- 1.00 -->
      <g transform="translate(243.153262 257.557813) scale(0.14 -0.14)">
       <defs>
        <path id="DejaVuSans-31" d="M 794 531 
L 1825 531 
L 1825 4091 
L 703 3866 
L 703 4441 
L 1819 4666 
L 2450 4666 
L 2450 531 
L 3481 531 
L 3481 0 
L 794 0 
L 794 531 
z
" transform="scale(0.015625)"/>
       </defs>
       <use xlink:href="#DejaVuSans-31"/>
       <use xlink:href="#DejaVuSans-2e" x="63.623047"/>
       <use xlink:href="#DejaVuSans-30" x="95.410156"/>
       <use xlink:href="#DejaVuSans-30" x="159.033203"/>
      </g>
     </g>
    </g>
    <g id="xtick_6">
     <g id="line2d_11">
      <path d="M 303.0336 241.92 
L 303.0336 12.096 
" clip-path="url(#pf64af0c7ab)" style="fill: none; stroke: #b0b0b0; stroke-opacity: 0.6; stroke-width: 0.8; stroke-linecap: square"/>
     </g>
     <g id="line2d_12">
      <g>
       <use xlink:href="#m8860927b7e" x="303.0336" y="241.92" style="fill-opacity: 0; stroke: #000000; stroke-width: 1.1"/>
      </g>
     </g>
     <g id="text_6">
      <!-- 1.25 -->
      <g transform="translate(287.447662 257.557813) scale(0.14 -0.14)">
       <use xlink:href="#DejaVuSans-31"/>
       <use xlink:href="#DejaVuSans-2e" x="63.623047"/>
       <use xlink:href="#DejaVuSans-32" x="95.410156"/>
       <use xlink:href="#DejaVuSans-35" x="159.033203"/>
      </g>
     </g>
    </g>
    <g id="xtick_7">
     <g id="line2d_13">
      <path d="M 347.328 241.92 
L 347.328 12.096 
" clip-path="url(#pf64af0c7ab)" style="fill: none; stroke: #b0b0b0; stroke-opacity: 0.6; stroke-width: 0.8; stroke-linecap: square"/>
     </g>
     <g id="line2d_14">
      <g>
       <use xlink:href="#m8860927b7e" x="347.328" y="241.92" style="fill-opacity: 0; stroke: #000000; stroke-width: 1.1"/>
      </g>
     </g>
     <g id="text_7">
      <!-- 1.50 -->
      <g transform="translate(331.742062 257.557813) scale(0.14 -0.14)">
       <use xlink:href="#DejaVuSans-31"/>
       <use xlink:href="#DejaVuSans-2e" x="63.623047"/>
       <use xlink:href="#DejaVuSans-35" x="95.410156"/>
       <use xlink:href="#DejaVuSans-30" x="159.033203"/>
      </g>
     </g>
    </g>
    <g id="xtick_8">
     <g id="line2d_15">
      <path d="M 391.6224 241.92 
L 391.6224 12.096 
" clip-path="url(#pf64af0c7ab)" style="fill: none; stroke: #b0b0b0; stroke-opacity: 0.6; stroke-width: 0.8; stroke-linecap: square"/>
     </g>
     <g id="line2d_16">
      <g>
       <use xlink:href="#m8860927b7e" x="391.6224" y="241.92" style="fill-opacity: 0; stroke: #000000; stroke-width: 1.1"/>
      </g>
     </g>
     <g id="text_8">
      <!-- 1.75 -->
      <g transform="translate(376.036462 257.557813) scale(0.14 -0.14)">
       <use xlink:href="#DejaVuSans-31"/>
       <use xlink:href="#DejaVuSans-2e" x="63.623047"/>
       <use xlink:href="#DejaVuSans-37" x="95.410156"/>
       <use xlink:href="#DejaVuSans-35" x="159.033203"/>
      </g>
     </g>
    </g>
    <g id="xtick_9">
     <g id="line2d_17">
      <path d="M 435.9168 241.92 
L 435.9168 12.096 
" clip-path="url(#pf64af0c7ab)" style="fill: none; stroke: #b0b0b0; stroke-opacity: 0.6; stroke-width: 0.8; stroke-linecap: square"/>
     </g>
     <g id="line2d_18">
      <g>
       <use xlink:href="#m8860927b7e" x="435.9168" y="241.92" style="fill-opacity: 0; stroke: #000000; stroke-width: 1.1"/>
      </g>
     </g>
     <g id="text_9">
      <!-- 2.00 -->
      <g transform="translate(420.330862 257.557813) scale(0.14 -0.14)">
       <use xlink:href="#DejaVuSans-32"/>
       <use xlink:href="#DejaVuSans-2e" x="63.623047"/>
       <use xlink:href="#DejaVuSans-30" x="95.410156"/>
       <use xlink:href="#DejaVuSans-30" x="159.033203"/>
      </g>
     </g>
    </g>
    <g id="xtick_10">
     <g id="line2d_19">
      <defs>
       <path id="m200c67f4dd" d="M 0 0 
L 0 -3.5 
" style="stroke: #000000; stroke-width: 1.1"/>
      </defs>
      <g>
       <use xlink:href="#m200c67f4dd" x="90.42048" y="241.92" style="fill-opacity: 0; stroke: #000000; stroke-width: 1.1"/>
      </g>
     </g>
    </g>
    <g id="xtick_11">
     <g id="line2d_20">
      <g>
       <use xlink:href="#m200c67f4dd" x="99.27936" y="241.92" style="fill-opacity: 0; stroke: #000000; stroke-width: 1.1"/>
      </g>
     </g>
    </g>
    <g id="xtick_12">
     <g id="line2d_21">
      <g>
       <use xlink:href="#m200c67f4dd" x="108.13824" y="241.92" style="fill-opacity: 0; stroke: #000000; stroke-width: 1.1"/>
      </g>
     </g>
    </g>
    <g id="xtick_13">
     <g id="line2d_22">
      <g>
       <use xlink:href="#m200c67f4dd" x="116.99712" y="241.92" style="fill-opacity: 0; stroke: #000000; stroke-width: 1.1"/>
      </g>
     </g>
    </g>
    <g id="xtick_14">
     <g id="line2d_23">
      <g>
       <use xlink:href="#m200c67f4dd" x="134.71488" y="241.92" style="fill-opacity: 0; stroke: #000000; stroke-width: 1.1"/>
      </g>
     </g>
    </g>
    <g id="xtick_15">
     <g id="line2d_24">
      <g>
       <use xlink:href="#m200c67f4dd" x="143.57376" y="241.92" style="fill-opacity: 0; stroke: #000000; stroke-width: 1.1"/>
      </g>
     </g>
    </g>
    <g id="xtick_16">
     <g id="line2d_25">
      <g>
       <use xlink:href="#m200c67f4dd" x="152.43264" y="241.92" style="fill-opacity: 0; stroke: #000000; stroke-width: 1.1"/>
      </g>
     </g>
    </g>
    <g id="xtick_17">
     <g id="line2d_26">
      <g>
       <use xlink:href="#m200c67f4dd" x="161.29152" y="241.92" style="fill-opacity: 0; stroke: #000000; stroke-width: 1.1"/>
      </g>
     </g>
    </g>
    <g id="xtick_18">
     <g id="line2d_27">
      <g>
       <use xlink:href="#m200c67f4dd" x="179.00928" y="241.92" style="fill-opacity: 0; stroke: #000000; stroke-width: 1.1"/>
      </g>
     </g>
    </g>
    <g id="xtick_19">
     <g id="line2d_28">
      <g>
       <use xlink:href="#m200c67f4dd" x="187.86816" y="241.92" style="fill-opacity: 0; stroke: #000000; stroke-width: 1.1"/>
      </g>
     </g>
    </g>
    <g id="xtick_20">
     <g id="line2d_29">
      <g>
       <use xlink:href="#m200c67f4dd" x="196.72704" y="241.92" style="fill-opacity: 0; stroke: #000000; stroke-width: 1.1"/>
      </g>
     </g>
    </g>
    <g id="xtick_21">
     <g id="line2d_30">
      <g>
       <use xlink:href="#m200c67f4dd" x="205.58592" y="241.92" style="fill-opacity: 0; stroke: #000000; stroke-width: 1.1"/>
      </g>
     </g>
    </g>
    <g id="xtick_22">
     <g id="line2d_31">
      <g>
       <use xlink:href="#m200c67f4dd" x="223.30368" y="241.92" style="fill-opacity: 0; stroke: #000000; stroke-width: 1.1"/>
      </g>
     </g>
    </g>
    <g id="xtick_23">
     <g id="line2d_32">
      <g>
       <use xlink:href="#m200c67f4dd" x="232.16256" y="241.92" style="fill-opacity: 0; stroke: #000000; stroke-width: 1.1"/>
      </g>
     </g>
    </g>
    <g id="xtick_24">
     <g id="line2d_33">
      <g>
       <use xlink:href="#m200c67f4dd" x="241.02144" y="241.92" style="fill-opacity: 0; stroke: #000000; stroke-width: 1.1"/>
      </g>
     </g>
    </g>
    <g id="xtick_25">
     <g id="line2d_34">
      <g>
       <use xlink:href="#m200c67f4dd" x="249.88032" y="241.92" style="fill-opacity: 0; stroke: #000000; stroke-width: 1.1"/>
      </g>
     </g>
    </g>
    <g id="xtick_26">
     <g id="line2d_35">
      <g>
       <use xlink:href="#m200c67f4dd" x="267.59808" y="241.92" style="fill-opacity: 0; stroke: #000000; stroke-width: 1.1"/>
      </g>
     </g>
    </g>
    <g id="xtick_27">
     <g id="line2d_36">
      <g>
       <use xlink:href="#m200c67f4dd" x="276.45696" y="241.92" style="fill-opacity: 0; stroke: #000000; stroke-width: 1.1"/>
      </g>
     </g>
    </g>
    <g id="xtick_28">
     <g id="line2d_37">
      <g>
       <use xlink:href="#m200c67f4dd" x="285.31584" y="241.92" style="fill-opacity: 0; stroke: #000000; stroke-width: 1.1"/>
      </g>
     </g>
    </g>
    <g id="xtick_29">
     <g id="line2d_38">
      <g>
       <use xlink:href="#m200c67f4dd" x="294.17472" y="241.92" style="fill-opacity: 0; stroke: #000000; stroke-width: 1.1"/>
      </g>
     </g>
    </g>
    <g id="xtick_30">
     <g id="line2d_39">
      <g>
       <use xlink:href="#m200c67f4dd" x="311.89248" y="241.92" style="fill-opacity: 0; stroke: #000000; stroke-width: 1.1"/>
      </g>
     </g>
    </g>
    <g id="xtick_31">
     <g id="line2d_40">
      <g>
       <use xlink:href="#m200c67f4dd" x="320.75136" y="241.92" style="fill-opacity: 0; stroke: #000000; stroke-width: 1.1"/>
      </g>
     </g>
    </g>
    <g id="xtick_32">
     <g id="line2d_41">
      <g>
       <use xlink:href="#m200c67f4dd" x="329.61024" y="241.92" style="fill-opacity: 0; stroke: #000000; stroke-width: 1.1"/>
      </g>
     </g>
    </g>
    <g id="xtick_33">
     <g id="line2d_42">
      <g>
       <use xlink:href="#m200c67f4dd" x="338.46912" y="241.92" style="fill-opacity: 0; stroke: #000000; stroke-width: 1.1"/>
      </g>
     </g>
    </g>
    <g id="xtick_34">
     <g id="line2d_43">
      <g>
       <use xlink:href="#m200c67f4dd" x="356.18688" y="241.92" style="fill-opacity: 0; stroke: #000000; stroke-width: 1.1"/>
      </g>
     </g>
    </g>
    <g id="xtick_35">
     <g id="line2d_44">
      <g>
       <use xlink:href="#m200c67f4dd" x="365.04576" y="241.92" style="fill-opacity: 0; stroke: #000000; stroke-width: 1.1"/>
      </g>
     </g>
    </g>
    <g id="xtick_36">
     <g id="line2d_45">
      <g>
       <use xlink:href="#m200c67f4dd" x="373.90464" y="241.92" style="fill-opacity: 0; stroke: #000000; stroke-width: 1.1"/>
      </g>
     </g>
    </g>
    <g id="xtick_37">
     <g id="line2d_46">
      <g>
       <use xlink:href="#m200c67f4dd" x="382.76352" y="241.92" style="fill-opacity: 0; stroke: #000000; stroke-width: 1.1"/>
      </g>
     </g>
    </g>
    <g id="xtick_38">
     <g id="line2d_47">
      <g>
       <use xlink:href="#m200c67f4dd" x="400.48128" y="241.92" style="fill-opacity: 0; stroke: #000000; stroke-width: 1.1"/>
      </g>
     </g>
    </g>
    <g id="xtick_39">
     <g id="line2d_48">
      <g>
       <use xlink:href="#m200c67f4dd" x="409.34016" y="241.92" style="fill-opacity: 0; stroke: #000000; stroke-width: 1.1"/>
      </g>
     </g>
    </g>
    <g id="xtick_40">
     <g id="line2d_49">
      <g>
       <use xlink:href="#m200c67f4dd" x="418.19904" y="241.92" style="fill-opacity: 0; stroke: #000000; stroke-width: 1.1"/>
      </g>
     </g>
    </g>
    <g id="xtick_41">
     <g id="line2d_50">
      <g>
       <use xlink:href="#m200c67f4dd" x="427.05792" y="241.92" style="fill-opacity: 0; stroke: #000000; stroke-width: 1.1"/>
      </g>
     </g>
    </g>
    <g id="text_10">
     <!-- total noise (standard deviation) -->
     <g transform="translate(148.39295 281.107188) scale(0.14 -0.14)">
      <defs>
       <path id="DejaVuSans-74" d="M 1172 4494 
L 1172 3500 
L 2356 3500 
L 2356 3053 
L 1172 3053 
L 1172 1153 
Q 1172 725 1289 603 
Q 1406 481 1766 481 
L 2356 481 
L 2356 0 
L 1766 0 
Q 1100 0 847 248 
Q 594 497 594 1153 
L 594 3053 
L 172 3053 
L 172 3500 
L 594 3500 
L 594 4494 
L 1172 4494 
z
" transform="scale(0.015625)"/>
       <path id="DejaVuSans-6f" d="M 1959 3097 
Q 1497 3097 1228 2736 
Q 959 2375 959 1747 
Q 959 1119 1226 758 
Q 1494 397 1959 397 
Q 2419 397 2687 759 
Q 2956 1122 2956 1747 
Q 2956 2369 2687 2733 
Q 2419 3097 1959 3097 
z
M 1959 3584 
Q 2709 3584 3137 3096 
Q 3566 2609 3566 1747 
Q 3566 888 3137 398 
Q 2709 -91 1959 -91 
Q 1206 -91 779 398 
Q 353 888 353 1747 
Q 353 2609 779 3096 
Q 1206 3584 1959 3584 
z
" transform="scale(0.015625)"/>
       <path id="DejaVuSans-61" d="M 2194 1759 
Q 1497 1759 1228 1600 
Q 959 1441 959 1056 
Q 959 750 1161 570 
Q 1363 391 1709 391 
Q 2188 391 2477 730 
Q 2766 1069 2766 1631 
L 2766 1759 
L 2194 1759 
z
M 3341 1997 
L 3341 0 
L 2766 0 
L 2766 531 
Q 2569 213 2275 61 
Q 1981 -91 1556 -91 
Q 1019 -91 701 211 
Q 384 513 384 1019 
Q 384 1609 779 1909 
Q 1175 2209 1959 2209 
L 2766 2209 
L 2766 2266 
Q 2766 2663 2505 2880 
Q 2244 3097 1772 3097 
Q 1472 3097 1187 3025 
Q 903 2953 641 2809 
L 641 3341 
Q 956 3463 1253 3523 
Q 1550 3584 1831 3584 
Q 2591 3584 2966 3190 
Q 3341 2797 3341 1997 
z
" transform="scale(0.015625)"/>
       <path id="DejaVuSans-6c" d="M 603 4863 
L 1178 4863 
L 1178 0 
L 603 0 
L 603 4863 
z
" transform="scale(0.015625)"/>
       <path id="DejaVuSans-20" transform="scale(0.015625)"/>
       <path id="DejaVuSans-6e" d="M 3513 2113 
L 3513 0 
L 2938 0 
L 2938 2094 
Q 2938 2591 2744 2837 
Q 2550 3084 2163 3084 
Q 1697 3084 1428 2787 
Q 1159 2491 1159 1978 
L 1159 0 
L 581 0 
L 581 3500 
L 1159 3500 
L 1159 2956 
Q 1366 3272 1645 3428 
Q 1925 3584 2291 3584 
Q 2894 3584 3203 3211 
Q 3513 2838 3513 2113 
z
" transform="scale(0.015625)"/>
       <path id="DejaVuSans-69" d="M 603 3500 
L 1178 3500 
L 1178 0 
L 603 0 
L 603 3500 
z
M 603 4863 
L 1178 4863 
L 1178 4134 
L 603 4134 
L 603 4863 
z
" transform="scale(0.015625)"/>
       <path id="DejaVuSans-73" d="M 2834 3397 
L 2834 2853 
Q 2591 2978 2328 3040 
Q 2066 3103 1784 3103 
Q 1356 3103 1142 2972 
Q 928 2841 928 2578 
Q 928 2378 1081 2264 
Q 1234 2150 1697 2047 
L 1894 2003 
Q 2506 1872 2764 1633 
Q 3022 1394 3022 966 
Q 3022 478 2636 193 
Q 2250 -91 1575 -91 
Q 1294 -91 989 -36 
Q 684 19 347 128 
L 347 722 
Q 666 556 975 473 
Q 1284 391 1588 391 
Q 1994 391 2212 530 
Q 2431 669 2431 922 
Q 2431 1156 2273 1281 
Q 2116 1406 1581 1522 
L 1381 1569 
Q 847 1681 609 1914 
Q 372 2147 372 2553 
Q 372 3047 722 3315 
Q 1072 3584 1716 3584 
Q 2034 3584 2315 3537 
Q 2597 3491 2834 3397 
z
" transform="scale(0.015625)"/>
       <path id="DejaVuSans-65" d="M 3597 1894 
L 3597 1613 
L 953 1613 
Q 991 1019 1311 708 
Q 1631 397 2203 397 
Q 2534 397 2845 478 
Q 3156 559 3463 722 
L 3463 178 
Q 3153 47 2828 -22 
Q 2503 -91 2169 -91 
Q 1331 -91 842 396 
Q 353 884 353 1716 
Q 353 2575 817 3079 
Q 1281 3584 2069 3584 
Q 2775 3584 3186 3129 
Q 3597 2675 3597 1894 
z
M 3022 2063 
Q 3016 2534 2758 2815 
Q 2500 3097 2075 3097 
Q 1594 3097 1305 2825 
Q 1016 2553 972 2059 
L 3022 2063 
z
" transform="scale(0.015625)"/>
       <path id="DejaVuSans-28" d="M 1984 4856 
Q 1566 4138 1362 3434 
Q 1159 2731 1159 2009 
Q 1159 1288 1364 580 
Q 1569 -128 1984 -844 
L 1484 -844 
Q 1016 -109 783 600 
Q 550 1309 550 2009 
Q 550 2706 781 3412 
Q 1013 4119 1484 4856 
L 1984 4856 
z
" transform="scale(0.015625)"/>
       <path id="DejaVuSans-64" d="M 2906 2969 
L 2906 4863 
L 3481 4863 
L 3481 0 
L 2906 0 
L 2906 525 
Q 2725 213 2448 61 
Q 2172 -91 1784 -91 
Q 1150 -91 751 415 
Q 353 922 353 1747 
Q 353 2572 751 3078 
Q 1150 3584 1784 3584 
Q 2172 3584 2448 3432 
Q 2725 3281 2906 2969 
z
M 947 1747 
Q 947 1113 1208 752 
Q 1469 391 1925 391 
Q 2381 391 2643 752 
Q 2906 1113 2906 1747 
Q 2906 2381 2643 2742 
Q 2381 3103 1925 3103 
Q 1469 3103 1208 2742 
Q 947 2381 947 1747 
z
" transform="scale(0.015625)"/>
       <path id="DejaVuSans-72" d="M 2631 2963 
Q 2534 3019 2420 3045 
Q 2306 3072 2169 3072 
Q 1681 3072 1420 2755 
Q 1159 2438 1159 1844 
L 1159 0 
L 581 0 
L 581 3500 
L 1159 3500 
L 1159 2956 
Q 1341 3275 1631 3429 
Q 1922 3584 2338 3584 
Q 2397 3584 2469 3576 
Q 2541 3569 2628 3553 
L 2631 2963 
z
" transform="scale(0.015625)"/>
       <path id="DejaVuSans-76" d="M 191 3500 
L 800 3500 
L 1894 563 
L 2988 3500 
L 3597 3500 
L 2284 0 
L 1503 0 
L 191 3500 
z
" transform="scale(0.015625)"/>
       <path id="DejaVuSans-29" d="M 513 4856 
L 1013 4856 
Q 1481 4119 1714 3412 
Q 1947 2706 1947 2009 
Q 1947 1309 1714 600 
Q 1481 -109 1013 -844 
L 513 -844 
Q 928 -128 1133 580 
Q 1338 1288 1338 2009 
Q 1338 2731 1133 3434 
Q 928 4138 513 4856 
z
" transform="scale(0.015625)"/>
      </defs>
      <use xlink:href="#DejaVuSans-74"/>
      <use xlink:href="#DejaVuSans-6f" x="39.208984"/>
      <use xlink:href="#DejaVuSans-74" x="100.390625"/>
      <use xlink:href="#DejaVuSans-61" x="139.599609"/>
      <use xlink:href="#DejaVuSans-6c" x="200.878906"/>
      <use xlink:href="#DejaVuSans-20" x="228.662109"/>
      <use xlink:href="#DejaVuSans-6e" x="260.449219"/>
      <use xlink:href="#DejaVuSans-6f" x="323.828125"/>
      <use xlink:href="#DejaVuSans-69" x="385.009766"/>
      <use xlink:href="#DejaVuSans-73" x="412.792969"/>
      <use xlink:href="#DejaVuSans-65" x="464.892578"/>
      <use xlink:href="#DejaVuSans-20" x="526.416016"/>
      <use xlink:href="#DejaVuSans-28" x="558.203125"/>
      <use xlink:href="#DejaVuSans-73" x="597.216797"/>
      <use xlink:href="#DejaVuSans-74" x="649.316406"/>
      <use xlink:href="#DejaVuSans-61" x="688.525391"/>
      <use xlink:href="#DejaVuSans-6e" x="749.804688"/>
      <use xlink:href="#DejaVuSans-64" x="813.183594"/>
      <use xlink:href="#DejaVuSans-61" x="876.660156"/>
      <use xlink:href="#DejaVuSans-72" x="937.939453"/>
      <use xlink:href="#DejaVuSans-64" x="977.302734"/>
      <use xlink:href="#DejaVuSans-20" x="1040.779297"/>
      <use xlink:href="#DejaVuSans-64" x="1072.566406"/>
      <use xlink:href="#DejaVuSans-65" x="1136.042969"/>
      <use xlink:href="#DejaVuSans-76" x="1197.566406"/>
      <use xlink:href="#DejaVuSans-69" x="1256.746094"/>
      <use xlink:href="#DejaVuSans-61" x="1284.529297"/>
      <use xlink:href="#DejaVuSans-74" x="1345.808594"/>
      <use xlink:href="#DejaVuSans-69" x="1385.017578"/>
      <use xlink:href="#DejaVuSans-6f" x="1412.800781"/>
      <use xlink:href="#DejaVuSans-6e" x="1473.982422"/>
      <use xlink:href="#DejaVuSans-29" x="1537.361328"/>
     </g>
    </g>
   </g>
   <g id="matplotlib.axis_2">
    <g id="ytick_1">
     <g id="line2d_51">
      <path d="M 81.5616 241.92 
L 435.9168 241.92 
" clip-path="url(#pf64af0c7ab)" style="fill: none; stroke: #b0b0b0; stroke-opacity: 0.6; stroke-width: 0.8; stroke-linecap: square"/>
     </g>
     <g id="line2d_52">
      <defs>
       <path id="m3864aacc79" d="M 0 0 
L 7 0 
" style="stroke: #000000; stroke-width: 1.1"/>
      </defs>
      <g>
       <use xlink:href="#m3864aacc79" x="81.5616" y="241.92" style="fill-opacity: 0; stroke: #000000; stroke-width: 1.1"/>
      </g>
     </g>
     <g id="text_11">
      <!-- 2000 -->
      <g transform="translate(40.9316 247.238906) scale(0.14 -0.14)">
       <use xlink:href="#DejaVuSans-32"/>
       <use xlink:href="#DejaVuSans-30" x="63.623047"/>
       <use xlink:href="#DejaVuSans-30" x="127.246094"/>
       <use xlink:href="#DejaVuSans-30" x="190.869141"/>
      </g>
     </g>
    </g>
    <g id="ytick_2">
     <g id="line2d_53">
      <path d="M 81.5616 213.192 
L 435.9168 213.192 
" clip-path="url(#pf64af0c7ab)" style="fill: none; stroke: #b0b0b0; stroke-opacity: 0.6; stroke-width: 0.8; stroke-linecap: square"/>
     </g>
     <g id="line2d_54">
      <g>
       <use xlink:href="#m3864aacc79" x="81.5616" y="213.192" style="fill-opacity: 0; stroke: #000000; stroke-width: 1.1"/>
      </g>
     </g>
     <g id="text_12">
      <!-- 4000 -->
      <g transform="translate(40.9316 218.510906) scale(0.14 -0.14)">
       <defs>
        <path id="DejaVuSans-34" d="M 2419 4116 
L 825 1625 
L 2419 1625 
L 2419 4116 
z
M 2253 4666 
L 3047 4666 
L 3047 1625 
L 3713 1625 
L 3713 1100 
L 3047 1100 
L 3047 0 
L 2419 0 
L 2419 1100 
L 313 1100 
L 313 1709 
L 2253 4666 
z
" transform="scale(0.015625)"/>
       </defs>
       <use xlink:href="#DejaVuSans-34"/>
       <use xlink:href="#DejaVuSans-30" x="63.623047"/>
       <use xlink:href="#DejaVuSans-30" x="127.246094"/>
       <use xlink:href="#DejaVuSans-30" x="190.869141"/>
      </g>
     </g>
    </g>
    <g id="ytick_3">
     <g id="line2d_55">
      <path d="M 81.5616 184.464 
L 435.9168 184.464 
" clip-path="url(#pf64af0c7ab)" style="fill: none; stroke: #b0b0b0; stroke-opacity: 0.6; stroke-width: 0.8; stroke-linecap: square"/>
     </g>
     <g id="line2d_56">
      <g>
       <use xlink:href="#m3864aacc79" x="81.5616" y="184.464" style="fill-opacity: 0; stroke: #000000; stroke-width: 1.1"/>
      </g>
     </g>
     <g id="text_13">
      <!-- 6000 -->
      <g transform="translate(40.9316 189.782906) scale(0.14 -0.14)">
       <defs>
        <path id="DejaVuSans-36" d="M 2113 2584 
Q 1688 2584 1439 2293 
Q 1191 2003 1191 1497 
Q 1191 994 1439 701 
Q 1688 409 2113 409 
Q 2538 409 2786 701 
Q 3034 994 3034 1497 
Q 3034 2003 2786 2293 
Q 2538 2584 2113 2584 
z
M 3366 4563 
L 3366 3988 
Q 3128 4100 2886 4159 
Q 2644 4219 2406 4219 
Q 1781 4219 1451 3797 
Q 1122 3375 1075 2522 
Q 1259 2794 1537 2939 
Q 1816 3084 2150 3084 
Q 2853 3084 3261 2657 
Q 3669 2231 3669 1497 
Q 3669 778 3244 343 
Q 2819 -91 2113 -91 
Q 1303 -91 875 529 
Q 447 1150 447 2328 
Q 447 3434 972 4092 
Q 1497 4750 2381 4750 
Q 2619 4750 2861 4703 
Q 3103 4656 3366 4563 
z
" transform="scale(0.015625)"/>
       </defs>
       <use xlink:href="#DejaVuSans-36"/>
       <use xlink:href="#DejaVuSans-30" x="63.623047"/>
       <use xlink:href="#DejaVuSans-30" x="127.246094"/>
       <use xlink:href="#DejaVuSans-30" x="190.869141"/>
      </g>
     </g>
    </g>
    <g id="ytick_4">
     <g id="line2d_57">
      <path d="M 81.5616 155.736 
L 435.9168 155.736 
" clip-path="url(#pf64af0c7ab)" style="fill: none; stroke: #b0b0b0; stroke-opacity: 0.6; stroke-width: 0.8; stroke-linecap: square"/>
     </g>
     <g id="line2d_58">
      <g>
       <use xlink:href="#m3864aacc79" x="81.5616" y="155.736" style="fill-opacity: 0; stroke: #000000; stroke-width: 1.1"/>
      </g>
     </g>
     <g id="text_14">
      <!-- 8000 -->
      <g transform="translate(40.9316 161.054906) scale(0.14 -0.14)">
       <defs>
        <path id="DejaVuSans-38" d="M 2034 2216 
Q 1584 2216 1326 1975 
Q 1069 1734 1069 1313 
Q 1069 891 1326 650 
Q 1584 409 2034 409 
Q 2484 409 2743 651 
Q 3003 894 3003 1313 
Q 3003 1734 2745 1975 
Q 2488 2216 2034 2216 
z
M 1403 2484 
Q 997 2584 770 2862 
Q 544 3141 544 3541 
Q 544 4100 942 4425 
Q 1341 4750 2034 4750 
Q 2731 4750 3128 4425 
Q 3525 4100 3525 3541 
Q 3525 3141 3298 2862 
Q 3072 2584 2669 2484 
Q 3125 2378 3379 2068 
Q 3634 1759 3634 1313 
Q 3634 634 3220 271 
Q 2806 -91 2034 -91 
Q 1263 -91 848 271 
Q 434 634 434 1313 
Q 434 1759 690 2068 
Q 947 2378 1403 2484 
z
M 1172 3481 
Q 1172 3119 1398 2916 
Q 1625 2713 2034 2713 
Q 2441 2713 2670 2916 
Q 2900 3119 2900 3481 
Q 2900 3844 2670 4047 
Q 2441 4250 2034 4250 
Q 1625 4250 1398 4047 
Q 1172 3844 1172 3481 
z
" transform="scale(0.015625)"/>
       </defs>
       <use xlink:href="#DejaVuSans-38"/>
       <use xlink:href="#DejaVuSans-30" x="63.623047"/>
       <use xlink:href="#DejaVuSans-30" x="127.246094"/>
       <use xlink:href="#DejaVuSans-30" x="190.869141"/>
      </g>
     </g>
    </g>
    <g id="ytick_5">
     <g id="line2d_59">
      <path d="M 81.5616 127.008 
L 435.9168 127.008 
" clip-path="url(#pf64af0c7ab)" style="fill: none; stroke: #b0b0b0; stroke-opacity: 0.6; stroke-width: 0.8; stroke-linecap: square"/>
     </g>
     <g id="line2d_60">
      <g>
       <use xlink:href="#m3864aacc79" x="81.5616" y="127.008" style="fill-opacity: 0; stroke: #000000; stroke-width: 1.1"/>
      </g>
     </g>
     <g id="text_15">
      <!-- 10000 -->
      <g transform="translate(32.0241 132.326906) scale(0.14 -0.14)">
       <use xlink:href="#DejaVuSans-31"/>
       <use xlink:href="#DejaVuSans-30" x="63.623047"/>
       <use xlink:href="#DejaVuSans-30" x="127.246094"/>
       <use xlink:href="#DejaVuSans-30" x="190.869141"/>
       <use xlink:href="#DejaVuSans-30" x="254.492188"/>
      </g>
     </g>
    </g>
    <g id="ytick_6">
     <g id="line2d_61">
      <path d="M 81.5616 98.28 
L 435.9168 98.28 
" clip-path="url(#pf64af0c7ab)" style="fill: none; stroke: #b0b0b0; stroke-opacity: 0.6; stroke-width: 0.8; stroke-linecap: square"/>
     </g>
     <g id="line2d_62">
      <g>
       <use xlink:href="#m3864aacc79" x="81.5616" y="98.28" style="fill-opacity: 0; stroke: #000000; stroke-width: 1.1"/>
      </g>
     </g>
     <g id="text_16">
      <!-- 12000 -->
      <g transform="translate(32.0241 103.598906) scale(0.14 -0.14)">
       <use xlink:href="#DejaVuSans-31"/>
       <use xlink:href="#DejaVuSans-32" x="63.623047"/>
       <use xlink:href="#DejaVuSans-30" x="127.246094"/>
       <use xlink:href="#DejaVuSans-30" x="190.869141"/>
       <use xlink:href="#DejaVuSans-30" x="254.492188"/>
      </g>
     </g>
    </g>
    <g id="ytick_7">
     <g id="line2d_63">
      <path d="M 81.5616 69.552 
L 435.9168 69.552 
" clip-path="url(#pf64af0c7ab)" style="fill: none; stroke: #b0b0b0; stroke-opacity: 0.6; stroke-width: 0.8; stroke-linecap: square"/>
     </g>
     <g id="line2d_64">
      <g>
       <use xlink:href="#m3864aacc79" x="81.5616" y="69.552" style="fill-opacity: 0; stroke: #000000; stroke-width: 1.1"/>
      </g>
     </g>
     <g id="text_17">
      <!-- 14000 -->
      <g transform="translate(32.0241 74.870906) scale(0.14 -0.14)">
       <use xlink:href="#DejaVuSans-31"/>
       <use xlink:href="#DejaVuSans-34" x="63.623047"/>
       <use xlink:href="#DejaVuSans-30" x="127.246094"/>
       <use xlink:href="#DejaVuSans-30" x="190.869141"/>
       <use xlink:href="#DejaVuSans-30" x="254.492188"/>
      </g>
     </g>
    </g>
    <g id="ytick_8">
     <g id="line2d_65">
      <path d="M 81.5616 40.824 
L 435.9168 40.824 
" clip-path="url(#pf64af0c7ab)" style="fill: none; stroke: #b0b0b0; stroke-opacity: 0.6; stroke-width: 0.8; stroke-linecap: square"/>
     </g>
     <g id="line2d_66">
      <g>
       <use xlink:href="#m3864aacc79" x="81.5616" y="40.824" style="fill-opacity: 0; stroke: #000000; stroke-width: 1.1"/>
      </g>
     </g>
     <g id="text_18">
      <!-- 16000 -->
      <g transform="translate(32.0241 46.142906) scale(0.14 -0.14)">
       <use xlink:href="#DejaVuSans-31"/>
       <use xlink:href="#DejaVuSans-36" x="63.623047"/>
       <use xlink:href="#DejaVuSans-30" x="127.246094"/>
       <use xlink:href="#DejaVuSans-30" x="190.869141"/>
       <use xlink:href="#DejaVuSans-30" x="254.492188"/>
      </g>
     </g>
    </g>
    <g id="ytick_9">
     <g id="line2d_67">
      <path d="M 81.5616 12.096 
L 435.9168 12.096 
" clip-path="url(#pf64af0c7ab)" style="fill: none; stroke: #b0b0b0; stroke-opacity: 0.6; stroke-width: 0.8; stroke-linecap: square"/>
     </g>
     <g id="line2d_68">
      <g>
       <use xlink:href="#m3864aacc79" x="81.5616" y="12.096" style="fill-opacity: 0; stroke: #000000; stroke-width: 1.1"/>
      </g>
     </g>
     <g id="text_19">
      <!-- 18000 -->
      <g transform="translate(32.0241 17.414906) scale(0.14 -0.14)">
       <use xlink:href="#DejaVuSans-31"/>
       <use xlink:href="#DejaVuSans-38" x="63.623047"/>
       <use xlink:href="#DejaVuSans-30" x="127.246094"/>
       <use xlink:href="#DejaVuSans-30" x="190.869141"/>
       <use xlink:href="#DejaVuSans-30" x="254.492188"/>
      </g>
     </g>
    </g>
    <g id="ytick_10">
     <g id="line2d_69">
      <defs>
       <path id="mde00a5dfd9" d="M 0 0 
L 3.5 0 
" style="stroke: #000000; stroke-width: 1.1"/>
      </defs>
      <g>
       <use xlink:href="#mde00a5dfd9" x="81.5616" y="234.738" style="fill-opacity: 0; stroke: #000000; stroke-width: 1.1"/>
      </g>
     </g>
    </g>
    <g id="ytick_11">
     <g id="line2d_70">
      <g>
       <use xlink:href="#mde00a5dfd9" x="81.5616" y="227.556" style="fill-opacity: 0; stroke: #000000; stroke-width: 1.1"/>
      </g>
     </g>
    </g>
    <g id="ytick_12">
     <g id="line2d_71">
      <g>
       <use xlink:href="#mde00a5dfd9" x="81.5616" y="220.374" style="fill-opacity: 0; stroke: #000000; stroke-width: 1.1"/>
      </g>
     </g>
    </g>
    <g id="ytick_13">
     <g id="line2d_72">
      <g>
       <use xlink:href="#mde00a5dfd9" x="81.5616" y="206.01" style="fill-opacity: 0; stroke: #000000; stroke-width: 1.1"/>
      </g>
     </g>
    </g>
    <g id="ytick_14">
     <g id="line2d_73">
      <g>
       <use xlink:href="#mde00a5dfd9" x="81.5616" y="198.828" style="fill-opacity: 0; stroke: #000000; stroke-width: 1.1"/>
      </g>
     </g>
    </g>
    <g id="ytick_15">
     <g id="line2d_74">
      <g>
       <use xlink:href="#mde00a5dfd9" x="81.5616" y="191.646" style="fill-opacity: 0; stroke: #000000; stroke-width: 1.1"/>
      </g>
     </g>
    </g>
    <g id="ytick_16">
     <g id="line2d_75">
      <g>
       <use xlink:href="#mde00a5dfd9" x="81.5616" y="177.282" style="fill-opacity: 0; stroke: #000000; stroke-width: 1.1"/>
      </g>
     </g>
    </g>
    <g id="ytick_17">
     <g id="line2d_76">
      <g>
       <use xlink:href="#mde00a5dfd9" x="81.5616" y="170.1" style="fill-opacity: 0; stroke: #000000; stroke-width: 1.1"/>
      </g>
     </g>
    </g>
    <g id="ytick_18">
     <g id="line2d_77">
      <g>
       <use xlink:href="#mde00a5dfd9" x="81.5616" y="162.918" style="fill-opacity: 0; stroke: #000000; stroke-width: 1.1"/>
      </g>
     </g>
    </g>
    <g id="ytick_19">
     <g id="line2d_78">
      <g>
       <use xlink:href="#mde00a5dfd9" x="81.5616" y="148.554" style="fill-opacity: 0; stroke: #000000; stroke-width: 1.1"/>
      </g>
     </g>
    </g>
    <g id="ytick_20">
     <g id="line2d_79">
      <g>
       <use xlink:href="#mde00a5dfd9" x="81.5616" y="141.372" style="fill-opacity: 0; stroke: #000000; stroke-width: 1.1"/>
      </g>
     </g>
    </g>
    <g id="ytick_21">
     <g id="line2d_80">
      <g>
       <use xlink:href="#mde00a5dfd9" x="81.5616" y="134.19" style="fill-opacity: 0; stroke: #000000; stroke-width: 1.1"/>
      </g>
     </g>
    </g>
    <g id="ytick_22">
     <g id="line2d_81">
      <g>
       <use xlink:href="#mde00a5dfd9" x="81.5616" y="119.826" style="fill-opacity: 0; stroke: #000000; stroke-width: 1.1"/>
      </g>
     </g>
    </g>
    <g id="ytick_23">
     <g id="line2d_82">
      <g>
       <use xlink:href="#mde00a5dfd9" x="81.5616" y="112.644" style="fill-opacity: 0; stroke: #000000; stroke-width: 1.1"/>
      </g>
     </g>
    </g>
    <g id="ytick_24">
     <g id="line2d_83">
      <g>
       <use xlink:href="#mde00a5dfd9" x="81.5616" y="105.462" style="fill-opacity: 0; stroke: #000000; stroke-width: 1.1"/>
      </g>
     </g>
    </g>
    <g id="ytick_25">
     <g id="line2d_84">
      <g>
       <use xlink:href="#mde00a5dfd9" x="81.5616" y="91.098" style="fill-opacity: 0; stroke: #000000; stroke-width: 1.1"/>
      </g>
     </g>
    </g>
    <g id="ytick_26">
     <g id="line2d_85">
      <g>
       <use xlink:href="#mde00a5dfd9" x="81.5616" y="83.916" style="fill-opacity: 0; stroke: #000000; stroke-width: 1.1"/>
      </g>
     </g>
    </g>
    <g id="ytick_27">
     <g id="line2d_86">
      <g>
       <use xlink:href="#mde00a5dfd9" x="81.5616" y="76.734" style="fill-opacity: 0; stroke: #000000; stroke-width: 1.1"/>
      </g>
     </g>
    </g>
    <g id="ytick_28">
     <g id="line2d_87">
      <g>
       <use xlink:href="#mde00a5dfd9" x="81.5616" y="62.37" style="fill-opacity: 0; stroke: #000000; stroke-width: 1.1"/>
      </g>
     </g>
    </g>
    <g id="ytick_29">
     <g id="line2d_88">
      <g>
       <use xlink:href="#mde00a5dfd9" x="81.5616" y="55.188" style="fill-opacity: 0; stroke: #000000; stroke-width: 1.1"/>
      </g>
     </g>
    </g>
    <g id="ytick_30">
     <g id="line2d_89">
      <g>
       <use xlink:href="#mde00a5dfd9" x="81.5616" y="48.006" style="fill-opacity: 0; stroke: #000000; stroke-width: 1.1"/>
      </g>
     </g>
    </g>
    <g id="ytick_31">
     <g id="line2d_90">
      <g>
       <use xlink:href="#mde00a5dfd9" x="81.5616" y="33.642" style="fill-opacity: 0; stroke: #000000; stroke-width: 1.1"/>
      </g>
     </g>
    </g>
    <g id="ytick_32">
     <g id="line2d_91">
      <g>
       <use xlink:href="#mde00a5dfd9" x="81.5616" y="26.46" style="fill-opacity: 0; stroke: #000000; stroke-width: 1.1"/>
      </g>
     </g>
    </g>
    <g id="ytick_33">
     <g id="line2d_92">
      <g>
       <use xlink:href="#mde00a5dfd9" x="81.5616" y="19.278" style="fill-opacity: 0; stroke: #000000; stroke-width: 1.1"/>
      </g>
     </g>
    </g>
    <g id="text_20">
     <!-- Number of iterations -->
     <g style="fill: #3b3b3b" transform="translate(19.112537 199.543312) rotate(-90) scale(0.14 -0.14)">
      <defs>
       <path id="DejaVuSans-4e" d="M 628 4666 
L 1478 4666 
L 3547 763 
L 3547 4666 
L 4159 4666 
L 4159 0 
L 3309 0 
L 1241 3903 
L 1241 0 
L 628 0 
L 628 4666 
z
" transform="scale(0.015625)"/>
       <path id="DejaVuSans-75" d="M 544 1381 
L 544 3500 
L 1119 3500 
L 1119 1403 
Q 1119 906 1312 657 
Q 1506 409 1894 409 
Q 2359 409 2629 706 
Q 2900 1003 2900 1516 
L 2900 3500 
L 3475 3500 
L 3475 0 
L 2900 0 
L 2900 538 
Q 2691 219 2414 64 
Q 2138 -91 1772 -91 
Q 1169 -91 856 284 
Q 544 659 544 1381 
z
M 1991 3584 
L 1991 3584 
z
" transform="scale(0.015625)"/>
       <path id="DejaVuSans-6d" d="M 3328 2828 
Q 3544 3216 3844 3400 
Q 4144 3584 4550 3584 
Q 5097 3584 5394 3201 
Q 5691 2819 5691 2113 
L 5691 0 
L 5113 0 
L 5113 2094 
Q 5113 2597 4934 2840 
Q 4756 3084 4391 3084 
Q 3944 3084 3684 2787 
Q 3425 2491 3425 1978 
L 3425 0 
L 2847 0 
L 2847 2094 
Q 2847 2600 2669 2842 
Q 2491 3084 2119 3084 
Q 1678 3084 1418 2786 
Q 1159 2488 1159 1978 
L 1159 0 
L 581 0 
L 581 3500 
L 1159 3500 
L 1159 2956 
Q 1356 3278 1631 3431 
Q 1906 3584 2284 3584 
Q 2666 3584 2933 3390 
Q 3200 3197 3328 2828 
z
" transform="scale(0.015625)"/>
       <path id="DejaVuSans-62" d="M 3116 1747 
Q 3116 2381 2855 2742 
Q 2594 3103 2138 3103 
Q 1681 3103 1420 2742 
Q 1159 2381 1159 1747 
Q 1159 1113 1420 752 
Q 1681 391 2138 391 
Q 2594 391 2855 752 
Q 3116 1113 3116 1747 
z
M 1159 2969 
Q 1341 3281 1617 3432 
Q 1894 3584 2278 3584 
Q 2916 3584 3314 3078 
Q 3713 2572 3713 1747 
Q 3713 922 3314 415 
Q 2916 -91 2278 -91 
Q 1894 -91 1617 61 
Q 1341 213 1159 525 
L 1159 0 
L 581 0 
L 581 4863 
L 1159 4863 
L 1159 2969 
z
" transform="scale(0.015625)"/>
       <path id="DejaVuSans-66" d="M 2375 4863 
L 2375 4384 
L 1825 4384 
Q 1516 4384 1395 4259 
Q 1275 4134 1275 3809 
L 1275 3500 
L 2222 3500 
L 2222 3053 
L 1275 3053 
L 1275 0 
L 697 0 
L 697 3053 
L 147 3053 
L 147 3500 
L 697 3500 
L 697 3744 
Q 697 4328 969 4595 
Q 1241 4863 1831 4863 
L 2375 4863 
z
" transform="scale(0.015625)"/>
      </defs>
      <use xlink:href="#DejaVuSans-4e"/>
      <use xlink:href="#DejaVuSans-75" x="74.804688"/>
      <use xlink:href="#DejaVuSans-6d" x="138.183594"/>
      <use xlink:href="#DejaVuSans-62" x="235.595703"/>
      <use xlink:href="#DejaVuSans-65" x="299.072266"/>
      <use xlink:href="#DejaVuSans-72" x="360.595703"/>
      <use xlink:href="#DejaVuSans-20" x="401.708984"/>
      <use xlink:href="#DejaVuSans-6f" x="433.496094"/>
      <use xlink:href="#DejaVuSans-66" x="494.677734"/>
      <use xlink:href="#DejaVuSans-20" x="529.882812"/>
      <use xlink:href="#DejaVuSans-69" x="561.669922"/>
      <use xlink:href="#DejaVuSans-74" x="589.453125"/>
      <use xlink:href="#DejaVuSans-65" x="628.662109"/>
      <use xlink:href="#DejaVuSans-72" x="690.185547"/>
      <use xlink:href="#DejaVuSans-61" x="731.298828"/>
      <use xlink:href="#DejaVuSans-74" x="792.578125"/>
      <use xlink:href="#DejaVuSans-69" x="831.787109"/>
      <use xlink:href="#DejaVuSans-6f" x="859.570312"/>
      <use xlink:href="#DejaVuSans-6e" x="920.751953"/>
      <use xlink:href="#DejaVuSans-73" x="984.130859"/>
     </g>
    </g>
   </g>
   <g id="line2d_93">
    <defs>
     <path id="me433f7be83" d="M 0 1.5 
C 0.397805 1.5 0.77937 1.341951 1.06066 1.06066 
C 1.341951 0.77937 1.5 0.397805 1.5 0 
C 1.5 -0.397805 1.341951 -0.77937 1.06066 -1.06066 
C 0.77937 -1.341951 0.397805 -1.5 0 -1.5 
C -0.397805 -1.5 -0.77937 -1.341951 -1.06066 -1.06066 
C -1.341951 -0.77937 -1.5 -0.397805 -1.5 0 
C -1.5 0.397805 -1.341951 0.77937 -1.06066 1.06066 
C -0.77937 1.341951 -0.397805 1.5 0 1.5 
z
" style="stroke: #3b3b3b; stroke-width: 0.8"/>
    </defs>
    <g clip-path="url(#pf64af0c7ab)">
     <use xlink:href="#me433f7be83" x="81.5616" y="39.739662" style="fill-opacity: 0; stroke: #3b3b3b; stroke-width: 0.8"/>
     <use xlink:href="#me433f7be83" x="98.907287" y="219.798535" style="fill-opacity: 0; stroke: #3b3b3b; stroke-width: 0.8"/>
     <use xlink:href="#me433f7be83" x="116.341563" y="225.066432" style="fill-opacity: 0; stroke: #3b3b3b; stroke-width: 0.8"/>
     <use xlink:href="#me433f7be83" x="133.474637" y="224.932616" style="fill-opacity: 0; stroke: #3b3b3b; stroke-width: 0.8"/>
     <use xlink:href="#me433f7be83" x="151.334139" y="228.361375" style="fill-opacity: 0; stroke: #3b3b3b; stroke-width: 0.8"/>
     <use xlink:href="#me433f7be83" x="168.555802" y="225.772164" style="fill-opacity: 0; stroke: #3b3b3b; stroke-width: 0.8"/>
     <use xlink:href="#me433f7be83" x="185.228214" y="227.579744" style="fill-opacity: 0; stroke: #3b3b3b; stroke-width: 0.8"/>
     <use xlink:href="#me433f7be83" x="203.743273" y="229.726343" style="fill-opacity: 0; stroke: #3b3b3b; stroke-width: 0.8"/>
     <use xlink:href="#me433f7be83" x="221.461033" y="228.990547" style="fill-opacity: 0; stroke: #3b3b3b; stroke-width: 0.8"/>
     <use xlink:href="#me433f7be83" x="238.310623" y="223.978718" style="fill-opacity: 0; stroke: #3b3b3b; stroke-width: 0.8"/>
     <use xlink:href="#me433f7be83" x="256.010665" y="225.407189" style="fill-opacity: 0; stroke: #3b3b3b; stroke-width: 0.8"/>
     <use xlink:href="#me433f7be83" x="272.541335" y="219.946298" style="fill-opacity: 0; stroke: #3b3b3b; stroke-width: 0.8"/>
     <use xlink:href="#me433f7be83" x="290.737475" y="220.717731" style="fill-opacity: 0; stroke: #3b3b3b; stroke-width: 0.8"/>
     <use xlink:href="#me433f7be83" x="307.870548" y="211.123196" style="fill-opacity: 0; stroke: #3b3b3b; stroke-width: 0.8"/>
     <use xlink:href="#me433f7be83" x="324.791009" y="204.249347" style="fill-opacity: 0; stroke: #3b3b3b; stroke-width: 0.8"/>
     <use xlink:href="#me433f7be83" x="342.987149" y="189.58073" style="fill-opacity: 0; stroke: #3b3b3b; stroke-width: 0.8"/>
     <use xlink:href="#me433f7be83" x="361.449055" y="173.674697" style="fill-opacity: 0; stroke: #3b3b3b; stroke-width: 0.8"/>
     <use xlink:href="#me433f7be83" x="377.235579" y="138.938207" style="fill-opacity: 0; stroke: #3b3b3b; stroke-width: 0.8"/>
     <use xlink:href="#me433f7be83" x="393.925709" y="104.844348" style="fill-opacity: 0; stroke: #3b3b3b; stroke-width: 0.8"/>
     <use xlink:href="#me433f7be83" x="412.777405" y="40.48343" style="fill-opacity: 0; stroke: #3b3b3b; stroke-width: 0.8"/>
    </g>
   </g>
   <g id="line2d_94">
    <path d="M 81.5616 39.739662 
L 84.907214 74.46919 
L 88.252828 109.198718 
L 91.598443 143.928246 
L 94.944057 178.657773 
L 98.289671 213.387301 
L 101.635285 220.62282 
L 104.980899 221.633722 
L 108.326514 222.644625 
L 111.672128 223.655527 
L 115.017742 224.666429 
L 118.363356 225.050641 
L 121.70897 225.02451 
L 125.054585 224.99838 
L 128.400199 224.97225 
L 131.745813 224.946119 
L 135.091427 225.243016 
L 138.437041 225.885324 
L 141.782656 226.527632 
L 145.12827 227.169941 
L 148.473884 227.812249 
L 151.819498 228.288403 
L 155.165112 227.785403 
L 158.510727 227.282402 
L 161.856341 226.779402 
L 165.201955 226.276402 
L 168.547569 225.773401 
L 171.893183 226.133994 
L 175.238797 226.496717 
L 178.584412 226.85944 
L 181.930026 227.222163 
L 185.27564 227.585242 
L 188.621254 227.973126 
L 191.966868 228.36101 
L 195.312483 228.748894 
L 198.658097 229.136778 
L 202.003711 229.524662 
L 205.349325 229.659646 
L 208.694939 229.520707 
L 212.040554 229.381767 
L 215.386168 229.242828 
L 218.731782 229.103889 
L 222.077396 228.807213 
L 225.42301 227.812076 
L 228.768625 226.816939 
L 232.114239 225.821802 
L 235.459853 224.826665 
L 238.805467 224.018654 
L 242.151081 224.288659 
L 245.496696 224.558665 
L 248.84231 224.828671 
L 252.187924 225.098677 
L 255.533538 225.368682 
L 258.879152 224.459587 
L 262.224767 223.354366 
L 265.570381 222.249146 
L 268.915995 221.143925 
L 272.261609 220.038705 
L 275.607223 220.076277 
L 278.952838 220.218116 
L 282.298452 220.359955 
L 285.644066 220.501793 
L 288.98968 220.643632 
L 292.335294 219.82295 
L 295.680909 217.949404 
L 299.026523 216.075857 
L 302.372137 214.202311 
L 305.717751 212.328764 
L 309.063365 210.638621 
L 312.40898 209.279482 
L 315.754594 207.920344 
L 319.100208 206.561205 
L 322.445822 205.202067 
L 325.791436 203.442864 
L 329.137051 200.745834 
L 332.482665 198.048804 
L 335.828279 195.351774 
L 339.173893 192.654744 
L 342.519507 189.957714 
L 345.865122 187.101185 
L 349.210736 184.218738 
L 352.55635 181.336292 
L 355.901964 178.453846 
L 359.247578 175.5714 
L 362.593192 171.157149 
L 365.938807 163.795497 
L 369.284421 156.433845 
L 372.630035 149.072194 
L 375.975649 141.710542 
L 379.321263 134.677663 
L 382.666878 127.84339 
L 386.012492 121.009117 
L 389.358106 114.174845 
L 392.70372 107.340572 
L 396.049334 97.594152 
L 399.394949 86.172007 
L 402.740563 74.749863 
L 406.086177 63.327718 
L 409.431791 51.905574 
L 412.777405 40.48343 
" clip-path="url(#pf64af0c7ab)" style="fill: none; stroke: #3b3b3b; stroke-width: 2; stroke-linecap: square"/>
   </g>
   <g id="line2d_95">
    <path d="M 256.010665 241.92 
L 256.010665 12.096 
" clip-path="url(#pf64af0c7ab)" style="fill: none; stroke-dasharray: 5.55,2.4; stroke-dashoffset: 0; stroke: #008000; stroke-width: 1.5"/>
   </g>
   <g id="patch_3">
    <path d="M 81.5616 241.92 
L 81.5616 12.096 
" style="fill: none; stroke: #000000; stroke-width: 1.1; stroke-linejoin: miter; stroke-linecap: square"/>
   </g>
   <g id="patch_4">
    <path d="M 435.9168 241.92 
L 435.9168 12.096 
" style="fill: none; stroke: #000000; stroke-width: 1.1; stroke-linejoin: miter; stroke-linecap: square"/>
   </g>
   <g id="patch_5">
    <path d="M 81.5616 241.92 
L 435.9168 241.92 
" style="fill: none; stroke: #000000; stroke-width: 1.1; stroke-linejoin: miter; stroke-linecap: square"/>
   </g>
   <g id="patch_6">
    <path d="M 81.5616 12.096 
L 435.9168 12.096 
" style="fill: none; stroke: #000000; stroke-width: 1.1; stroke-linejoin: miter; stroke-linecap: square"/>
   </g>
  </g>
 </g>
 <defs>
  <clipPath id="pf64af0c7ab">
   <rect x="81.5616" y="12.096" width="354.3552" height="229.824"/>
  </clipPath>
 </defs>
</svg>
